<?xml version="1.0" standalone="no"?>
<!DOCTYPE svg PUBLIC "-//W3C//DTD SVG 1.1//EN" "http://www.w3.org/Graphics/SVG/1.1/DTD/svg11.dtd" >
<svg>
<metadata>
Created by FontForge 20110222 at Mon Oct 29 10:22:37 2012
 By Orthosie Webmaster
Copyright (c) 2005-2012 by Jovanny Lemonad
</metadata>
<defs>
<font id="Scada-Regular" horiz-adv-x="510" >
  <font-face 
    font-family="Scada"
    font-weight="400"
    font-stretch="normal"
    units-per-em="1000"
    panose-1="2 0 5 3 5 0 0 2 0 4"
    ascent="800"
    descent="-200"
    x-height="500"
    cap-height="700"
    bbox="-90 -275 1265 930"
    underline-thickness="50"
    underline-position="-50"
    unicode-range="U+0020-2122"
  />
<missing-glyph horiz-adv-x="270" 
 />
    <glyph glyph-name=".notdef" horiz-adv-x="270" 
 />
    <glyph glyph-name=".null" horiz-adv-x="0" 
 />
    <glyph glyph-name="nonmarkingreturn" horiz-adv-x="333" 
 />
    <glyph glyph-name="space" unicode=" " horiz-adv-x="290" 
 />
    <glyph glyph-name="exclam" unicode="!" horiz-adv-x="290" 
d="M85 700h120l-20 -520h-80zM85 50q0 26 17 43t43 17t43 -17t17 -43t-17 -43t-43 -17t-43 17t-17 43z" />
    <glyph glyph-name="quotedbl" unicode="&#x22;" horiz-adv-x="340" 
d="M40 700h105l-20 -240h-65zM195 700h105l-20 -240h-65z" />
    <glyph glyph-name="numbersign" unicode="#" horiz-adv-x="660" 
d="M299 520h140l41 180h100l-41 -180h101v-70h-117l-46 -200h103v-70h-119l-41 -180h-100l41 180h-140l-41 -180h-100l41 180h-101v70h117l46 200h-103v70h119l41 180h100zM237 250h140l46 200h-140z" />
    <glyph glyph-name="dollar" unicode="$" horiz-adv-x="495" 
d="M190 -7q-38 4 -68 12.5t-50 17.5q-24 11 -42 22l35 60h10q18 -13 41 -23q20 -8 47.5 -15t61.5 -7q68 0 104 33.5t36 86.5q0 40 -24 65.5t-60 45t-78.5 37t-78.5 42t-60 60t-24 90.5q0 69 39 117.5t111 65.5v67h105v-62q38 -4 67 -12.5t49 -17.5q23 -11 39 -23l-35 -60
h-10q-15 12 -36 22q-18 8 -44 15.5t-60 7.5q-28 0 -51 -9t-39.5 -24t-25.5 -35t-9 -42q0 -40 24 -65.5t60 -45t78.5 -37t78.5 -42t60 -60t24 -90.5q0 -78 -43 -129.5t-127 -65.5v-65h-105v63z" />
    <glyph glyph-name="percent" unicode="%" horiz-adv-x="800" 
d="M580 700h110l-470 -700h-110zM190 650q-30 0 -50 -26.5t-20 -93.5q0 -34 5.5 -57t14.5 -37t22 -20t28 -6t28 6t22 20t14.5 37t5.5 57q0 67 -20 93.5t-50 26.5zM190 710q72 0 116 -46.5t44 -133.5t-44 -133.5t-116 -46.5t-116 46.5t-44 133.5t44 133.5t116 46.5zM610 290
q-30 0 -50 -26.5t-20 -93.5q0 -34 5.5 -57t14.5 -37t22 -20t28 -6t28 6t22 20t14.5 37t5.5 57q0 67 -20 93.5t-50 26.5zM610 350q72 0 116 -46.5t44 -133.5t-44 -133.5t-116 -46.5t-116 46.5t-44 133.5t44 133.5t116 46.5z" />
    <glyph glyph-name="ampersand" unicode="&#x26;" horiz-adv-x="615" 
d="M30 180q0 34 12 62.5t32.5 52.5t46.5 45t54 40q-25 24 -43 51q-16 23 -29 54t-13 65q0 72 46 116t129 44q39 0 70.5 -11.5t53.5 -31.5t34 -47.5t12 -59.5q0 -42 -21 -76t-47 -60q-30 -30 -67 -54l150 -180q11 26 15.5 59t4.5 71h90q0 -57 -14.5 -105t-40.5 -90l105 -125
h-120l-50 60q-42 -34 -92.5 -52t-107.5 -18q-49 0 -88 14t-66 39.5t-41.5 60.5t-14.5 76zM260 60q42 0 75.5 12t59.5 38l-170 205q-41 -30 -68 -62t-27 -73q0 -53 35 -86.5t95 -33.5zM190 550q0 -21 9.5 -41t20.5 -37q13 -19 30 -37q24 16 42 36q16 17 29.5 40t13.5 49
q0 42 -20 63.5t-50 21.5q-34 0 -54.5 -23t-20.5 -72z" />
    <glyph glyph-name="quotesingle" unicode="'" horiz-adv-x="185" 
d="M40 700h105l-20 -240h-65z" />
    <glyph glyph-name="parenleft" unicode="(" horiz-adv-x="285" 
d="M55 280q0 64 12 127t36 121.5t59.5 111t82.5 95.5l40 -40q-60 -87 -95 -187t-35 -228t35 -228t95 -187l-40 -40q-47 43 -82.5 95.5t-59.5 111t-36 121.5t-12 127z" />
    <glyph glyph-name="parenright" unicode=")" horiz-adv-x="285" 
d="M230 280q0 -64 -12 -127t-36 -121.5t-59.5 -111t-82.5 -95.5l-40 40q60 87 95 187t35 228t-35 228t-95 187l40 40q47 -43 82.5 -95.5t59.5 -111t36 -121.5t12 -127z" />
    <glyph glyph-name="asterisk" unicode="*" horiz-adv-x="410" 
d="M65 640l105 -60v120h70v-120l105 60l35 -60l-105 -60l105 -60l-35 -60l-105 60v-120h-70v120l-105 -60l-35 60l105 60l-105 60z" />
    <glyph glyph-name="plus" unicode="+" horiz-adv-x="470" 
d="M195 290h-165v80h165v165h80v-165h165v-80h-165v-165h-80v165z" />
    <glyph glyph-name="comma" unicode="," horiz-adv-x="200" 
d="M40 50q0 26 16 43t39 17q30 0 47.5 -18t17.5 -52q0 -44 -14 -75.5t-31 -52.5q-20 -25 -45 -42l-30 35q15 12 27 26q11 12 19.5 27t8.5 32q-23 0 -39 17t-16 43z" />
    <glyph glyph-name="hyphen" unicode="-" horiz-adv-x="440" 
d="M30 290v80h380v-80h-380z" />
    <glyph glyph-name="period" unicode="." horiz-adv-x="200" 
d="M40 50q0 26 17 43t43 17t43 -17t17 -43t-17 -43t-43 -17t-43 17t-17 43z" />
    <glyph glyph-name="slash" unicode="/" horiz-adv-x="410" 
d="M310 700h100l-310 -700h-100z" />
    <glyph glyph-name="zero" unicode="0" horiz-adv-x="580" 
d="M425 350q0 86 -10.5 142t-29 89t-43 46t-52.5 13t-52.5 -13t-43 -46t-29 -89t-10.5 -142t10.5 -142t29 -89t43 -46t52.5 -13t52.5 13t43 46t29 89t10.5 142zM55 350q0 97 17.5 165.5t49 112t74.5 63t94 19.5t94 -19.5t74.5 -63t49 -112t17.5 -165.5q0 -98 -17.5 -166
t-49 -111.5t-74.5 -63t-94 -19.5t-94 19.5t-74.5 63t-49 111.5t-17.5 166z" />
    <glyph glyph-name="one" unicode="1" horiz-adv-x="390" 
d="M160 590l-100 -65l-40 55l150 120h90v-630h110v-70h-320v70h110v520z" />
    <glyph glyph-name="two" unicode="2" horiz-adv-x="500" 
d="M455 520q0 -50 -24 -93t-60 -81.5t-78.5 -73t-78.5 -68t-60 -66.5t-24 -68h325v-70h-425v70q0 50 24 91.5t60 78.5t78.5 71t78.5 68.5t60 71t24 79.5q0 45 -35.5 77.5t-99.5 32.5q-34 0 -60 -7.5t-44 -15.5q-21 -10 -36 -22h-10l-35 60q20 15 49 27q24 11 60.5 19.5
t85.5 8.5q54 0 96 -14t70.5 -39.5t43.5 -60.5t15 -76z" />
    <glyph glyph-name="three" unicode="3" horiz-adv-x="500" 
d="M30 700h410v-70l-225 -220q124 0 184.5 -56.5t60.5 -153.5q0 -98 -61 -154t-189 -56q-49 0 -85.5 8t-60.5 19q-29 12 -49 28l35 60h10q15 -13 36 -23q18 -8 44 -15t60 -7q83 0 121.5 36t38.5 104t-38.5 104t-121.5 36h-105v70l225 220h-290v70z" />
    <glyph glyph-name="four" unicode="4" horiz-adv-x="540" 
d="M520 240v-70h-80v-170h-100v170h-330v70l330 460h100v-460h80zM120 240h220v260q0 9 1 21t3 23q2 12 4 26h-4q-7 -14 -14 -26q-6 -11 -12.5 -23t-12.5 -21z" />
    <glyph glyph-name="five" unicode="5" horiz-adv-x="505" 
d="M60 700h379v-70h-279v-200h65q121 0 180.5 -57t59.5 -163t-60 -163t-185 -57q-49 0 -85.5 8t-60.5 19q-29 12 -49 28l35 60h10q15 -13 36 -23q18 -8 44 -15t60 -7q155 0 155 150t-155 150h-120l-30 30v310z" />
    <glyph glyph-name="six" unicode="6" horiz-adv-x="535" 
d="M55 410q0 157 63 228.5t172 71.5q43 0 76.5 -8.5t56.5 -19.5q27 -12 47 -27l-35 -60h-10q-15 12 -34 22q-17 8 -40 15.5t-51 7.5q-32 0 -58.5 -12t-46 -39t-30 -71t-10.5 -108q15 11 35 20q17 8 41 14t54 6q98 0 154 -57t56 -163q0 -121 -56.5 -180.5t-157.5 -59.5
q-110 0 -168 59.5t-58 180.5v180zM265 380q-26 0 -46.5 -6t-34.5 -14q-17 -9 -29 -20v-110q0 -90 34.5 -130t90.5 -40q49 0 82 40t33 130q0 75 -35 112.5t-95 37.5z" />
    <glyph glyph-name="seven" unicode="7" horiz-adv-x="440" 
d="M140 90q0 86 15.5 166t41 149t57.5 126.5t66 98.5h-320v70h430v-70q-34 -41 -68 -98.5t-61 -126.5t-44 -149t-17 -166v-90h-100v90z" />
    <glyph glyph-name="eight" unicode="8" horiz-adv-x="560" 
d="M280 330q-28 -11 -53.5 -24.5t-44.5 -31.5t-30.5 -41t-11.5 -53q0 -53 36 -86.5t104 -33.5t104 33.5t36 86.5q0 30 -11.5 53t-30.5 41t-44.5 31.5t-53.5 24.5zM280 410q22 7 42 18t35 26t24 35t9 46q0 21 -9 40t-24 33.5t-35 23t-42 8.5q-23 0 -43 -8.5t-35 -23
t-23.5 -33.5t-8.5 -40q0 -26 8.5 -46t23.5 -35t35 -26t43 -18zM70 535q0 36 14.5 67.5t41.5 55.5t66 38t88 14t88 -14t66 -38t41.5 -55.5t14.5 -67.5q0 -49 -20 -80.5t-43 -50.5q-27 -22 -62 -34q43 -12 77 -37q15 -11 29 -25t25 -33t17.5 -42.5t6.5 -52.5q0 -38 -16.5 -72
t-47.5 -60.5t-75.5 -42t-100.5 -15.5t-100.5 15.5t-75.5 42t-47.5 60.5t-16.5 72q0 58 24 95t53 58q34 25 78 37q-36 12 -63 34q-23 19 -42.5 50.5t-19.5 80.5z" />
    <glyph glyph-name="nine" unicode="9" horiz-adv-x="535" 
d="M480 290q0 -79 -16.5 -135.5t-47 -93t-74 -54t-97.5 -17.5q-44 0 -77 8t-56 19q-27 12 -47 28l35 60h10q15 -13 34 -23q17 -8 39.5 -15t51.5 -7q32 0 58.5 12t46 39t30 71t10.5 108q-16 -11 -35 -20q-17 -8 -41 -14t-54 -6q-98 0 -154 57t-56 163q0 121 56.5 180.5
t157.5 59.5q110 0 168 -59.5t58 -180.5v-180zM270 320q26 0 46.5 6t34.5 14q17 9 29 20v110q0 90 -34.5 130t-90.5 40q-49 0 -82 -40t-33 -130q0 -75 35 -112.5t95 -37.5z" />
    <glyph glyph-name="colon" unicode=":" horiz-adv-x="200" 
d="M40 50q0 26 17 43t43 17t43 -17t17 -43t-17 -43t-43 -17t-43 17t-17 43zM40 450q0 26 17 43t43 17t43 -17t17 -43t-17 -43t-43 -17t-43 17t-17 43z" />
    <glyph glyph-name="semicolon" unicode=";" horiz-adv-x="200" 
d="M40 450q0 26 17 43t43 17t43 -17t17 -43t-17 -43t-43 -17t-43 17t-17 43zM40 50q0 26 16 43t39 17q30 0 47.5 -18t17.5 -52q0 -44 -14 -75.5t-31 -52.5q-20 -25 -45 -42l-30 35q15 12 27 26q11 12 19.5 27t8.5 32q-23 0 -39 17t-16 43z" />
    <glyph glyph-name="less" unicode="&#x3c;" horiz-adv-x="470" 
d="M430 500v-95l-280 -155l280 -155v-95l-390 215v70z" />
    <glyph glyph-name="equal" unicode="=" horiz-adv-x="470" 
d="M35 200v80h400v-80h-400zM35 380v80h400v-80h-400z" />
    <glyph glyph-name="greater" unicode="&#x3e;" horiz-adv-x="445" 
d="M425 285v-70l-390 -215v95l280 155l-280 155v95z" />
    <glyph glyph-name="question" unicode="?" horiz-adv-x="460" 
d="M121 50q0 26 17 43t43 17t43 -17t17 -43t-17 -43t-43 -17t-43 17t-17 43zM226 180h-90v40q0 42 13.5 72t34 53t44.5 41.5t44.5 38.5t34 45t13.5 60q0 45 -35.5 77.5t-99.5 32.5q-34 0 -60 -7.5t-44 -15.5q-21 -10 -36 -22h-10l-35 60q20 15 49 27q24 11 60.5 19.5
t85.5 8.5q54 0 96 -14t70.5 -39.5t43.5 -60.5t15 -76q0 -43 -14.5 -72.5t-36 -52t-46.5 -40.5t-46.5 -37t-36 -42.5t-14.5 -55.5v-40z" />
    <glyph glyph-name="at" unicode="@" horiz-adv-x="930" 
d="M550 405q-12 15 -26 27q-12 11 -28.5 19.5t-35.5 8.5q-21 0 -39 -9t-31.5 -28.5t-21.5 -51t-8 -76.5t8 -76.5t21.5 -51t31.5 -28.5t39 -9q19 0 35.5 7t28.5 15q14 10 26 23v230zM455 -120q-86 0 -161 32t-130.5 88t-87 133t-31.5 167t32 167t88 133t133 88t167 32
t167 -32t133 -88t88 -133t32 -167q0 -62 -14 -108t-38.5 -76.5t-57.5 -45.5t-70 -15q-38 0 -63.5 8t-41.5 19q-18 12 -30 28h-5q-16 -16 -35 -28q-17 -11 -41 -19t-54 -8q-38 0 -70 14.5t-55 44t-36.5 74.5t-13.5 107t13.5 107t36.5 74.5t55 44t70 14.5q32 0 56 -10.5
t41 -22.5q19 -14 33 -32h5l10 55h70v-385q6 -6 13 -10q6 -4 14 -7t18 -3q17 0 34.5 9t32 30t24 55.5t9.5 85.5q0 79 -25 143.5t-69 110.5t-104.5 71t-131.5 25t-131.5 -25t-104.5 -71t-69 -110.5t-25 -143.5t25 -143.5t69 -110.5t104.5 -71t131.5 -25q38 0 67 7t50 15
q24 10 43 23h10l35 -60q-23 -16 -55 -28q-27 -11 -67 -19t-93 -8z" />
    <glyph glyph-name="A" unicode="A" horiz-adv-x="570" 
d="M455 0l-55 180h-230l-55 -180h-100l205 700h130l205 -700h-100zM190 250h190l-80 275q-4 11 -6 23.5t-4 23.5q-2 12 -3 23h-4q-1 -12 -3 -24q-2 -11 -4.5 -23t-5.5 -23z" />
    <glyph glyph-name="B" unicode="B" horiz-adv-x="575" 
d="M385 370q39 -9 70 -32q13 -10 25.5 -23.5t22.5 -31.5t16 -41t6 -52q0 -43 -14.5 -78t-44.5 -60t-76 -38.5t-110 -13.5h-190v700h190q54 0 95.5 -13.5t69 -36.5t41.5 -55.5t14 -69.5q0 -49 -18 -79t-40 -47q-26 -20 -57 -29zM190 400h90q57 0 88.5 31t31.5 84t-31.5 84
t-88.5 31h-90v-230zM190 330v-260h90q75 0 110 33t35 97t-35 97t-110 33h-90z" />
    <glyph glyph-name="C" unicode="C" horiz-adv-x="515" 
d="M55 350q0 97 18 165.5t51 112t79 63t102 19.5q42 0 74 -8.5t55 -19.5q26 -12 46 -27l-35 -60h-10q-16 12 -34 22q-16 8 -38 15.5t-48 7.5q-34 0 -63 -14.5t-50.5 -48t-34 -89.5t-12.5 -138q0 -83 12.5 -138.5t35 -89t53.5 -48t69 -14.5q26 0 48 7t38 15q18 10 34 23h10
l35 -60q-20 -16 -46 -28q-23 -11 -55 -19t-74 -8q-60 0 -108 19.5t-82 63t-52 111.5t-18 166z" />
    <glyph glyph-name="D" unicode="D" horiz-adv-x="585" 
d="M90 0v700h150q71 0 125.5 -19.5t91 -61.5t55 -108.5t18.5 -160.5t-18.5 -160.5t-55 -108.5t-91 -61.5t-125.5 -19.5h-150zM240 70q45 0 80.5 14t59.5 47t37 86.5t13 132.5t-13 132.5t-37 86.5t-59.5 47t-80.5 14h-50v-560h50z" />
    <glyph glyph-name="E" unicode="E" 
d="M90 0v700h390v-70h-290v-230h230v-70h-230v-260h290v-70h-390z" />
    <glyph glyph-name="F" unicode="F" horiz-adv-x="500" 
d="M90 0v700h390v-70h-290v-240h230v-70h-230v-320h-100z" />
    <glyph glyph-name="G" unicode="G" horiz-adv-x="565" 
d="M500 45q-21 -16 -49 -28q-24 -11 -58.5 -19t-77.5 -8q-56 0 -104 21t-82.5 65t-54 112t-19.5 162t19.5 162t53 112t79 65t98.5 21q42 0 74 -8.5t55 -19.5q26 -12 46 -27l-35 -60h-10q-16 12 -34 22q-16 8 -38 15.5t-48 7.5q-34 0 -63 -14.5t-50.5 -48t-34 -89.5
t-12.5 -138q0 -83 12.5 -138.5t35 -89t53.5 -48t69 -14.5q15 0 28.5 3.5t24 7t16.5 6.5l6 3v230h-115v70h185l30 -30v-305z" />
    <glyph glyph-name="H" unicode="H" horiz-adv-x="630" 
d="M540 700v-700h-100v320h-250v-320h-100v700h100v-310h250v310h100z" />
    <glyph glyph-name="I" unicode="I" horiz-adv-x="280" 
d="M90 700h100v-700h-100v700z" />
    <glyph glyph-name="J" unicode="J" horiz-adv-x="425" 
d="M125 60q57 0 86 31t29 99v510h100v-510q0 -98 -51.5 -149t-153.5 -51q-30 0 -55 7t-43 15q-21 10 -37 23l30 65h10q12 -11 26 -20q12 -8 27 -14t32 -6z" />
    <glyph glyph-name="K" unicode="K" horiz-adv-x="555" 
d="M540 0h-115l-235 350v-350h-100v700h100v-330l225 330h115l-230 -340z" />
    <glyph glyph-name="L" unicode="L" horiz-adv-x="490" 
d="M190 700v-630h290v-70h-390v700h100z" />
    <glyph glyph-name="M" unicode="M" horiz-adv-x="840" 
d="M400 275q4 -6 7.5 -14.5t5.5 -16.5q3 -10 5 -19h4q2 9 5 19q2 8 5.5 16.5t7.5 14.5l210 425h100v-700h-100v420q0 11 0.5 25.5t1.5 28.5q1 15 2 31h-4q-4 -16 -9 -31q-5 -14 -10.5 -28.5t-10.5 -25.5l-150 -295h-100l-150 295q-6 11 -11 25.5t-10 28.5q-5 15 -9 31h-4
q1 -16 2 -31q1 -14 1.5 -28.5t0.5 -25.5v-420h-100v700h100z" />
    <glyph glyph-name="N" unicode="N" horiz-adv-x="630" 
d="M220 445q-5 11 -10 25.5t-10 28.5q-5 15 -10 31h-4q1 -16 2 -31q1 -14 1.5 -28.5t0.5 -25.5v-445h-100v700h110l210 -445q5 -11 10 -26t10 -28q5 -16 10 -31h4q-1 15 -2 31q-1 13 -1.5 28t-0.5 26v445h100v-700h-110z" />
    <glyph glyph-name="O" unicode="O" horiz-adv-x="600" 
d="M155 350q0 -83 12 -138.5t32.5 -89t46.5 -48t54 -14.5t54 14.5t46.5 48t32.5 89t12 138.5q0 82 -12 138t-32.5 89.5t-46.5 48t-54 14.5t-54 -14.5t-46.5 -48t-32.5 -89.5t-12 -138zM545 350q0 -98 -18 -166t-50 -111.5t-77.5 -63t-99.5 -19.5t-99.5 19.5t-77.5 63
t-50 111.5t-18 166q0 97 18 165.5t50 112t77.5 63t99.5 19.5t99.5 -19.5t77.5 -63t50 -112t18 -165.5z" />
    <glyph glyph-name="P" unicode="P" horiz-adv-x="565" 
d="M270 310q75 0 112.5 38.5t37.5 121.5t-37.5 121.5t-112.5 38.5h-80v-320h80zM190 240v-240h-100v700h180q128 0 189 -58.5t61 -171.5t-61 -171.5t-189 -58.5h-80z" />
    <glyph glyph-name="Q" unicode="Q" horiz-adv-x="600" 
d="M545 350q0 -86 -14.5 -149.5t-40 -106.5t-61.5 -67.5t-79 -31.5q0 -42 17.5 -61t47.5 -19q15 0 25 5q5 2 10 5h10l20 -65q-11 -4 -23 -8q-11 -3 -24 -5t-28 -2q-72 0 -113.5 41t-41.5 109q-43 7 -79 31.5t-61.5 67.5t-40 106.5t-14.5 149.5q0 97 18 165.5t50 112t77.5 63
t99.5 19.5t99.5 -19.5t77.5 -63t50 -112t18 -165.5zM155 350q0 -83 12 -138.5t32.5 -89t46.5 -48t54 -14.5t54 14.5t46.5 48t32.5 89t12 138.5q0 82 -12 138t-32.5 89.5t-46.5 48t-54 14.5t-54 -14.5t-46.5 -48t-32.5 -89.5t-12 -138z" />
    <glyph glyph-name="R" unicode="R" horiz-adv-x="575" 
d="M190 260v-260h-100v700h170q128 0 189 -57t61 -163q0 -160 -137 -205l167 -275h-115l-155 260h-80zM260 330q150 0 150 150t-150 150h-70v-300h70z" />
    <glyph glyph-name="S" unicode="S" horiz-adv-x="505" 
d="M255 710q49 0 85 -8.5t61 -19.5q28 -12 49 -27l-35 -60h-10q-15 12 -36 22q-18 8 -44 15.5t-60 7.5q-26 0 -48 -9t-38 -24t-25 -35t-9 -42q0 -40 24 -65.5t60 -45t78.5 -37t78.5 -42t60 -60t24 -90.5q0 -45 -15 -82t-44 -63t-72 -40.5t-99 -14.5q-49 0 -87 8t-64 19
q-31 12 -54 28l35 60h10q18 -13 41 -23q20 -8 47.5 -15t61.5 -7q68 0 104 33.5t36 86.5q0 40 -24 65.5t-60 45t-78.5 37t-78.5 42t-60 60t-24 90.5q0 41 14.5 76t41.5 60.5t66 39.5t88 14z" />
    <glyph glyph-name="T" unicode="T" horiz-adv-x="480" 
d="M190 0v630h-180v70h460v-70h-180v-630h-100z" />
    <glyph glyph-name="U" unicode="U" horiz-adv-x="620" 
d="M310 60q57 0 91 38.5t34 121.5v480h100v-480q0 -113 -58 -171.5t-167 -58.5t-167 58.5t-58 171.5v480h100v-480q0 -83 34 -121.5t91 -38.5z" />
    <glyph glyph-name="V" unicode="V" horiz-adv-x="550" 
d="M277 105q1 12 3 24q2 11 4.5 23t5.5 23l145 525h100l-195 -700h-130l-195 700h100l145 -525q3 -11 5 -23t4 -23l4 -24h4z" />
    <glyph glyph-name="W" unicode="W" horiz-adv-x="860" 
d="M605 210q2 -11 4 -25t4 -26q2 -14 3 -29h4q0 15 2 29q2 12 3.5 26t4.5 25l115 490h100l-165 -700h-120l-115 490q-3 11 -5 25t-4 26q-2 14 -4 29h-4q-2 -15 -4 -29q-2 -12 -4.5 -26t-4.5 -25l-115 -490h-120l-165 700h100l115 -490q2 -11 4 -25t4 -26q2 -14 2 -29h4
q1 15 3 29q2 12 3.5 26t4.5 25l115 490h120z" />
    <glyph glyph-name="X" unicode="X" horiz-adv-x="530" 
d="M245 475q3 -7 6.5 -14.5t5.5 -14.5l6 -16h4l6 16q2 7 5 14.5t7 14.5l115 225h110l-180 -345l185 -355h-110l-120 235q-4 6 -7 14t-5 15l-6 16h-4l-6 -16q-5 -15 -12 -29l-120 -235h-110l185 355l-180 345h110z" />
    <glyph glyph-name="Y" unicode="Y" horiz-adv-x="530" 
d="M425 700h105l-215 -470v-230h-100v230l-215 470h105l140 -305q4 -10 7.5 -20t5.5 -19q3 -11 5 -21h4q2 10 5 21q2 9 5 19t8 20z" />
    <glyph glyph-name="Z" unicode="Z" horiz-adv-x="485" 
d="M25 0v75l310 555h-310v70h430v-75l-310 -555h315v-70h-435z" />
    <glyph glyph-name="bracketleft" unicode="[" horiz-adv-x="310" 
d="M290 -170h-200v900h200v-70h-100v-760h100v-70z" />
    <glyph glyph-name="backslash" unicode="\" horiz-adv-x="410" 
d="M410 0h-100l-310 700h100z" />
    <glyph glyph-name="bracketright" unicode="]" horiz-adv-x="310" 
d="M20 -100h100v760h-100v70h200v-900h-200v70z" />
    <glyph glyph-name="asciicircum" unicode="^" horiz-adv-x="430" 
d="M250 720l180 -280h-100l-115 180l-115 -180h-100l180 280h70z" />
    <glyph glyph-name="underscore" unicode="_" horiz-adv-x="380" 
d="M0 -130v80h380v-80h-380z" />
    <glyph glyph-name="grave" unicode="`" horiz-adv-x="175" 
d="M120 700l45 -150h-65l-90 150h110z" />
    <glyph glyph-name="a" unicode="a" 
d="M340 320q0 60 -28 90t-77 30q-23 0 -43 -7.5t-35 -15.5q-18 -10 -32 -22h-10l-35 60q19 15 45 27q22 11 52 19.5t68 8.5q43 0 79 -14t61.5 -39.5t40 -60.5t14.5 -76v-320h-70l-10 60h-5q-14 -20 -35 -35q-18 -14 -45 -24.5t-65 -10.5q-79 0 -122 41.5t-43 113.5
q0 34 12 61.5t37.5 47t66.5 30.5t99 11h80v25zM340 225h-80q-60 0 -87.5 -23t-27.5 -57q0 -38 22.5 -59t67.5 -21q23 0 42 9.5t33 20.5q17 13 30 30v100z" />
    <glyph glyph-name="b" unicode="b" horiz-adv-x="535" 
d="M175 125q13 -17 30 -30q14 -11 33 -20.5t42 -9.5q21 0 40 10t33.5 32t23 57t8.5 86q0 52 -9 88.5t-24.5 59t-36.5 32.5t-45 10q-21 0 -38 -3t-30 -7q-15 -4 -27 -10v-295zM175 700v-220q14 8 32 15q15 5 35 10t43 5q43 0 79.5 -16t63.5 -48.5t42 -81t15 -114.5
t-15 -114.5t-39.5 -81t-57 -48.5t-68.5 -16q-38 0 -65 10.5t-45 24.5q-21 15 -35 35h-5l-10 -60h-70v670l30 30h70z" />
    <glyph glyph-name="c" unicode="c" horiz-adv-x="455" 
d="M270 440q-26 0 -48 -10t-38 -32.5t-25 -59t-9 -88.5q0 -105 35 -147.5t95 -42.5q23 0 42.5 7t34.5 15q18 10 33 23h10l35 -60q-19 -16 -45 -28q-22 -11 -52 -19t-68 -8q-101 0 -160.5 64.5t-59.5 195.5q0 66 15 114.5t43 81t66.5 48.5t85.5 16q38 0 68 -8.5t52 -19.5
q26 -12 45 -27l-35 -60h-10q-15 12 -33 22q-15 8 -34.5 15.5t-42.5 7.5z" />
    <glyph glyph-name="d" unicode="d" horiz-adv-x="535" 
d="M360 420q-12 6 -27 10q-13 4 -30.5 7t-37.5 3q-24 0 -45 -10t-36.5 -32.5t-24.5 -59t-9 -88.5q0 -51 8.5 -86t23 -57t33.5 -32t40 -10q23 0 42 9.5t33 20.5q17 13 30 30v295zM390 700h70v-700h-70l-10 60h-5q-14 -20 -35 -35q-18 -14 -45 -24.5t-65 -10.5q-36 0 -68.5 16
t-57 48.5t-39.5 81t-15 114.5t15 114.5t42 81t63.5 48.5t79.5 16q23 0 42.5 -5t34.5 -10q18 -7 33 -15v190z" />
    <glyph glyph-name="e" unicode="e" horiz-adv-x="505" 
d="M255 510q45 0 82.5 -16t65 -48.5t42.5 -81t15 -114.5v-15l-20 -20h-290q0 -79 35 -117t95 -38q23 0 42.5 7t34.5 15q18 10 33 23h10l35 -60q-19 -16 -45 -28q-22 -11 -52 -19t-68 -8q-101 0 -160.5 64.5t-59.5 195.5q0 66 15 114.5t42.5 81t65 48.5t82.5 16zM255 440
q-45 0 -75 -36t-30 -119h210q0 83 -30 119t-75 36z" />
    <glyph glyph-name="f" unicode="f" horiz-adv-x="340" 
d="M260 640q-34 0 -54.5 -22.5t-20.5 -67.5v-50h135v-70h-135v-430h-100v430h-65v70h65v50q0 36 11.5 65.5t33.5 50.5t52 32.5t68 11.5q32 0 58 -8.5t46 -19.5q23 -12 41 -27l-35 -60h-10q-13 12 -28 22q-13 8 -29 15.5t-33 7.5z" />
    <glyph glyph-name="g" unicode="g" horiz-adv-x="535" 
d="M360 375q-13 17 -30 30q-14 11 -33 20.5t-42 9.5q-21 0 -40 -10t-33.5 -32t-23 -57t-8.5 -86q0 -53 9 -89t24.5 -58.5t36.5 -32.5t45 -10q20 0 37.5 3t30.5 7q15 4 27 10v295zM460 -10q0 -45 -14.5 -82t-42.5 -63t-67.5 -40.5t-90.5 -14.5q-38 0 -68 8t-52 19
q-26 12 -45 28l35 60h10q14 -13 32 -23q15 -8 35 -15t43 -7q64 0 94.5 31t30.5 99v30q-15 -9 -33 -15q-15 -6 -34.5 -10.5t-42.5 -4.5q-43 0 -79.5 16t-63.5 48.5t-42 81t-15 114.5t15 114.5t39.5 81t57 48.5t68.5 16q38 0 65 -11t45 -24q21 -16 35 -35h5l10 60h70v-510z
" />
    <glyph glyph-name="h" unicode="h" horiz-adv-x="545" 
d="M175 700v-240q14 14 33 25q17 9 41 17t56 8q37 0 68.5 -12.5t54 -35t35 -54t12.5 -68.5v-340h-100v340q0 42 -26.5 68.5t-68.5 26.5q-23 0 -42 -9.5t-33 -20.5q-17 -13 -30 -30v-375h-100v670l30 30h70z" />
    <glyph glyph-name="i" unicode="i" horiz-adv-x="250" 
d="M175 500v-500h-100v500h100zM185 640q0 -26 -17 -43t-43 -17t-43 17t-17 43t17 43t43 17t43 -17t17 -43z" />
    <glyph glyph-name="j" unicode="j" horiz-adv-x="250" 
d="M185 640q0 -26 -17 -43t-43 -17t-43 17t-17 43t17 43t43 17t43 -17t17 -43zM0 -130q34 0 54.5 22.5t20.5 67.5v540h100v-540q0 -36 -11.5 -65.5t-33.5 -50.5t-52.5 -32.5t-67.5 -11.5q-23 0 -41.5 4.5t-31.5 10.5q-16 6 -27 15l25 65h10q7 -8 16 -13q8 -5 18 -8.5
t21 -3.5z" />
    <glyph glyph-name="k" unicode="k" horiz-adv-x="480" 
d="M175 700v-430l170 230h115l-180 -240l190 -260h-115l-180 250v-250h-100v670l30 30h70z" />
    <glyph glyph-name="l" unicode="l" horiz-adv-x="250" 
d="M75 670l30 30h70v-700h-100v670z" />
    <glyph glyph-name="m" unicode="m" horiz-adv-x="805" 
d="M425 440q18 19 41 35q20 13 47.5 24t61.5 11t63 -12.5t50.5 -35t34 -54t12.5 -68.5v-340h-100v340q0 42 -25.5 68.5t-59.5 26.5q-19 0 -36 -8t-30 -17q-16 -11 -29 -25v-385h-100v340q0 42 -25.5 68.5t-59.5 26.5q-19 0 -36 -9.5t-30 -20.5q-16 -13 -29 -30v-375h-100
v500h70l10 -60h5q16 19 36 35q17 13 42 24t57 11q35 0 60 -11t41 -24q18 -16 29 -35z" />
    <glyph glyph-name="n" unicode="n" horiz-adv-x="545" 
d="M280 435q-23 0 -42 -9.5t-33 -20.5q-17 -13 -30 -30v-375h-100v500h70l10 -60h5q14 19 35 35q18 13 45 24t65 11q37 0 68.5 -12.5t54 -35t35 -54t12.5 -68.5v-340h-100v340q0 42 -26.5 68.5t-68.5 26.5z" />
    <glyph glyph-name="o" unicode="o" horiz-adv-x="530" 
d="M480 250q0 -66 -15.5 -114.5t-43.5 -81t-67.5 -48.5t-88.5 -16q-98 0 -156.5 64.5t-58.5 195.5t58.5 195.5t156.5 64.5q49 0 88.5 -16t67.5 -48.5t43.5 -81t15.5 -114.5zM380 250q0 52 -9 88.5t-24.5 59t-36.5 32.5t-45 10t-45 -10t-36.5 -32.5t-24.5 -59t-9 -88.5
q0 -53 9 -89t24.5 -58.5t36.5 -32.5t45 -10t45 10t36.5 32.5t24.5 58.5t9 89z" />
    <glyph glyph-name="p" unicode="p" horiz-adv-x="535" 
d="M175 80q12 -6 27 -10q13 -4 30 -7t38 -3q24 0 45 10t36.5 32.5t24.5 58.5t9 89q0 51 -8.5 86t-23 57t-33.5 32t-40 10q-23 0 -42 -9.5t-33 -20.5q-17 -13 -30 -30v-295zM145 -200h-70v700h70l10 -60h5q14 19 35 35q18 13 45 24t65 11q36 0 68.5 -16t57 -48.5t39.5 -81
t15 -114.5t-15 -114.5t-42 -81t-63.5 -48.5t-79.5 -16q-23 0 -43 4.5t-35 10.5q-18 6 -32 15v-190z" />
    <glyph glyph-name="q" unicode="q" horiz-adv-x="535" 
d="M360 375q-13 17 -30 30q-14 11 -33 20.5t-42 9.5q-21 0 -40 -10t-33.5 -32t-23 -57t-8.5 -86q0 -53 9 -89t24.5 -58.5t36.5 -32.5t45 -10q20 0 37.5 3t30.5 7q15 4 27 10v295zM360 -170v190q-15 -9 -33 -15q-15 -6 -34.5 -10.5t-42.5 -4.5q-43 0 -79.5 16t-63.5 48.5
t-42 81t-15 114.5t15 114.5t39.5 81t57 48.5t68.5 16q38 0 65 -11t45 -24q21 -16 35 -35h5l10 60h70v-700h-70z" />
    <glyph glyph-name="r" unicode="r" horiz-adv-x="365" 
d="M275 430q-21 0 -39 -9.5t-32 -20.5q-16 -13 -29 -30v-370h-100v500h70l10 -60h5q14 19 34 35q17 13 43.5 24t62.5 11q13 0 25 -1.5t21 -3.5q11 -3 19 -5l-15 -80h-10q-10 2 -21 5q-10 2 -21.5 3.5t-22.5 1.5z" />
    <glyph glyph-name="s" unicode="s" horiz-adv-x="460" 
d="M220 -10q-45 0 -80 8t-58 19q-27 12 -47 28l35 60h10q15 -13 35 -23q17 -8 41 -15t54 -7q64 0 89.5 20t25.5 50q0 27 -20.5 43.5t-52 28.5t-67.5 23t-67.5 28t-52 43t-20.5 69q0 64 46 104.5t144 40.5q42 0 74 -8.5t55 -19.5q26 -12 46 -27l-35 -60h-10q-16 12 -34 22
q-16 8 -38 15.5t-48 7.5q-53 0 -76.5 -19.5t-23.5 -45.5q0 -27 20.5 -43.5t52 -28.5t67.5 -23t67.5 -28t52 -43.5t20.5 -68.5q0 -34 -11.5 -61.5t-36.5 -47t-64 -30.5t-93 -11z" />
    <glyph glyph-name="t" unicode="t" horiz-adv-x="400" 
d="M195 150q0 -45 20.5 -67.5t54.5 -22.5q17 0 32 6t27 14q14 9 26 20h10l35 -60q-18 -14 -40 -25q-19 -10 -44.5 -17.5t-55.5 -7.5q-38 0 -68 11.5t-52 32.5t-33.5 50.5t-11.5 65.5v280h-75v60l130 130h45v-120h125v-70h-125v-280z" />
    <glyph glyph-name="u" unicode="u" horiz-adv-x="550" 
d="M270 65q23 0 42 9.5t33 20.5q17 13 30 30v375h100v-500h-70l-10 60h-5q-14 -20 -35 -35q-18 -14 -45 -24.5t-65 -10.5t-69 12.5t-53.5 35t-35 53.5t-12.5 69v340h100v-340q0 -42 26.5 -68.5t68.5 -26.5z" />
    <glyph glyph-name="v" unicode="v" horiz-adv-x="470" 
d="M175 0l-160 500h100l105 -330q4 -11 6 -23t4 -23q2 -12 3 -24h4q1 12 3 24q2 11 4 23t6 23l105 330h100l-160 -500h-120z" />
    <glyph glyph-name="w" unicode="w" horiz-adv-x="710" 
d="M415 500l80 -305q3 -11 4.5 -23t3.5 -21q2 -11 3 -21h4q0 10 2 21q2 20 8 44l80 305h95l-130 -500h-110l-85 315q-3 9 -5 21t-4 23q-2 12 -4 26h-4q-2 -14 -4 -26q-2 -11 -4.5 -23t-4.5 -21l-85 -315h-110l-130 500h95l80 -305q3 -11 4.5 -23t3.5 -21q1 -11 2 -21h4
q0 10 2 21q2 9 4 21t5 23l80 305h120z" />
    <glyph glyph-name="x" unicode="x" horiz-adv-x="460" 
d="M228 185q-2 -7 -5 -14q-5 -13 -13 -26l-85 -145h-110l155 255l-150 245h110l80 -140l6.5 -13t5.5 -13l6 -14h4l6 14q2 6 5 13t7 13l80 140h110l-150 -245l155 -255h-110l-85 145q-8 13 -13 26q-3 7 -5 14h-4z" />
    <glyph glyph-name="y" unicode="y" horiz-adv-x="475" 
d="M125 -140q26 0 46.5 20t28.5 50l20 70h-40l-165 500h100l110 -330q4 -11 7.5 -25l6.5 -26q4 -14 7 -29h4q2 15 6 29l6.5 26t6.5 25l91 330h100l-160 -570q-17 -60 -59 -100t-106 -40q-23 0 -41.5 4.5t-31.5 10.5q-16 6 -27 15l25 65h10q7 -8 16 -13q8 -5 18 -8.5t21 -3.5
z" />
    <glyph glyph-name="z" unicode="z" horiz-adv-x="440" 
d="M35 0v75l245 355h-245v70h365v-75l-245 -355h250v-70h-370z" />
    <glyph glyph-name="braceleft" unicode="{" horiz-adv-x="325" 
d="M40 315q38 0 56.5 21t18.5 74v180q0 60 43 100t122 40h35v-70h-35q-30 0 -47.5 -18t-17.5 -52v-180q0 -45 -12.5 -71t-27.5 -39q-18 -16 -40 -20q22 -5 40 -20q15 -14 27.5 -39.5t12.5 -70.5v-180q0 -34 17.5 -52t47.5 -18h35v-70h-35q-79 0 -122 40t-43 100v180
q0 53 -18.5 74t-56.5 21v70z" />
    <glyph glyph-name="bar" unicode="|" horiz-adv-x="280" 
d="M190 700v-900h-100v900h100z" />
    <glyph glyph-name="braceright" unicode="}" horiz-adv-x="325" 
d="M285 245q-38 0 -56.5 -21t-18.5 -74v-180q0 -60 -43 -100t-122 -40h-35v70h35q30 0 47.5 18t17.5 52v180q0 45 12.5 70.5t27.5 39.5q18 15 40 20q-22 4 -40 20q-15 13 -27.5 39t-12.5 71v180q0 34 -17.5 52t-47.5 18h-35v70h35q79 0 122 -40t43 -100v-180q0 -53 18.5 -74
t56.5 -21v-70z" />
    <glyph glyph-name="asciitilde" unicode="~" horiz-adv-x="490" 
d="M160 310q-17 0 -30.5 -8.5t-22.5 -19t-13.5 -19l-4.5 -8.5h-9l-55 50q6 17 18 34t29 30.5t39.5 22t48.5 8.5q30 0 52 -10t40.5 -22.5t36.5 -22.5t41 -10q17 0 30.5 8.5t22.5 19t13.5 19l4.5 8.5h9l55 -50q-6 -17 -18 -34t-29 -30.5t-39.5 -22t-48.5 -8.5q-30 0 -52 10
t-40.5 22.5t-37 22.5t-40.5 10z" />
    <glyph glyph-name="uni00A0" unicode="&#xa0;" horiz-adv-x="290" 
 />
    <glyph glyph-name="exclamdown" unicode="&#xa1;" horiz-adv-x="290" 
d="M105 320h80l20 -520h-120zM85 450q0 26 17 43t43 17t43 -17t17 -43t-17 -43t-43 -17t-43 17t-17 43z" />
    <glyph glyph-name="cent" unicode="&#xa2;" horiz-adv-x="455" 
d="M310 560v-55q26 -5 47.5 -13.5t36.5 -16.5q18 -10 31 -20l-35 -60h-10q-15 12 -33 22q-15 8 -34.5 15.5t-42.5 7.5q-26 0 -48 -10t-38 -32.5t-25 -59t-9 -88.5q0 -105 35 -147.5t95 -42.5q23 0 42.5 7t34.5 15q18 10 33 23h10l35 -60q-15 -11 -34 -22q-17 -9 -39.5 -17.5
t-51.5 -12.5v-63h-100v67q-75 17 -117.5 79t-42.5 174q0 113 43.5 176t116.5 79v55h100z" />
    <glyph glyph-name="sterling" unicode="&#xa3;" horiz-adv-x="475" 
d="M275 710q42 0 72.5 -8.5t51.5 -19.5q24 -12 41 -27l-35 -60h-10q-12 12 -29 22q-14 8 -34.5 15.5t-46.5 7.5q-34 0 -59.5 -27.5t-25.5 -72.5v-140h135v-70h-135v-80q0 -57 -11 -91.5t-24 -54.5q-16 -23 -35 -34h335v-70h-440v70q20 8 37 30q14 19 26 54.5t12 95.5v80h-65
v70h65v140q0 36 13.5 67t36.5 54t55 36t70 13z" />
    <glyph glyph-name="currency" unicode="&#xa4;" horiz-adv-x="575" 
d="M20 230h80v40h-80v60h80v370h180q128 0 189 -57t61 -163q0 -98 -61 -154t-189 -56h-80v-40h250v-60h-250v-170h-100v170h-80v60zM280 330q150 0 150 150t-150 150h-80v-300h80z" />
    <glyph glyph-name="yen" unicode="&#xa5;" horiz-adv-x="530" 
d="M315 180v-180h-100v180h-150v70h141l-25 55h-116v70h84l-149 325h105l140 -305q4 -10 7.5 -20t5.5 -19q3 -11 5 -21h4q2 10 5 21q2 9 5 19t8 20l140 305h105l-149 -325h84v-70h-116l-25 -55h141v-70h-150z" />
    <glyph glyph-name="brokenbar" unicode="&#xa6;" horiz-adv-x="280" 
d="M90 -200v380h100v-380h-100zM190 320h-100v380h100v-380z" />
    <glyph glyph-name="section" unicode="&#xa7;" 
d="M240 -210q-45 0 -80 8t-58 19q-27 12 -47 28l35 60h10q15 -13 35 -23q17 -8 41 -15t54 -7q64 0 94.5 27.5t30.5 72.5q0 35 -23 56.5t-57.5 38t-74.5 31.5t-74.5 37.5t-57.5 55.5t-23 86q0 48 19 85.5t56 60.5q-29 20 -47 49.5t-18 74.5q0 79 52 127t158 48q42 0 74 -8.5
t55 -19.5q26 -12 46 -27l-35 -60h-10q-16 12 -34 22q-16 8 -38 15.5t-48 7.5q-60 0 -90 -26.5t-30 -68.5q0 -35 23 -56.5t57.5 -38t74.5 -31.5t74.5 -37.5t57.5 -56t23 -85.5q0 -101 -73 -148q28 -20 45.5 -49t17.5 -73q0 -83 -53 -131.5t-162 -48.5zM210 365
q-30 -11 -47.5 -35.5t-17.5 -54.5q0 -28 13.5 -49t36 -37t51.5 -28t59 -21q30 11 47.5 35.5t17.5 54.5q0 28 -14 49t-36.5 37t-51 28t-58.5 21z" />
    <glyph glyph-name="dieresis" unicode="&#xa8;" horiz-adv-x="305" 
d="M120 620q0 -24 -15.5 -39.5t-39.5 -15.5t-39.5 15.5t-15.5 39.5t15.5 39.5t39.5 15.5t39.5 -15.5t15.5 -39.5zM295 620q0 -24 -15.5 -39.5t-39.5 -15.5t-39.5 15.5t-15.5 39.5t15.5 39.5t39.5 15.5t39.5 -15.5t15.5 -39.5z" />
    <glyph glyph-name="copyright" unicode="&#xa9;" horiz-adv-x="860" 
d="M430 730q86 0 158 -28.5t123.5 -79t80 -120.5t28.5 -152q0 -83 -28.5 -152.5t-80 -120t-123.5 -79t-158 -28.5t-158 28.5t-123.5 79t-80 120t-28.5 152.5q0 82 28.5 152t80 120.5t123.5 79t158 28.5zM430 660q-64 0 -118.5 -23t-95 -64.5t-63.5 -98.5t-23 -124
q0 -68 23 -124.5t63.5 -98t95 -64.5t118.5 -23t118.5 23t95 64.5t63.5 98t23 124.5q0 67 -23 124t-63.5 98.5t-95 64.5t-118.5 23zM250 350q0 56 13.5 98.5t38 70.5t58.5 42t75 14q32 0 59 -8t46 -17q22 -11 40 -25l-30 -50h-9q-13 9 -29 17q-14 7 -31 12.5t-36 5.5
q-45 0 -75 -37t-30 -123t31 -123t84 -37q19 0 36 5t31 12q16 8 29 18h9l30 -50q-18 -14 -40 -25q-19 -10 -46 -17.5t-59 -7.5q-91 0 -143 56t-52 169z" />
    <glyph glyph-name="ordfeminine" unicode="&#xaa;" horiz-adv-x="360" 
d="M235 590q0 26 -17.5 43t-47.5 17q-19 0 -33 -5t-23 -10q-11 -7 -19 -15h-10l-26 45q14 12 33 22q16 8 39.5 15.5t53.5 7.5q68 0 104 -33.5t36 -86.5v-230h-69l-6 40h-5q-9 -14 -22 -25q-11 -10 -28 -17.5t-39 -7.5q-57 0 -89 30t-32 75q0 49 36 79.5t119 30.5h45v25z
M235 505h-45q-34 0 -49.5 -13.5t-15.5 -36.5q0 -19 13.5 -32t36.5 -13q13 0 24 4.5t19 10.5q10 6 17 15v65z" />
    <glyph glyph-name="guillemotleft" unicode="&#xab;" horiz-adv-x="475" 
d="M290 60l-65 -60l-215 250l215 250l65 -60l-160 -190zM390 465l65 -60l-130 -155l130 -155l-65 -60l-185 215z" />
    <glyph glyph-name="logicalnot" unicode="&#xac;" horiz-adv-x="460" 
d="M340 330h-310v80h400v-170h-90v90z" />
    <glyph glyph-name="uni00AD" unicode="&#xad;" horiz-adv-x="440" 
d="M30 290v80h380v-80h-380z" />
    <glyph glyph-name="registered" unicode="&#xae;" horiz-adv-x="860" 
d="M430 730q86 0 158 -28.5t123.5 -79t80 -120.5t28.5 -152q0 -83 -28.5 -152.5t-80 -120t-123.5 -79t-158 -28.5t-158 28.5t-123.5 79t-80 120t-28.5 152.5q0 82 28.5 152t80 120.5t123.5 79t158 28.5zM430 660q-64 0 -118.5 -23t-95 -64.5t-63.5 -98.5t-23 -124
q0 -68 23 -124.5t63.5 -98t95 -64.5t118.5 -23t118.5 23t95 64.5t63.5 98t23 124.5q0 67 -23 124t-63.5 98.5t-95 64.5t-118.5 23zM426 565q94 0 137 -38t43 -102q0 -49 -26 -81.5t-64 -43.5l100 -165h-95l-90 150h-61v-150h-90v430h146zM370 500v-150h56q49 0 69.5 18.5
t20.5 56.5t-20.5 56.5t-69.5 18.5h-56z" />
    <glyph glyph-name="macron" unicode="&#xaf;" horiz-adv-x="310" 
d="M290 660v-70h-270v70h270z" />
    <glyph glyph-name="degree" unicode="&#xb0;" horiz-adv-x="380" 
d="M360 540q0 -38 -12.5 -69t-35 -53.5t-54 -35t-68.5 -12.5q-38 0 -69 12.5t-53.5 35t-35 53.5t-12.5 69q0 37 12.5 68.5t35 54t53.5 35t69 12.5q37 0 68.5 -12.5t54 -35t35 -54t12.5 -68.5zM270 540q0 53 -23 79t-57 26t-57 -26t-23 -79t23 -79t57 -26t57 26t23 79z" />
    <glyph glyph-name="plusminus" unicode="&#xb1;" horiz-adv-x="490" 
d="M40 95v80h165v135h-165v80h165v165h80v-165h165v-80h-165v-135h165v-80h-410z" />
    <glyph glyph-name="twosuperior" unicode="&#xb2;" horiz-adv-x="330" 
d="M295 595q0 -29 -12.5 -49t-31.5 -34.5t-41 -25t-41 -20t-31.5 -20.5t-12.5 -26h170v-60h-260v40q0 32 12.5 54.5t31.5 38.5t41 27t41 22t31.5 23t12.5 30q0 55 -57 55q-18 0 -32 -5t-23 -10q-11 -7 -18 -15h-10l-26 45q14 12 33 22q16 8 39.5 15.5t53.5 7.5q60 0 95 -33
t35 -82z" />
    <glyph glyph-name="threesuperior" unicode="&#xb3;" horiz-adv-x="321" 
d="M286 460q0 -45 -36 -77.5t-104 -32.5q-30 0 -53.5 7t-39.5 15q-19 10 -33 23l26 45h10q8 -9 19 -15q9 -6 23 -10.5t33 -4.5q34 0 49.5 13.5t15.5 36.5t-16 36.5t-54 13.5h-66v50l120 80h-144v60h234v-65l-110 -65q60 0 93 -30.5t33 -79.5z" />
    <glyph glyph-name="acute" unicode="&#xb4;" horiz-adv-x="175" 
d="M165 700l-90 -150h-65l45 150h110z" />
    <glyph glyph-name="mu" unicode="&#xb5;" horiz-adv-x="550" 
d="M75 500h100v-340q0 -42 26.5 -68.5t68.5 -26.5q23 0 42 7.5t33 17.5q17 11 30 25v385h100v-500h-70l-10 50h-5q-17 -17 -37 -30q-17 -11 -41 -20.5t-52 -9.5q-19 0 -34.5 4.5t-26.5 10.5q-13 6 -24 15v-190l-30 -30h-70v700z" />
    <glyph glyph-name="paragraph" unicode="&#xb6;" horiz-adv-x="565" 
d="M225 290q-41 0 -77.5 16t-63.5 43.5t-43 65t-16 80.5t16 80.5t43 65t63.5 43.5t77.5 16h330v-70h-80v-830h-90v830h-70v-830h-90v490z" />
    <glyph glyph-name="periodcentered" unicode="&#xb7;" horiz-adv-x="290" 
d="M85 350q0 26 17 43t43 17t43 -17t17 -43t-17 -43t-43 -17t-43 17t-17 43z" />
    <glyph glyph-name="cedilla" unicode="&#xb8;" horiz-adv-x="195" 
d="M95 -30q42 0 66 -23t24 -57t-25 -57t-70 -23q-19 0 -33.5 3t-25.5 7q-12 4 -21 10l16 40h9q-1 0 12.5 -7.5t32.5 -7.5t29.5 10t10.5 25t-11 25t-34 10h-40v95h60v-50z" />
    <glyph glyph-name="onesuperior" unicode="&#xb9;" horiz-adv-x="325" 
d="M125 610l-60 -35l-30 45l95 80h85v-280h75v-60h-240v60h75v190z" />
    <glyph glyph-name="ordmasculine" unicode="&#xba;" horiz-adv-x="390" 
d="M195 650q-30 0 -50 -26.5t-20 -93.5q0 -34 5.5 -57t14.5 -37t22 -20t28 -6t28 6t22 20t14.5 37t5.5 57q0 67 -20 93.5t-50 26.5zM195 710q72 0 116 -46.5t44 -133.5t-44 -133.5t-116 -46.5t-116 46.5t-44 133.5t44 133.5t116 46.5z" />
    <glyph glyph-name="guillemotright" unicode="&#xbb;" horiz-adv-x="475" 
d="M345 250l-160 190l65 60l215 -250l-215 -250l-65 60zM270 250l-185 -215l-65 60l130 155l-130 155l65 60z" />
    <glyph glyph-name="onequarter" unicode="&#xbc;" horiz-adv-x="760" 
d="M575 700h110l-470 -700h-110zM125 610l-60 -35l-30 45l95 80h85v-280h75v-60h-240v60h75v190zM725 130v-60h-50v-70h-90v70h-170v60l170 210h90v-210h50zM495 130h90v90q0 13 3 27q1 8 3 16h-4q-2 -9 -6 -17q-3 -7 -6.5 -14.5t-6.5 -11.5z" />
    <glyph glyph-name="onehalf" unicode="&#xbd;" horiz-adv-x="750" 
d="M575 700h110l-470 -700h-110zM125 610l-60 -35l-30 45l95 80h85v-280h75v-60h-240v60h75v190zM715 235q0 -29 -12.5 -49t-31.5 -34.5t-41 -25t-41 -20t-31.5 -20.5t-12.5 -26h170v-60h-260v40q0 32 12.5 54.5t31.5 38.5t41 27t41 22t31.5 23t12.5 30q0 55 -57 55
q-18 0 -32 -5t-23 -10q-11 -7 -18 -15h-10l-26 45q14 12 33 22q16 8 39.5 15.5t53.5 7.5q60 0 95 -33t35 -82z" />
    <glyph glyph-name="threequarters" unicode="&#xbe;" horiz-adv-x="750" 
d="M565 700h110l-470 -700h-110zM715 130v-60h-50v-70h-90v70h-170v60l170 210h90v-210h50zM485 130h90v90q0 13 3 27q1 8 3 16h-4q-2 -9 -6 -17q-3 -7 -6.5 -14.5t-6.5 -11.5zM301 460q0 -45 -36 -77.5t-104 -32.5q-30 0 -53.5 7t-39.5 15q-19 10 -33 23l26 45h10
q8 -9 19 -15q9 -6 23 -10.5t33 -4.5q34 0 49.5 13.5t15.5 36.5t-16 36.5t-54 13.5h-66v50l120 80h-144v60h234v-65l-110 -65q60 0 93 -30.5t33 -79.5z" />
    <glyph glyph-name="questiondown" unicode="&#xbf;" horiz-adv-x="460" 
d="M339 450q0 -26 -17 -43t-43 -17t-43 17t-17 43t17 43t43 17t43 -17t17 -43zM234 320h90v-40q0 -42 -13.5 -72t-34 -53t-44.5 -41.5t-44.5 -38.5t-34 -45t-13.5 -60q0 -45 35.5 -77.5t99.5 -32.5q34 0 60 7t44 15q21 10 36 23h10l35 -60q-21 -16 -49 -28q-25 -11 -61 -19
t-85 -8q-54 0 -96 14t-70.5 39.5t-43.5 60.5t-15 76q0 42 14.5 72t36 52.5t46.5 40.5t46.5 37t36 42t14.5 56v40z" />
    <glyph glyph-name="Agrave" unicode="&#xc0;" horiz-adv-x="570" 
d="M15 0zM455 0l-55 180h-230l-55 -180h-100l205 700h130l205 -700h-100zM190 250h190l-80 275q-4 11 -6 23.5t-4 23.5q-2 12 -3 23h-4q-1 -12 -3 -24q-2 -11 -4.5 -23t-5.5 -23zM277 900l45 -150h-65l-90 150h110z" />
    <glyph glyph-name="Aacute" unicode="&#xc1;" horiz-adv-x="570" 
d="M15 0zM455 0l-55 180h-230l-55 -180h-100l205 700h130l205 -700h-100zM190 250h190l-80 275q-4 11 -6 23.5t-4 23.5q-2 12 -3 23h-4q-1 -12 -3 -24q-2 -11 -4.5 -23t-5.5 -23zM392 900l-90 -150h-65l45 150h110z" />
    <glyph glyph-name="Acircumflex" unicode="&#xc2;" horiz-adv-x="570" 
d="M15 0zM455 0l-55 180h-230l-55 -180h-100l205 700h130l205 -700h-100zM190 250h190l-80 275q-4 11 -6 23.5t-4 23.5q-2 12 -3 23h-4q-1 -12 -3 -24q-2 -11 -4.5 -23t-5.5 -23zM320 880l105 -130h-65l-75 65l-75 -65h-65l105 130h70z" />
    <glyph glyph-name="Atilde" unicode="&#xc3;" horiz-adv-x="570" 
d="M15 0zM455 0l-55 180h-230l-55 -180h-100l205 700h130l205 -700h-100zM190 250h190l-80 275q-4 11 -6 23.5t-4 23.5q-2 12 -3 23h-4q-1 -12 -3 -24q-2 -11 -4.5 -23t-5.5 -23zM376 860l40 -25q-11 -34 -32 -59.5t-58 -25.5q-19 0 -31 7t-21.5 15.5t-18 15.5t-19.5 7
t-20 -6.5t-15 -14t-8.5 -13.5l-2.5 -6h-9l-40 25q6 17 13.5 32.5t18.5 27t25 18.5t33 7t31 -7t21.5 -15.5t18 -15.5t19.5 -7t20 6t15 13.5t8.5 14l2.5 6.5h9z" />
    <glyph glyph-name="Adieresis" unicode="&#xc4;" horiz-adv-x="570" 
d="M15 0zM455 0l-55 180h-230l-55 -180h-100l205 700h130l205 -700h-100zM190 250h190l-80 275q-4 11 -6 23.5t-4 23.5q-2 12 -3 23h-4q-1 -12 -3 -24q-2 -11 -4.5 -23t-5.5 -23zM250 810q0 -24 -15.5 -39.5t-39.5 -15.5t-39.5 15.5t-15.5 39.5t15.5 39.5t39.5 15.5
t39.5 -15.5t15.5 -39.5zM425 810q0 -24 -15.5 -39.5t-39.5 -15.5t-39.5 15.5t-15.5 39.5t15.5 39.5t39.5 15.5t39.5 -15.5t15.5 -39.5z" />
    <glyph glyph-name="Aring" unicode="&#xc5;" horiz-adv-x="570" 
d="M15 0zM455 0l-55 180h-230l-55 -180h-100l205 700h130l205 -700h-100zM190 250h190l-80 275q-4 11 -6 23.5t-4 23.5q-2 12 -3 23h-4q-1 -12 -3 -24q-2 -11 -4.5 -23t-5.5 -23zM285 880q-15 0 -27.5 -11t-12.5 -34t12.5 -34t27.5 -11t27.5 11t12.5 34t-12.5 34t-27.5 11z
M285 930q45 0 72.5 -26.5t27.5 -68.5t-27.5 -68.5t-72.5 -26.5t-72.5 26.5t-27.5 68.5t27.5 68.5t72.5 26.5z" />
    <glyph glyph-name="AE" unicode="&#xc6;" horiz-adv-x="815" 
d="M395 0v200h-230l-85 -200h-100l295 700h510v-70h-290v-230h230v-70h-230v-260h290v-70h-390zM195 270h200v360h-50z" />
    <glyph glyph-name="Ccedilla" unicode="&#xc7;" horiz-adv-x="515" 
d="M55 0zM55 350q0 97 18 165.5t51 112t79 63t102 19.5q42 0 74 -8.5t55 -19.5q26 -12 46 -27l-35 -60h-10q-16 12 -34 22q-16 8 -38 15.5t-48 7.5q-34 0 -63 -14.5t-50.5 -48t-34 -89.5t-12.5 -138q0 -83 12.5 -138.5t35 -89t53.5 -48t69 -14.5q26 0 48 7t38 15
q18 10 34 23h10l35 -60q-20 -16 -46 -28q-23 -11 -55 -19t-74 -8q-60 0 -108 19.5t-82 63t-52 111.5t-18 166zM315 -30q42 0 66 -23t24 -57t-25 -57t-70 -23q-19 0 -33.5 3t-25.5 7q-12 4 -21 10l16 40h9q-1 0 12.5 -7.5t32.5 -7.5t29.5 10t10.5 25t-11 25t-34 10h-40v95h60
v-50z" />
    <glyph glyph-name="Egrave" unicode="&#xc8;" 
d="M90 0zM90 0v700h390v-70h-290v-230h230v-70h-230v-260h290v-70h-390zM290 900l45 -150h-65l-90 150h110z" />
    <glyph glyph-name="Eacute" unicode="&#xc9;" 
d="M90 0zM90 0v700h390v-70h-290v-230h230v-70h-230v-260h290v-70h-390zM385 900l-90 -150h-65l45 150h110z" />
    <glyph glyph-name="Ecircumflex" unicode="&#xca;" 
d="M90 0zM90 0v700h390v-70h-290v-230h230v-70h-230v-260h290v-70h-390zM322 890l105 -130h-65l-75 65l-75 -65h-65l105 130h70z" />
    <glyph glyph-name="Edieresis" unicode="&#xcb;" 
d="M90 0zM90 0v700h390v-70h-290v-230h230v-70h-230v-260h290v-70h-390zM252 820q0 -24 -15.5 -39.5t-39.5 -15.5t-39.5 15.5t-15.5 39.5t15.5 39.5t39.5 15.5t39.5 -15.5t15.5 -39.5zM427 820q0 -24 -15.5 -39.5t-39.5 -15.5t-39.5 15.5t-15.5 39.5t15.5 39.5t39.5 15.5
t39.5 -15.5t15.5 -39.5z" />
    <glyph glyph-name="Igrave" unicode="&#xcc;" horiz-adv-x="278" 
d="M20 0zM89 700h100v-700h-100v700zM130 900l45 -150h-65l-90 150h110z" />
    <glyph glyph-name="Iacute" unicode="&#xcd;" horiz-adv-x="277" 
d="M90 0zM90 700h100v-700h-100v700zM257 900l-90 -150h-65l45 150h110z" />
    <glyph glyph-name="Icircumflex" unicode="&#xce;" horiz-adv-x="270" 
d="M0 0zM86 700h100v-700h-100v700zM171 890l105 -130h-65l-75 65l-75 -65h-65l105 130h70z" />
    <glyph glyph-name="Idieresis" unicode="&#xcf;" horiz-adv-x="260" 
d="M0 0zM81 700h100v-700h-100v700zM96 820q0 -24 -15.5 -39.5t-39.5 -15.5t-39.5 15.5t-15.5 39.5t15.5 39.5t39.5 15.5t39.5 -15.5t15.5 -39.5zM271 820q0 -24 -15.5 -39.5t-39.5 -15.5t-39.5 15.5t-15.5 39.5t15.5 39.5t39.5 15.5t39.5 -15.5t15.5 -39.5z" />
    <glyph glyph-name="Eth" unicode="&#xd0;" horiz-adv-x="585" 
d="M90 0v320h-55v80h55v300h150q71 0 125.5 -19.5t91 -61.5t55 -108.5t18.5 -160.5t-18.5 -160.5t-55 -108.5t-91 -61.5t-125.5 -19.5h-150zM240 70q45 0 80.5 14t59.5 47t37 86.5t13 132.5t-13 132.5t-37 86.5t-59.5 47t-80.5 14h-50v-230h115v-80h-115v-250h50z" />
    <glyph glyph-name="Ntilde" unicode="&#xd1;" horiz-adv-x="630" 
d="M90 0zM220 445q-5 11 -10 25.5t-10 28.5q-5 15 -10 31h-4q1 -16 2 -31q1 -14 1.5 -28.5t0.5 -25.5v-445h-100v700h110l210 -445q5 -11 10 -26t10 -28q5 -16 10 -31h4q-1 15 -2 31q-1 13 -1.5 28t-0.5 26v445h100v-700h-110zM406 860l40 -25q-11 -34 -32 -59.5t-58 -25.5
q-19 0 -31 7t-21.5 15.5t-18 15.5t-19.5 7t-20 -6.5t-15 -14t-8.5 -13.5l-2.5 -6h-9l-40 25q6 17 13.5 32.5t18.5 27t25 18.5t33 7t31 -7t21.5 -15.5t18 -15.5t19.5 -7t20 6t15 13.5t8.5 14l2.5 6.5h9z" />
    <glyph glyph-name="Ograve" unicode="&#xd2;" horiz-adv-x="600" 
d="M55 0zM155 350q0 -83 12 -138.5t32.5 -89t46.5 -48t54 -14.5t54 14.5t46.5 48t32.5 89t12 138.5q0 82 -12 138t-32.5 89.5t-46.5 48t-54 14.5t-54 -14.5t-46.5 -48t-32.5 -89.5t-12 -138zM545 350q0 -98 -18 -166t-50 -111.5t-77.5 -63t-99.5 -19.5t-99.5 19.5t-77.5 63
t-50 111.5t-18 166q0 97 18 165.5t50 112t77.5 63t99.5 19.5t99.5 -19.5t77.5 -63t50 -112t18 -165.5zM302 900l45 -150h-65l-90 150h110z" />
    <glyph glyph-name="Oacute" unicode="&#xd3;" horiz-adv-x="600" 
d="M55 0zM155 350q0 -83 12 -138.5t32.5 -89t46.5 -48t54 -14.5t54 14.5t46.5 48t32.5 89t12 138.5q0 82 -12 138t-32.5 89.5t-46.5 48t-54 14.5t-54 -14.5t-46.5 -48t-32.5 -89.5t-12 -138zM545 350q0 -98 -18 -166t-50 -111.5t-77.5 -63t-99.5 -19.5t-99.5 19.5t-77.5 63
t-50 111.5t-18 166q0 97 18 165.5t50 112t77.5 63t99.5 19.5t99.5 -19.5t77.5 -63t50 -112t18 -165.5zM407 900l-90 -150h-65l45 150h110z" />
    <glyph glyph-name="Ocircumflex" unicode="&#xd4;" horiz-adv-x="600" 
d="M55 0zM155 350q0 -83 12 -138.5t32.5 -89t46.5 -48t54 -14.5t54 14.5t46.5 48t32.5 89t12 138.5q0 82 -12 138t-32.5 89.5t-46.5 48t-54 14.5t-54 -14.5t-46.5 -48t-32.5 -89.5t-12 -138zM545 350q0 -98 -18 -166t-50 -111.5t-77.5 -63t-99.5 -19.5t-99.5 19.5t-77.5 63
t-50 111.5t-18 166q0 97 18 165.5t50 112t77.5 63t99.5 19.5t99.5 -19.5t77.5 -63t50 -112t18 -165.5zM335 890l105 -130h-65l-75 65l-75 -65h-65l105 130h70z" />
    <glyph glyph-name="Otilde" unicode="&#xd5;" horiz-adv-x="600" 
d="M55 0zM155 350q0 -83 12 -138.5t32.5 -89t46.5 -48t54 -14.5t54 14.5t46.5 48t32.5 89t12 138.5q0 82 -12 138t-32.5 89.5t-46.5 48t-54 14.5t-54 -14.5t-46.5 -48t-32.5 -89.5t-12 -138zM545 350q0 -98 -18 -166t-50 -111.5t-77.5 -63t-99.5 -19.5t-99.5 19.5t-77.5 63
t-50 111.5t-18 166q0 97 18 165.5t50 112t77.5 63t99.5 19.5t99.5 -19.5t77.5 -63t50 -112t18 -165.5zM391 870l40 -25q-11 -34 -32 -59.5t-58 -25.5q-19 0 -31 7t-21.5 15.5t-18 15.5t-19.5 7t-20 -6.5t-15 -14t-8.5 -13.5l-2.5 -6h-9l-40 25q6 17 13.5 32.5t18.5 27
t25 18.5t33 7t31 -7t21.5 -15.5t18 -15.5t19.5 -7t20 6t15 13.5t8.5 14l2.5 6.5h9z" />
    <glyph glyph-name="Odieresis" unicode="&#xd6;" horiz-adv-x="600" 
d="M55 0zM155 350q0 -83 12 -138.5t32.5 -89t46.5 -48t54 -14.5t54 14.5t46.5 48t32.5 89t12 138.5q0 82 -12 138t-32.5 89.5t-46.5 48t-54 14.5t-54 -14.5t-46.5 -48t-32.5 -89.5t-12 -138zM545 350q0 -98 -18 -166t-50 -111.5t-77.5 -63t-99.5 -19.5t-99.5 19.5t-77.5 63
t-50 111.5t-18 166q0 97 18 165.5t50 112t77.5 63t99.5 19.5t99.5 -19.5t77.5 -63t50 -112t18 -165.5zM265 820q0 -24 -15.5 -39.5t-39.5 -15.5t-39.5 15.5t-15.5 39.5t15.5 39.5t39.5 15.5t39.5 -15.5t15.5 -39.5zM440 820q0 -24 -15.5 -39.5t-39.5 -15.5t-39.5 15.5
t-15.5 39.5t15.5 39.5t39.5 15.5t39.5 -15.5t15.5 -39.5z" />
    <glyph glyph-name="multiply" unicode="&#xd7;" horiz-adv-x="437" 
d="M219 273l-117 -116l-57 56l117 117l-117 117l57 56l117 -116l116 116l57 -56l-117 -117l117 -117l-57 -56z" />
    <glyph glyph-name="Oslash" unicode="&#xd8;" horiz-adv-x="600" 
d="M111 89q-27 44 -41.5 108t-14.5 153q0 97 18 165.5t50 112t77.5 63t99.5 19.5q83 0 140 -45l20 35h80l-51 -90q27 -43 41.5 -107.5t14.5 -152.5q0 -98 -18 -166t-50 -111.5t-77.5 -63t-99.5 -19.5q-41 0 -76 11t-64 34l-20 -35h-80zM155 350q0 -48 4 -86.5t12 -69.5
l224 392q-20 29 -44.5 41.5t-50.5 12.5q-28 0 -54 -14.5t-46.5 -48t-32.5 -89.5t-12 -138zM445 350q0 48 -4 86.5t-12 68.5l-224 -392q20 -29 44.5 -41t50.5 -12q28 0 54 14.5t46.5 48t32.5 89t12 138.5z" />
    <glyph glyph-name="Ugrave" unicode="&#xd9;" horiz-adv-x="620" 
d="M85 0zM310 60q57 0 91 38.5t34 121.5v480h100v-480q0 -113 -58 -171.5t-167 -58.5t-167 58.5t-58 171.5v480h100v-480q0 -83 34 -121.5t91 -38.5zM312 880l45 -150h-65l-90 150h110z" />
    <glyph glyph-name="Uacute" unicode="&#xda;" horiz-adv-x="620" 
d="M85 0zM310 60q57 0 91 38.5t34 121.5v480h100v-480q0 -113 -58 -171.5t-167 -58.5t-167 58.5t-58 171.5v480h100v-480q0 -83 34 -121.5t91 -38.5zM427 880l-90 -150h-65l45 150h110z" />
    <glyph glyph-name="Ucircumflex" unicode="&#xdb;" horiz-adv-x="620" 
d="M85 0zM310 60q57 0 91 38.5t34 121.5v480h100v-480q0 -113 -58 -171.5t-167 -58.5t-167 58.5t-58 171.5v480h100v-480q0 -83 34 -121.5t91 -38.5zM345 890l105 -130h-65l-75 65l-75 -65h-65l105 130h70z" />
    <glyph glyph-name="Udieresis" unicode="&#xdc;" horiz-adv-x="620" 
d="M85 0zM310 60q57 0 91 38.5t34 121.5v480h100v-480q0 -113 -58 -171.5t-167 -58.5t-167 58.5t-58 171.5v480h100v-480q0 -83 34 -121.5t91 -38.5zM275 820q0 -24 -15.5 -39.5t-39.5 -15.5t-39.5 15.5t-15.5 39.5t15.5 39.5t39.5 15.5t39.5 -15.5t15.5 -39.5zM450 820
q0 -24 -15.5 -39.5t-39.5 -15.5t-39.5 15.5t-15.5 39.5t15.5 39.5t39.5 15.5t39.5 -15.5t15.5 -39.5z" />
    <glyph glyph-name="Yacute" unicode="&#xdd;" horiz-adv-x="530" 
d="M0 0zM425 700h105l-215 -470v-230h-100v230l-215 470h105l140 -305q4 -10 7.5 -20t5.5 -19q3 -11 5 -21h4q2 10 5 21q2 9 5 19t8 20zM382 880l-90 -150h-65l45 150h110z" />
    <glyph glyph-name="Thorn" unicode="&#xde;" horiz-adv-x="615" 
d="M190 570v-440h90q87 0 138.5 55.5t51.5 164.5t-51.5 164.5t-138.5 55.5h-90zM190 640h90q140 0 215 -75t75 -215t-75 -215t-215 -75h-90v-80h-100v740h100v-80z" />
    <glyph glyph-name="germandbls" unicode="&#xdf;" horiz-adv-x="620" 
d="M380 60q49 0 77 28.5t28 81.5q0 29 -13 50.5t-32.5 40t-42 36.5t-42 39.5t-32.5 48.5t-13 65q0 19 4.5 33t10.5 27t10.5 27t4.5 33q0 30 -19.5 50t-45.5 20q-34 0 -54.5 -22.5t-20.5 -67.5v-550h-100v420h-65v70h65v60q0 36 11.5 65.5t33.5 50.5t52 32.5t68 11.5
q87 0 131 -40t44 -100q0 -23 -6.5 -37.5t-14 -26.5t-13.5 -24.5t-6 -31.5q0 -26 13.5 -46t34.5 -37.5t44.5 -34.5t44.5 -38.5t34.5 -49t13.5 -64.5q0 -87 -52 -138.5t-143 -51.5q-26 0 -46.5 4.5t-34.5 10.5q-17 6 -29 15l25 65h10q7 -8 17 -13q8 -5 20.5 -8.5t27.5 -3.5z
" />
    <glyph glyph-name="agrave" unicode="&#xe0;" 
d="M45 0zM340 320q0 60 -28 90t-77 30q-23 0 -43 -7.5t-35 -15.5q-18 -10 -32 -22h-10l-35 60q19 15 45 27q22 11 52 19.5t68 8.5q43 0 79 -14t61.5 -39.5t40 -60.5t14.5 -76v-320h-70l-10 60h-5q-14 -20 -35 -35q-18 -14 -45 -24.5t-65 -10.5q-79 0 -122 41.5t-43 113.5
q0 34 12 61.5t37.5 47t66.5 30.5t99 11h80v25zM340 225h-80q-60 0 -87.5 -23t-27.5 -57q0 -38 22.5 -59t67.5 -21q23 0 42 9.5t33 20.5q17 13 30 30v100zM247 700l45 -150h-65l-90 150h110z" />
    <glyph glyph-name="aacute" unicode="&#xe1;" 
d="M45 0zM340 320q0 60 -28 90t-77 30q-23 0 -43 -7.5t-35 -15.5q-18 -10 -32 -22h-10l-35 60q19 15 45 27q22 11 52 19.5t68 8.5q43 0 79 -14t61.5 -39.5t40 -60.5t14.5 -76v-320h-70l-10 60h-5q-14 -20 -35 -35q-18 -14 -45 -24.5t-65 -10.5q-79 0 -122 41.5t-43 113.5
q0 34 12 61.5t37.5 47t66.5 30.5t99 11h80v25zM340 225h-80q-60 0 -87.5 -23t-27.5 -57q0 -38 22.5 -59t67.5 -21q23 0 42 9.5t33 20.5q17 13 30 30v100zM362 700l-90 -150h-65l45 150h110z" />
    <glyph glyph-name="acircumflex" unicode="&#xe2;" 
d="M45 0zM340 320q0 60 -28 90t-77 30q-23 0 -43 -7.5t-35 -15.5q-18 -10 -32 -22h-10l-35 60q19 15 45 27q22 11 52 19.5t68 8.5q43 0 79 -14t61.5 -39.5t40 -60.5t14.5 -76v-320h-70l-10 60h-5q-14 -20 -35 -35q-18 -14 -45 -24.5t-65 -10.5q-79 0 -122 41.5t-43 113.5
q0 34 12 61.5t37.5 47t66.5 30.5t99 11h80v25zM340 225h-80q-60 0 -87.5 -23t-27.5 -57q0 -38 22.5 -59t67.5 -21q23 0 42 9.5t33 20.5q17 13 30 30v100zM290 690l105 -130h-65l-75 65l-75 -65h-65l105 130h70z" />
    <glyph glyph-name="atilde" unicode="&#xe3;" 
d="M45 0zM340 320q0 60 -28 90t-77 30q-23 0 -43 -7.5t-35 -15.5q-18 -10 -32 -22h-10l-35 60q19 15 45 27q22 11 52 19.5t68 8.5q43 0 79 -14t61.5 -39.5t40 -60.5t14.5 -76v-320h-70l-10 60h-5q-14 -20 -35 -35q-18 -14 -45 -24.5t-65 -10.5q-79 0 -122 41.5t-43 113.5
q0 34 12 61.5t37.5 47t66.5 30.5t99 11h80v25zM340 225h-80q-60 0 -87.5 -23t-27.5 -57q0 -38 22.5 -59t67.5 -21q23 0 42 9.5t33 20.5q17 13 30 30v100zM346 671l40 -25q-11 -34 -32 -59.5t-58 -25.5q-19 0 -31 7t-21.5 15.5t-18 15.5t-19.5 7t-20 -6.5t-15 -14t-8.5 -13.5
l-2.5 -6h-9l-40 25q6 17 13.5 32.5t18.5 27t25 18.5t33 7t31 -7t21.5 -15.5t18 -15.5t19.5 -7t20 6t15 13.5t8.5 14l2.5 6.5h9z" />
    <glyph glyph-name="adieresis" unicode="&#xe4;" 
d="M45 0zM340 320q0 60 -28 90t-77 30q-23 0 -43 -7.5t-35 -15.5q-18 -10 -32 -22h-10l-35 60q19 15 45 27q22 11 52 19.5t68 8.5q43 0 79 -14t61.5 -39.5t40 -60.5t14.5 -76v-320h-70l-10 60h-5q-14 -20 -35 -35q-18 -14 -45 -24.5t-65 -10.5q-79 0 -122 41.5t-43 113.5
q0 34 12 61.5t37.5 47t66.5 30.5t99 11h80v25zM340 225h-80q-60 0 -87.5 -23t-27.5 -57q0 -38 22.5 -59t67.5 -21q23 0 42 9.5t33 20.5q17 13 30 30v100zM220 620q0 -24 -15.5 -39.5t-39.5 -15.5t-39.5 15.5t-15.5 39.5t15.5 39.5t39.5 15.5t39.5 -15.5t15.5 -39.5zM395 620
q0 -24 -15.5 -39.5t-39.5 -15.5t-39.5 15.5t-15.5 39.5t15.5 39.5t39.5 15.5t39.5 -15.5t15.5 -39.5z" />
    <glyph glyph-name="aring" unicode="&#xe5;" 
d="M45 0zM340 320q0 60 -28 90t-77 30q-23 0 -43 -7.5t-35 -15.5q-18 -10 -32 -22h-10l-35 60q19 15 45 27q22 11 52 19.5t68 8.5q43 0 79 -14t61.5 -39.5t40 -60.5t14.5 -76v-320h-70l-10 60h-5q-14 -20 -35 -35q-18 -14 -45 -24.5t-65 -10.5q-79 0 -122 41.5t-43 113.5
q0 34 12 61.5t37.5 47t66.5 30.5t99 11h80v25zM340 225h-80q-60 0 -87.5 -23t-27.5 -57q0 -38 22.5 -59t67.5 -21q23 0 42 9.5t33 20.5q17 13 30 30v100zM255 700q-15 0 -27.5 -11t-12.5 -34t12.5 -34t27.5 -11t27.5 11t12.5 34t-12.5 34t-27.5 11zM255 750q45 0 72.5 -26.5
t27.5 -68.5t-27.5 -68.5t-72.5 -26.5t-72.5 26.5t-27.5 68.5t27.5 68.5t72.5 26.5z" />
    <glyph glyph-name="ae" unicode="&#xe6;" horiz-adv-x="785" 
d="M540 510q43 0 79.5 -16t63.5 -48.5t42 -81t15 -114.5v-15l-20 -20h-280q0 -79 33.5 -117t86.5 -38q23 0 42.5 7t34.5 15q18 10 33 23h10l35 -60q-19 -16 -45 -28q-22 -11 -52 -19t-68 -8q-49 0 -91.5 19.5t-71.5 60.5q-21 -22 -47 -40q-23 -15 -55.5 -27.5t-74.5 -12.5
q-79 0 -122 41.5t-43 113.5q0 34 12 61.5t37.5 47t66.5 30.5t99 11h80v25q0 60 -28 90t-77 30q-23 0 -43 -7.5t-35 -15.5q-18 -10 -32 -22h-10l-35 60q19 15 45 27q22 11 52 19.5t68 8.5q57 0 94 -20.5t56 -54.5q26 34 63 54.5t82 20.5zM540 440q-21 0 -39 -9t-31.5 -27.5
t-21.5 -48t-8 -70.5h200q0 41 -8 70.5t-21.5 48t-31.5 27.5t-39 9zM340 225h-80q-60 0 -87.5 -23t-27.5 -57q0 -38 22.5 -59t67.5 -21q23 0 42 9.5t33 20.5q17 13 30 30v100z" />
    <glyph glyph-name="ccedilla" unicode="&#xe7;" horiz-adv-x="455" 
d="M50 0zM270 440q-26 0 -48 -10t-38 -32.5t-25 -59t-9 -88.5q0 -105 35 -147.5t95 -42.5q23 0 42.5 7t34.5 15q18 10 33 23h10l35 -60q-19 -16 -45 -28q-22 -11 -52 -19t-68 -8q-101 0 -160.5 64.5t-59.5 195.5q0 66 15 114.5t43 81t66.5 48.5t85.5 16q38 0 68 -8.5
t52 -19.5q26 -12 45 -27l-35 -60h-10q-15 12 -33 22q-15 8 -34.5 15.5t-42.5 7.5zM277 -30q42 0 66 -23t24 -57t-25 -57t-70 -23q-19 0 -33.5 3t-25.5 7q-12 4 -21 10l16 40h9q-1 0 12.5 -7.5t32.5 -7.5t29.5 10t10.5 25t-11 25t-34 10h-40v95h60v-50z" />
    <glyph glyph-name="egrave" unicode="&#xe8;" horiz-adv-x="505" 
d="M50 0zM255 510q45 0 82.5 -16t65 -48.5t42.5 -81t15 -114.5v-15l-20 -20h-290q0 -79 35 -117t95 -38q23 0 42.5 7t34.5 15q18 10 33 23h10l35 -60q-19 -16 -45 -28q-22 -11 -52 -19t-68 -8q-101 0 -160.5 64.5t-59.5 195.5q0 66 15 114.5t42.5 81t65 48.5t82.5 16z
M255 440q-45 0 -75 -36t-30 -119h210q0 83 -30 119t-75 36zM245 700l45 -150h-65l-90 150h110z" />
    <glyph glyph-name="eacute" unicode="&#xe9;" horiz-adv-x="505" 
d="M50 0zM255 510q45 0 82.5 -16t65 -48.5t42.5 -81t15 -114.5v-15l-20 -20h-290q0 -79 35 -117t95 -38q23 0 42.5 7t34.5 15q18 10 33 23h10l35 -60q-19 -16 -45 -28q-22 -11 -52 -19t-68 -8q-101 0 -160.5 64.5t-59.5 195.5q0 66 15 114.5t42.5 81t65 48.5t82.5 16z
M255 440q-45 0 -75 -36t-30 -119h210q0 83 -30 119t-75 36zM370 700l-90 -150h-65l45 150h110z" />
    <glyph glyph-name="ecircumflex" unicode="&#xea;" horiz-adv-x="505" 
d="M50 0zM255 510q45 0 82.5 -16t65 -48.5t42.5 -81t15 -114.5v-15l-20 -20h-290q0 -79 35 -117t95 -38q23 0 42.5 7t34.5 15q18 10 33 23h10l35 -60q-19 -16 -45 -28q-22 -11 -52 -19t-68 -8q-101 0 -160.5 64.5t-59.5 195.5q0 66 15 114.5t42.5 81t65 48.5t82.5 16z
M255 440q-45 0 -75 -36t-30 -119h210q0 83 -30 119t-75 36zM287 690l105 -130h-65l-75 65l-75 -65h-65l105 130h70z" />
    <glyph glyph-name="edieresis" unicode="&#xeb;" horiz-adv-x="505" 
d="M50 0zM255 510q45 0 82.5 -16t65 -48.5t42.5 -81t15 -114.5v-15l-20 -20h-290q0 -79 35 -117t95 -38q23 0 42.5 7t34.5 15q18 10 33 23h10l35 -60q-19 -16 -45 -28q-22 -11 -52 -19t-68 -8q-101 0 -160.5 64.5t-59.5 195.5q0 66 15 114.5t42.5 81t65 48.5t82.5 16z
M255 440q-45 0 -75 -36t-30 -119h210q0 83 -30 119t-75 36zM217 620q0 -24 -15.5 -39.5t-39.5 -15.5t-39.5 15.5t-15.5 39.5t15.5 39.5t39.5 15.5t39.5 -15.5t15.5 -39.5zM392 620q0 -24 -15.5 -39.5t-39.5 -15.5t-39.5 15.5t-15.5 39.5t15.5 39.5t39.5 15.5t39.5 -15.5
t15.5 -39.5z" />
    <glyph glyph-name="igrave" unicode="&#xec;" horiz-adv-x="258" 
d="M183 500v-500h-100v500h100zM125 700l45 -150h-65l-90 150h110z" />
    <glyph glyph-name="iacute" unicode="&#xed;" horiz-adv-x="257" 
d="M175 500v-500h-100v500h100zM242 700l-90 -150h-65l45 150h110z" />
    <glyph glyph-name="icircumflex" unicode="&#xee;" horiz-adv-x="260" 
d="M180 500v-500h-100v500h100zM165 690l105 -130h-65l-75 65l-75 -65h-65l105 130h70z" />
    <glyph glyph-name="idieresis" unicode="&#xef;" horiz-adv-x="260" 
d="M180 500v-500h-100v500h100zM95 620q0 -24 -15.5 -39.5t-39.5 -15.5t-39.5 15.5t-15.5 39.5t15.5 39.5t39.5 15.5t39.5 -15.5t15.5 -39.5zM270 620q0 -24 -15.5 -39.5t-39.5 -15.5t-39.5 15.5t-15.5 39.5t15.5 39.5t39.5 15.5t39.5 -15.5t15.5 -39.5z" />
    <glyph glyph-name="eth" unicode="&#xf0;" horiz-adv-x="515" 
d="M237 587q-12 4 -25 7t-27 6l-55 10l10 70l60 -10q18 -3 35 -7t33 -9l28 59l64 -29l-28 -59q63 -38 95.5 -110t32.5 -190v-100q0 -56 -15 -100t-43 -74t-66.5 -45.5t-85.5 -15.5t-85.5 15.5t-66.5 45.5t-43 74t-15 100t15 100t40 74t58.5 45.5t71.5 15.5q53 0 90 -16
t60 -54q0 58 -18 99.5t-57 67.5l-30 -63l-63 30zM250 385q-45 0 -77.5 -39t-32.5 -121q0 -86 32.5 -125.5t77.5 -39.5t77.5 39.5t32.5 125.5q0 82 -32.5 121t-77.5 39z" />
    <glyph glyph-name="ntilde" unicode="&#xf1;" horiz-adv-x="545" 
d="M75 0zM280 435q-23 0 -42 -9.5t-33 -20.5q-17 -13 -30 -30v-375h-100v500h70l10 -60h5q14 19 35 35q18 13 45 24t65 11q37 0 68.5 -12.5t54 -35t35 -54t12.5 -68.5v-340h-100v340q0 42 -26.5 68.5t-68.5 26.5zM373 681l40 -25q-11 -34 -32 -59.5t-58 -25.5q-19 0 -31 7
t-21.5 15.5t-18 15.5t-19.5 7t-20 -6.5t-15 -14t-8.5 -13.5l-2.5 -6h-9l-40 25q6 17 13.5 32.5t18.5 27t25 18.5t33 7t31 -7t21.5 -15.5t18 -15.5t19.5 -7t20 6t15 13.5t8.5 14l2.5 6.5h9z" />
    <glyph glyph-name="ograve" unicode="&#xf2;" horiz-adv-x="530" 
d="M50 0zM480 250q0 -66 -15.5 -114.5t-43.5 -81t-67.5 -48.5t-88.5 -16q-98 0 -156.5 64.5t-58.5 195.5t58.5 195.5t156.5 64.5q49 0 88.5 -16t67.5 -48.5t43.5 -81t15.5 -114.5zM380 250q0 52 -9 88.5t-24.5 59t-36.5 32.5t-45 10t-45 -10t-36.5 -32.5t-24.5 -59t-9 -88.5
q0 -53 9 -89t24.5 -58.5t36.5 -32.5t45 -10t45 10t36.5 32.5t24.5 58.5t9 89zM257 700l45 -150h-65l-90 150h110z" />
    <glyph glyph-name="oacute" unicode="&#xf3;" horiz-adv-x="530" 
d="M50 0zM480 250q0 -66 -15.5 -114.5t-43.5 -81t-67.5 -48.5t-88.5 -16q-98 0 -156.5 64.5t-58.5 195.5t58.5 195.5t156.5 64.5q49 0 88.5 -16t67.5 -48.5t43.5 -81t15.5 -114.5zM380 250q0 52 -9 88.5t-24.5 59t-36.5 32.5t-45 10t-45 -10t-36.5 -32.5t-24.5 -59t-9 -88.5
q0 -53 9 -89t24.5 -58.5t36.5 -32.5t45 -10t45 10t36.5 32.5t24.5 58.5t9 89zM382 700l-90 -150h-65l45 150h110z" />
    <glyph glyph-name="ocircumflex" unicode="&#xf4;" horiz-adv-x="530" 
d="M50 0zM480 250q0 -66 -15.5 -114.5t-43.5 -81t-67.5 -48.5t-88.5 -16q-98 0 -156.5 64.5t-58.5 195.5t58.5 195.5t156.5 64.5q49 0 88.5 -16t67.5 -48.5t43.5 -81t15.5 -114.5zM380 250q0 52 -9 88.5t-24.5 59t-36.5 32.5t-45 10t-45 -10t-36.5 -32.5t-24.5 -59t-9 -88.5
q0 -53 9 -89t24.5 -58.5t36.5 -32.5t45 -10t45 10t36.5 32.5t24.5 58.5t9 89zM300 690l105 -130h-65l-75 65l-75 -65h-65l105 130h70z" />
    <glyph glyph-name="otilde" unicode="&#xf5;" horiz-adv-x="530" 
d="M50 0zM480 250q0 -66 -15.5 -114.5t-43.5 -81t-67.5 -48.5t-88.5 -16q-98 0 -156.5 64.5t-58.5 195.5t58.5 195.5t156.5 64.5q49 0 88.5 -16t67.5 -48.5t43.5 -81t15.5 -114.5zM380 250q0 52 -9 88.5t-24.5 59t-36.5 32.5t-45 10t-45 -10t-36.5 -32.5t-24.5 -59t-9 -88.5
q0 -53 9 -89t24.5 -58.5t36.5 -32.5t45 -10t45 10t36.5 32.5t24.5 58.5t9 89zM356 671l40 -25q-11 -34 -32 -59.5t-58 -25.5q-19 0 -31 7t-21.5 15.5t-18 15.5t-19.5 7t-20 -6.5t-15 -14t-8.5 -13.5l-2.5 -6h-9l-40 25q6 17 13.5 32.5t18.5 27t25 18.5t33 7t31 -7
t21.5 -15.5t18 -15.5t19.5 -7t20 6t15 13.5t8.5 14l2.5 6.5h9z" />
    <glyph glyph-name="odieresis" unicode="&#xf6;" horiz-adv-x="530" 
d="M50 0zM480 250q0 -66 -15.5 -114.5t-43.5 -81t-67.5 -48.5t-88.5 -16q-98 0 -156.5 64.5t-58.5 195.5t58.5 195.5t156.5 64.5q49 0 88.5 -16t67.5 -48.5t43.5 -81t15.5 -114.5zM380 250q0 52 -9 88.5t-24.5 59t-36.5 32.5t-45 10t-45 -10t-36.5 -32.5t-24.5 -59t-9 -88.5
q0 -53 9 -89t24.5 -58.5t36.5 -32.5t45 -10t45 10t36.5 32.5t24.5 58.5t9 89zM230 620q0 -24 -15.5 -39.5t-39.5 -15.5t-39.5 15.5t-15.5 39.5t15.5 39.5t39.5 15.5t39.5 -15.5t15.5 -39.5zM405 620q0 -24 -15.5 -39.5t-39.5 -15.5t-39.5 15.5t-15.5 39.5t15.5 39.5
t39.5 15.5t39.5 -15.5t15.5 -39.5z" />
    <glyph glyph-name="divide" unicode="&#xf7;" horiz-adv-x="470" 
d="M30 290v80h410v-80h-410zM175 160q0 26 17 43t43 17t43 -17t17 -43t-17 -43t-43 -17t-43 17t-17 43zM175 500q0 26 17 43t43 17t43 -17t17 -43t-17 -43t-43 -17t-43 17t-17 43z" />
    <glyph glyph-name="oslash" unicode="&#xf8;" horiz-adv-x="530" 
d="M480 250q0 -66 -15.5 -114.5t-43.5 -81t-67.5 -48.5t-88.5 -16q-63 0 -113 28l-12 -18h-80l41 63q-51 66 -51 187q0 131 58.5 195.5t156.5 64.5q66 0 113 -28l12 18h80l-42 -63q25 -32 38.5 -78.5t13.5 -108.5zM380 250q0 56 -11 97l-173 -261q14 -14 31.5 -20t37.5 -6
q24 0 45 10t36.5 32.5t24.5 58.5t9 89zM150 250q0 -56 11 -97l172 261q-27 26 -68 26q-24 0 -45 -10t-36.5 -32.5t-24.5 -59t-9 -88.5z" />
    <glyph glyph-name="ugrave" unicode="&#xf9;" horiz-adv-x="550" 
d="M75 0zM270 65q23 0 42 9.5t33 20.5q17 13 30 30v375h100v-500h-70l-10 60h-5q-14 -20 -35 -35q-18 -14 -45 -24.5t-65 -10.5t-69 12.5t-53.5 35t-35 53.5t-12.5 69v340h100v-340q0 -42 26.5 -68.5t68.5 -26.5zM277 691l45 -150h-65l-90 150h110z" />
    <glyph glyph-name="uacute" unicode="&#xfa;" horiz-adv-x="550" 
d="M75 0zM270 65q23 0 42 9.5t33 20.5q17 13 30 30v375h100v-500h-70l-10 60h-5q-14 -20 -35 -35q-18 -14 -45 -24.5t-65 -10.5t-69 12.5t-53.5 35t-35 53.5t-12.5 69v340h100v-340q0 -42 26.5 -68.5t68.5 -26.5zM392 691l-90 -150h-65l45 150h110z" />
    <glyph glyph-name="ucircumflex" unicode="&#xfb;" horiz-adv-x="550" 
d="M75 0zM270 65q23 0 42 9.5t33 20.5q17 13 30 30v375h100v-500h-70l-10 60h-5q-14 -20 -35 -35q-18 -14 -45 -24.5t-65 -10.5t-69 12.5t-53.5 35t-35 53.5t-12.5 69v340h100v-340q0 -42 26.5 -68.5t68.5 -26.5zM310 690l105 -130h-65l-75 65l-75 -65h-65l105 130h70z" />
    <glyph glyph-name="udieresis" unicode="&#xfc;" horiz-adv-x="550" 
d="M75 0zM270 65q23 0 42 9.5t33 20.5q17 13 30 30v375h100v-500h-70l-10 60h-5q-14 -20 -35 -35q-18 -14 -45 -24.5t-65 -10.5t-69 12.5t-53.5 35t-35 53.5t-12.5 69v340h100v-340q0 -42 26.5 -68.5t68.5 -26.5zM240 620q0 -24 -15.5 -39.5t-39.5 -15.5t-39.5 15.5
t-15.5 39.5t15.5 39.5t39.5 15.5t39.5 -15.5t15.5 -39.5zM415 620q0 -24 -15.5 -39.5t-39.5 -15.5t-39.5 15.5t-15.5 39.5t15.5 39.5t39.5 15.5t39.5 -15.5t15.5 -39.5z" />
    <glyph glyph-name="yacute" unicode="&#xfd;" horiz-adv-x="475" 
d="M15 0zM125 -140q26 0 46.5 20t28.5 50l20 70h-40l-165 500h100l110 -330q4 -11 7.5 -25l6.5 -26q4 -14 7 -29h4q2 15 6 29l6.5 26t6.5 25l91 330h100l-160 -570q-17 -60 -59 -100t-106 -40q-23 0 -41.5 4.5t-31.5 10.5q-16 6 -27 15l25 65h10q7 -8 16 -13q8 -5 18 -8.5
t21 -3.5zM355 691l-90 -150h-65l45 150h110z" />
    <glyph glyph-name="thorn" unicode="&#xfe;" horiz-adv-x="540" 
d="M390 250q0 52 -9 88.5t-24.5 59t-36.5 32.5t-45 10q-21 0 -38 -3t-30 -7q-15 -4 -27 -10v-340q12 -6 27 -10q13 -4 30 -7t38 -3q24 0 45 10t36.5 32.5t24.5 58.5t9 89zM180 480q14 8 32 15q15 5 35 10t43 5q43 0 79.5 -16t63.5 -48.5t42 -81t15 -114.5t-15 -114.5
t-42 -81t-63.5 -48.5t-79.5 -16q-23 0 -43 4.5t-35 10.5q-18 6 -32 15v-220h-100v870l30 30h70v-220z" />
    <glyph glyph-name="ydieresis" unicode="&#xff;" horiz-adv-x="475" 
d="M15 0zM125 -140q26 0 46.5 20t28.5 50l20 70h-40l-165 500h100l110 -330q4 -11 7.5 -25l6.5 -26q4 -14 7 -29h4q2 15 6 29l6.5 26t6.5 25l91 330h100l-160 -570q-17 -60 -59 -100t-106 -40q-23 0 -41.5 4.5t-31.5 10.5q-16 6 -27 15l25 65h10q7 -8 16 -13q8 -5 18 -8.5
t21 -3.5zM202 620q0 -24 -15.5 -39.5t-39.5 -15.5t-39.5 15.5t-15.5 39.5t15.5 39.5t39.5 15.5t39.5 -15.5t15.5 -39.5zM377 620q0 -24 -15.5 -39.5t-39.5 -15.5t-39.5 15.5t-15.5 39.5t15.5 39.5t39.5 15.5t39.5 -15.5t15.5 -39.5z" />
    <glyph glyph-name="Amacron" unicode="&#x100;" horiz-adv-x="570" 
d="M15 0zM455 0l-55 180h-230l-55 -180h-100l205 700h130l205 -700h-100zM190 250h190l-80 275q-4 11 -6 23.5t-4 23.5q-2 12 -3 23h-4q-1 -12 -3 -24q-2 -11 -4.5 -23t-5.5 -23zM420 850v-70h-270v70h270z" />
    <glyph glyph-name="amacron" unicode="&#x101;" 
d="M45 0zM340 320q0 60 -28 90t-77 30q-23 0 -43 -7.5t-35 -15.5q-18 -10 -32 -22h-10l-35 60q19 15 45 27q22 11 52 19.5t68 8.5q43 0 79 -14t61.5 -39.5t40 -60.5t14.5 -76v-320h-70l-10 60h-5q-14 -20 -35 -35q-18 -14 -45 -24.5t-65 -10.5q-79 0 -122 41.5t-43 113.5
q0 34 12 61.5t37.5 47t66.5 30.5t99 11h80v25zM340 225h-80q-60 0 -87.5 -23t-27.5 -57q0 -38 22.5 -59t67.5 -21q23 0 42 9.5t33 20.5q17 13 30 30v100zM400 660v-70h-270v70h270z" />
    <glyph glyph-name="Abreve" unicode="&#x102;" horiz-adv-x="570" 
d="M15 0zM455 0l-55 180h-230l-55 -180h-100l205 700h130l205 -700h-100zM190 250h190l-80 275q-4 11 -6 23.5t-4 23.5q-2 12 -3 23h-4q-1 -12 -3 -24q-2 -11 -4.5 -23t-5.5 -23zM285 820q30 0 45 16t15 54h90q0 -60 -37.5 -95t-112.5 -35t-112.5 35t-37.5 95h90
q0 -38 15 -54t45 -16z" />
    <glyph glyph-name="abreve" unicode="&#x103;" 
d="M45 0zM340 320q0 60 -28 90t-77 30q-23 0 -43 -7.5t-35 -15.5q-18 -10 -32 -22h-10l-35 60q19 15 45 27q22 11 52 19.5t68 8.5q43 0 79 -14t61.5 -39.5t40 -60.5t14.5 -76v-320h-70l-10 60h-5q-14 -20 -35 -35q-18 -14 -45 -24.5t-65 -10.5q-79 0 -122 41.5t-43 113.5
q0 34 12 61.5t37.5 47t66.5 30.5t99 11h80v25zM340 225h-80q-60 0 -87.5 -23t-27.5 -57q0 -38 22.5 -59t67.5 -21q23 0 42 9.5t33 20.5q17 13 30 30v100zM255 611q30 0 45 16t15 54h90q0 -60 -37.5 -95t-112.5 -35t-112.5 35t-37.5 95h90q0 -38 15 -54t45 -16z" />
    <glyph glyph-name="Aogonek" unicode="&#x104;" horiz-adv-x="575" 
d="M15 0zM455 0l-55 180h-230l-55 -180h-100l205 700h130l205 -700h-100zM190 250h190l-80 275q-4 11 -6 23.5t-4 23.5q-2 12 -3 23h-4q-1 -12 -3 -24q-2 -11 -4.5 -23t-5.5 -23zM540 -100q11 0 21.5 3.5t18 7.5t12 7.5l4.5 3.5h9v-52q-9 -8 -21 -13q-11 -5 -25.5 -8.5
t-33.5 -3.5q-45 0 -67.5 20.5t-22.5 54.5q0 17 7.5 31.5t17.5 25.5q11 12 25 23h70q-14 -8 -25 -19q-10 -9 -17.5 -21t-7.5 -25q0 -15 10 -25t25 -10z" />
    <glyph glyph-name="aogonek" unicode="&#x105;" horiz-adv-x="505" 
d="M45 0zM340 320q0 60 -28 90t-77 30q-23 0 -43 -7.5t-35 -15.5q-18 -10 -32 -22h-10l-35 60q19 15 45 27q22 11 52 19.5t68 8.5q43 0 79 -14t61.5 -39.5t40 -60.5t14.5 -76v-320h-70l-10 60h-5q-14 -20 -35 -35q-18 -14 -45 -24.5t-65 -10.5q-79 0 -122 41.5t-43 113.5
q0 34 12 61.5t37.5 47t66.5 30.5t99 11h80v25zM340 225h-80q-60 0 -87.5 -23t-27.5 -57q0 -38 22.5 -59t67.5 -21q23 0 42 9.5t33 20.5q17 13 30 30v100zM430 -100q11 0 21.5 3.5t18 7.5t12 7.5l4.5 3.5h9v-52q-9 -8 -21 -13q-11 -5 -25.5 -8.5t-33.5 -3.5q-45 0 -67.5 20.5
t-22.5 54.5q0 17 7.5 31.5t17.5 25.5q11 12 25 23h70q-14 -8 -25 -19q-10 -9 -17.5 -21t-7.5 -25q0 -15 10 -25t25 -10z" />
    <glyph glyph-name="Cacute" unicode="&#x106;" horiz-adv-x="515" 
d="M55 0zM55 350q0 97 18 165.5t51 112t79 63t102 19.5q42 0 74 -8.5t55 -19.5q26 -12 46 -27l-35 -60h-10q-16 12 -34 22q-16 8 -38 15.5t-48 7.5q-34 0 -63 -14.5t-50.5 -48t-34 -89.5t-12.5 -138q0 -83 12.5 -138.5t35 -89t53.5 -48t69 -14.5q26 0 48 7t38 15
q18 10 34 23h10l35 -60q-20 -16 -46 -28q-23 -11 -55 -19t-74 -8q-60 0 -108 19.5t-82 63t-52 111.5t-18 166zM425 900l-90 -150h-65l45 150h110z" />
    <glyph glyph-name="cacute" unicode="&#x107;" horiz-adv-x="455" 
d="M50 0zM270 440q-26 0 -48 -10t-38 -32.5t-25 -59t-9 -88.5q0 -105 35 -147.5t95 -42.5q23 0 42.5 7t34.5 15q18 10 33 23h10l35 -60q-19 -16 -45 -28q-22 -11 -52 -19t-68 -8q-101 0 -160.5 64.5t-59.5 195.5q0 66 15 114.5t43 81t66.5 48.5t85.5 16q38 0 68 -8.5
t52 -19.5q26 -12 45 -27l-35 -60h-10q-15 12 -33 22q-15 8 -34.5 15.5t-42.5 7.5zM367 700l-90 -150h-65l45 150h110z" />
    <glyph glyph-name="Ccaron" unicode="&#x10c;" horiz-adv-x="515" 
d="M55 0zM55 350q0 97 18 165.5t51 112t79 63t102 19.5q42 0 74 -8.5t55 -19.5q26 -12 46 -27l-35 -60h-10q-16 12 -34 22q-16 8 -38 15.5t-48 7.5q-34 0 -63 -14.5t-50.5 -48t-34 -89.5t-12.5 -138q0 -83 12.5 -138.5t35 -89t53.5 -48t69 -14.5q26 0 48 7t38 15
q18 10 34 23h10l35 -60q-20 -16 -46 -28q-23 -11 -55 -19t-74 -8q-60 0 -108 19.5t-82 63t-52 111.5t-18 166zM272 760l-105 130h65l75 -65l75 65h65l-105 -130h-70z" />
    <glyph glyph-name="ccaron" unicode="&#x10d;" horiz-adv-x="455" 
d="M50 0zM270 440q-26 0 -48 -10t-38 -32.5t-25 -59t-9 -88.5q0 -105 35 -147.5t95 -42.5q23 0 42.5 7t34.5 15q18 10 33 23h10l35 -60q-19 -16 -45 -28q-22 -11 -52 -19t-68 -8q-101 0 -160.5 64.5t-59.5 195.5q0 66 15 114.5t43 81t66.5 48.5t85.5 16q38 0 68 -8.5
t52 -19.5q26 -12 45 -27l-35 -60h-10q-15 12 -33 22q-15 8 -34.5 15.5t-42.5 7.5zM215 560l-105 130h65l75 -65l75 65h65l-105 -130h-70z" />
    <glyph glyph-name="Dcaron" unicode="&#x10e;" horiz-adv-x="585" 
d="M90 0zM90 0v700h150q71 0 125.5 -19.5t91 -61.5t55 -108.5t18.5 -160.5t-18.5 -160.5t-55 -108.5t-91 -61.5t-125.5 -19.5h-150zM240 70q45 0 80.5 14t59.5 47t37 86.5t13 132.5t-13 132.5t-37 86.5t-59.5 47t-80.5 14h-50v-560h50zM232 760l-105 130h65l75 -65l75 65h65
l-105 -130h-70z" />
    <glyph glyph-name="dcaron" unicode="&#x10f;" horiz-adv-x="645" 
d="M525 645q0 23 15.5 39t34.5 16q26 0 43 -17.5t17 -46.5q0 -40 -12.5 -68.5t-27.5 -47.5q-18 -22 -40 -36l-30 31q14 10 25 22q9 11 17 24.5t8 28.5q-19 0 -34.5 16t-15.5 39zM360 420q-12 6 -27 10q-13 4 -30.5 7t-37.5 3q-24 0 -45 -10t-36.5 -32.5t-24.5 -59t-9 -88.5
q0 -51 8.5 -86t23 -57t33.5 -32t40 -10q23 0 42 9.5t33 20.5q17 13 30 30v295zM390 700h70v-700h-70l-10 60h-5q-14 -20 -35 -35q-18 -14 -45 -24.5t-65 -10.5q-36 0 -68.5 16t-57 48.5t-39.5 81t-15 114.5t15 114.5t42 81t63.5 48.5t79.5 16q23 0 42.5 -5t34.5 -10
q18 -7 33 -15v190z" />
    <glyph glyph-name="Dcroat" unicode="&#x110;" horiz-adv-x="585" 
d="M90 0v320h-55v80h55v300h150q71 0 125.5 -19.5t91 -61.5t55 -108.5t18.5 -160.5t-18.5 -160.5t-55 -108.5t-91 -61.5t-125.5 -19.5h-150zM240 70q45 0 80.5 14t59.5 47t37 86.5t13 132.5t-13 132.5t-37 86.5t-59.5 47t-80.5 14h-50v-230h115v-80h-115v-250h50z" />
    <glyph glyph-name="dcroat" unicode="&#x111;" horiz-adv-x="545" 
d="M390 700h70v-100h65v-70h-65v-530h-70l-10 60h-5q-14 -20 -35 -35q-18 -14 -45 -24.5t-65 -10.5q-36 0 -68.5 15.5t-57 46t-39.5 75.5t-15 103t15 103t42 75.5t63.5 46t79.5 15.5q23 0 42.5 -5t34.5 -10q18 -7 33 -15v90h-105v70h105v70zM360 380q-12 6 -27 10
q-13 4 -30.5 7t-37.5 3q-49 0 -82 -40t-33 -130q0 -43 8.5 -74t23 -51.5t33.5 -30t40 -9.5q23 0 42 9.5t33 20.5q17 13 30 30v255z" />
    <glyph glyph-name="Emacron" unicode="&#x112;" 
d="M90 0zM90 0v700h390v-70h-290v-230h230v-70h-230v-260h290v-70h-390zM422 860v-70h-270v70h270z" />
    <glyph glyph-name="emacron" unicode="&#x113;" horiz-adv-x="505" 
d="M50 0zM255 510q45 0 82.5 -16t65 -48.5t42.5 -81t15 -114.5v-15l-20 -20h-290q0 -79 35 -117t95 -38q23 0 42.5 7t34.5 15q18 10 33 23h10l35 -60q-19 -16 -45 -28q-22 -11 -52 -19t-68 -8q-101 0 -160.5 64.5t-59.5 195.5q0 66 15 114.5t42.5 81t65 48.5t82.5 16z
M255 440q-45 0 -75 -36t-30 -119h210q0 83 -30 119t-75 36zM397 660v-70h-270v70h270z" />
    <glyph glyph-name="Edotaccent" unicode="&#x116;" 
d="M90 0zM90 0v700h390v-70h-290v-230h230v-70h-230v-260h290v-70h-390zM357 820q0 -26 -17 -43t-43 -17t-43 17t-17 43t17 43t43 17t43 -17t17 -43z" />
    <glyph glyph-name="edotaccent" unicode="&#x117;" horiz-adv-x="505" 
d="M50 0zM255 510q45 0 82.5 -16t65 -48.5t42.5 -81t15 -114.5v-15l-20 -20h-290q0 -79 35 -117t95 -38q23 0 42.5 7t34.5 15q18 10 33 23h10l35 -60q-19 -16 -45 -28q-22 -11 -52 -19t-68 -8q-101 0 -160.5 64.5t-59.5 195.5q0 66 15 114.5t42.5 81t65 48.5t82.5 16z
M255 440q-45 0 -75 -36t-30 -119h210q0 83 -30 119t-75 36zM312 620q0 -26 -17 -43t-43 -17t-43 17t-17 43t17 43t43 17t43 -17t17 -43z" />
    <glyph glyph-name="Eogonek" unicode="&#x118;" 
d="M90 0zM90 0v700h390v-70h-290v-230h230v-70h-230v-260h290v-70h-390zM325 -100q11 0 21.5 3.5t18 7.5t12 7.5l4.5 3.5h9v-52q-9 -8 -21 -13q-11 -5 -25.5 -8.5t-33.5 -3.5q-45 0 -67.5 20.5t-22.5 54.5q0 17 7.5 31.5t17.5 25.5q11 12 25 23h70q-14 -8 -25 -19
q-10 -9 -17.5 -21t-7.5 -25q0 -15 10 -25t25 -10z" />
    <glyph glyph-name="eogonek" unicode="&#x119;" horiz-adv-x="505" 
d="M50 0zM255 510q45 0 82.5 -16t65 -48.5t42.5 -81t15 -114.5v-15l-20 -20h-290q0 -79 35 -117t95 -38q23 0 42.5 7t34.5 15q18 10 33 23h10l35 -60q-19 -16 -45 -28q-22 -11 -52 -19t-68 -8q-101 0 -160.5 64.5t-59.5 195.5q0 66 15 114.5t42.5 81t65 48.5t82.5 16z
M255 440q-45 0 -75 -36t-30 -119h210q0 83 -30 119t-75 36zM295 -100q11 0 21.5 3.5t18 7.5t12 7.5l4.5 3.5h9v-52q-9 -8 -21 -13q-11 -5 -25.5 -8.5t-33.5 -3.5q-45 0 -67.5 20.5t-22.5 54.5q0 17 7.5 31.5t17.5 25.5q11 12 25 23h70q-14 -8 -25 -19q-10 -9 -17.5 -21
t-7.5 -25q0 -15 10 -25t25 -10z" />
    <glyph glyph-name="Ecaron" unicode="&#x11a;" 
d="M90 0zM90 0v700h390v-70h-290v-230h230v-70h-230v-260h290v-70h-390zM262 760l-105 130h65l75 -65l75 65h65l-105 -130h-70z" />
    <glyph glyph-name="ecaron" unicode="&#x11b;" horiz-adv-x="505" 
d="M50 0zM255 510q45 0 82.5 -16t65 -48.5t42.5 -81t15 -114.5v-15l-20 -20h-290q0 -79 35 -117t95 -38q23 0 42.5 7t34.5 15q18 10 33 23h10l35 -60q-19 -16 -45 -28q-22 -11 -52 -19t-68 -8q-101 0 -160.5 64.5t-59.5 195.5q0 66 15 114.5t42.5 81t65 48.5t82.5 16z
M255 440q-45 0 -75 -36t-30 -119h210q0 83 -30 119t-75 36zM217 560l-105 130h65l75 -65l75 65h65l-105 -130h-70z" />
    <glyph glyph-name="Gbreve" unicode="&#x11e;" horiz-adv-x="565" 
d="M55 0zM500 45q-21 -16 -49 -28q-24 -11 -58.5 -19t-77.5 -8q-56 0 -104 21t-82.5 65t-54 112t-19.5 162t19.5 162t53 112t79 65t98.5 21q42 0 74 -8.5t55 -19.5q26 -12 46 -27l-35 -60h-10q-16 12 -34 22q-16 8 -38 15.5t-48 7.5q-34 0 -63 -14.5t-50.5 -48t-34 -89.5
t-12.5 -138q0 -83 12.5 -138.5t35 -89t53.5 -48t69 -14.5q15 0 28.5 3.5t24 7t16.5 6.5l6 3v230h-115v70h185l30 -30v-305zM297 810q30 0 45 16t15 54h90q0 -60 -37.5 -95t-112.5 -35t-112.5 35t-37.5 95h90q0 -38 15 -54t45 -16z" />
    <glyph glyph-name="gbreve" unicode="&#x11f;" horiz-adv-x="535" 
d="M50 0zM360 375q-13 17 -30 30q-14 11 -33 20.5t-42 9.5q-21 0 -40 -10t-33.5 -32t-23 -57t-8.5 -86q0 -53 9 -89t24.5 -58.5t36.5 -32.5t45 -10q20 0 37.5 3t30.5 7q15 4 27 10v295zM460 -10q0 -45 -14.5 -82t-42.5 -63t-67.5 -40.5t-90.5 -14.5q-38 0 -68 8t-52 19
q-26 12 -45 28l35 60h10q14 -13 32 -23q15 -8 35 -15t43 -7q64 0 94.5 31t30.5 99v30q-15 -9 -33 -15q-15 -6 -34.5 -10.5t-42.5 -4.5q-43 0 -79.5 16t-63.5 48.5t-42 81t-15 114.5t15 114.5t39.5 81t57 48.5t68.5 16q38 0 65 -11t45 -24q21 -16 35 -35h5l10 60h70v-510z
M267 620q30 0 45 16t15 54h90q0 -60 -37.5 -95t-112.5 -35t-112.5 35t-37.5 95h90q0 -38 15 -54t45 -16z" />
    <glyph glyph-name="Gcommaaccent" unicode="&#x122;" horiz-adv-x="565" 
d="M55 0zM500 45q-21 -16 -49 -28q-24 -11 -58.5 -19t-77.5 -8q-56 0 -104 21t-82.5 65t-54 112t-19.5 162t19.5 162t53 112t79 65t98.5 21q42 0 74 -8.5t55 -19.5q26 -12 46 -27l-35 -60h-10q-16 12 -34 22q-16 8 -38 15.5t-48 7.5q-34 0 -63 -14.5t-50.5 -48t-34 -89.5
t-12.5 -138q0 -83 12.5 -138.5t35 -89t53.5 -48t69 -14.5q15 0 28.5 3.5t24 7t16.5 6.5l6 3v230h-115v70h185l30 -30v-305zM252 -104q0 23 15.5 39t34.5 16q26 0 43 -17.5t17 -46.5q0 -40 -12.5 -68.5t-27.5 -47.5q-18 -22 -40 -36l-30 31q14 10 25 22q9 11 17 24.5t8 28.5
q-19 0 -34.5 16t-15.5 39z" />
    <glyph glyph-name="gcommaaccent" unicode="&#x123;" horiz-adv-x="535" 
d="M50 0zM360 375q-13 17 -30 30q-14 11 -33 20.5t-42 9.5q-21 0 -40 -10t-33.5 -32t-23 -57t-8.5 -86q0 -53 9 -89t24.5 -58.5t36.5 -32.5t45 -10q20 0 37.5 3t30.5 7q15 4 27 10v295zM460 -10q0 -45 -14.5 -82t-42.5 -63t-67.5 -40.5t-90.5 -14.5q-38 0 -68 8t-52 19
q-26 12 -45 28l35 60h10q14 -13 32 -23q15 -8 35 -15t43 -7q64 0 94.5 31t30.5 99v30q-15 -9 -33 -15q-15 -6 -34.5 -10.5t-42.5 -4.5q-43 0 -79.5 16t-63.5 48.5t-42 81t-15 114.5t15 114.5t39.5 81t57 48.5t68.5 16q38 0 65 -11t45 -24q21 -16 35 -35h5l10 60h70v-510z
M310.001 624.995q0 -22.998 -15.499 -38.9971t-34.498 -15.999q-25.999 0 -42.998 17.499q-16.998 17.499 -16.998 46.4971q0 39.9971 12.499 68.4951q12.499 28.499 27.498 47.498q17.999 21.998 39.9971 35.9971l29.999 -30.998q-13.999 -9.99902 -24.999 -21.998
q-8.99902 -11 -16.999 -24.499q-7.99902 -13.499 -7.99902 -28.498q18.999 0 34.498 -15.999t15.499 -38.998z" />
    <glyph glyph-name="hbar" unicode="&#x127;" horiz-adv-x="560" 
d="M90 590v80l30 30h70v-110h135v-70h-135v-120q14 14 33 25q17 9 41 17t56 8q37 0 68.5 -12.5t54 -35t35 -54t12.5 -68.5v-280h-100v280q0 42 -26.5 68.5t-68.5 26.5q-23 0 -42 -9.5t-33 -20.5q-17 -13 -30 -30v-315h-100v520h-65v70h65z" />
    <glyph glyph-name="Itilde" unicode="&#x128;" horiz-adv-x="250" 
d="M0 0zM76 700h100v-700h-100v700zM217 890l40 -25q-11 -34 -32 -59.5t-58 -25.5q-19 0 -31 7t-21.5 15.5t-18 15.5t-19.5 7t-20 -6.5t-15 -14t-8.5 -13.5l-2.5 -6h-9l-40 25q6 17 13.5 32.5t18.5 27t25 18.5t33 7t31 -7t21.5 -15.5t18 -15.5t19.5 -7t20 6t15 13.5t8.5 14
l2.5 6.5h9z" />
    <glyph glyph-name="itilde" unicode="&#x129;" horiz-adv-x="240" 
d="M0 0zM171 500v-500h-100v500h100zM212 690l40 -25q-11 -34 -32 -59.5t-58 -25.5q-19 0 -31 7t-21.5 15.5t-18 15.5t-19.5 7t-20 -6.5t-15 -14t-8.5 -13.5l-2.5 -6h-9l-40 25q6 17 13.5 32.5t18.5 27t25 18.5t33 7t31 -7t21.5 -15.5t18 -15.5t19.5 -7t20 6t15 13.5t8.5 14
l2.5 6.5h9z" />
    <glyph glyph-name="Imacron" unicode="&#x12a;" horiz-adv-x="260" 
d="M0 0zM81 700h100v-700h-100v700zM266 850v-70h-270v70h270z" />
    <glyph glyph-name="imacron" unicode="&#x12b;" horiz-adv-x="250" 
d="M175 500v-500h-100v500h100zM260 650v-70h-270v70h270z" />
    <glyph glyph-name="Iogonek" unicode="&#x12e;" horiz-adv-x="270" 
d="M65 0zM86 700h100v-700h-100v700zM170 -100q11 0 21.5 3.5t18 7.5t12 7.5l4.5 3.5h9v-52q-9 -8 -21 -13q-11 -5 -25.5 -8.5t-33.5 -3.5q-45 0 -67.5 20.5t-22.5 54.5q0 17 7.5 31.5t17.5 25.5q11 12 25 23h70q-14 -8 -25 -19q-10 -9 -17.5 -21t-7.5 -25q0 -15 10 -25
t25 -10z" />
    <glyph glyph-name="iogonek" unicode="&#x12f;" horiz-adv-x="245" 
d="M55 0zM175 500v-500h-100v500h100zM185 640q0 -26 -17 -43t-43 -17t-43 17t-17 43t17 43t43 17t43 -17t17 -43zM160 -100q11 0 21.5 3.5t18 7.5t12 7.5l4.5 3.5h9v-52q-9 -8 -21 -13q-11 -5 -25.5 -8.5t-33.5 -3.5q-45 0 -67.5 20.5t-22.5 54.5q0 17 7.5 31.5t17.5 25.5
q11 12 25 23h70q-14 -8 -25 -19q-10 -9 -17.5 -21t-7.5 -25q0 -15 10 -25t25 -10z" />
    <glyph glyph-name="Idotaccent" unicode="&#x130;" horiz-adv-x="260" 
d="M70 0zM81 700h100v-700h-100v700zM190 820q0 -26 -17 -43t-43 -17t-43 17t-17 43t17 43t43 17t43 -17t17 -43z" />
    <glyph glyph-name="dotlessi" unicode="&#x131;" horiz-adv-x="250" 
d="M175 500v-500h-100v500h100z" />
    <glyph glyph-name="ij" unicode="&#x133;" horiz-adv-x="505" 
d="M255 -130q34 0 54.5 22.5t20.5 67.5v470h-155v-430h-100v500h355v-540q0 -36 -11.5 -65.5t-33.5 -50.5t-52.5 -32.5t-67.5 -11.5q-23 0 -41.5 4.5t-31.5 10.5q-16 6 -27 15l25 65h10q7 -8 16 -13q8 -5 18 -8.5t21 -3.5zM440 640q0 -26 -17 -43t-43 -17t-43 17t-17 43
t17 43t43 17t43 -17t17 -43zM185 640q0 -26 -17 -43t-43 -17t-43 17t-17 43t17 43t43 17t43 -17t17 -43z" />
    <glyph glyph-name="Jcircumflex" unicode="&#x134;" horiz-adv-x="410" 
d="M0 0zM125 60q57 0 86 31t29 99v510h100v-510q0 -98 -51.5 -149t-153.5 -51q-30 0 -55 7t-43 15q-21 10 -37 23l30 65h10q12 -11 26 -20q12 -8 27 -14t32 -6zM320 870l105 -130h-65l-75 65l-75 -65h-65l105 130h70z" />
    <glyph glyph-name="jcircumflex" unicode="&#x135;" horiz-adv-x="268" 
d="M20 -130q34 0 54.5 22.5t20.5 67.5v540h100v-540q0 -36 -11.5 -65.5t-33.5 -50.5t-52.5 -32.5t-67.5 -11.5q-23 0 -41.5 4.5t-31.5 10.5q-16 6 -27 15l25 65h10q7 -8 16 -13q8 -5 18 -8.5t21 -3.5zM173 680l105 -130h-65l-75 65l-75 -65h-65l105 130h70z" />
    <glyph glyph-name="Kcommaaccent" unicode="&#x136;" horiz-adv-x="555" 
d="M90 0zM540 0h-115l-235 350v-350h-100v700h100v-330l225 330h115l-230 -340zM237 -65q0 23 15.5 39t34.5 16q26 0 43 -17.5t17 -46.5q0 -40 -12.5 -68.5t-27.5 -47.5q-18 -22 -40 -36l-30 31q14 10 25 22q9 11 17 24.5t8 28.5q-19 0 -34.5 16t-15.5 39z" />
    <glyph glyph-name="kcommaaccent" unicode="&#x137;" horiz-adv-x="480" 
d="M75 0zM175 700v-430l170 230h115l-180 -240l190 -260h-115l-180 250v-250h-100v670l30 30h70zM197 -65q0 23 15.5 39t34.5 16q26 0 43 -17.5t17 -46.5q0 -40 -12.5 -68.5t-27.5 -47.5q-18 -22 -40 -36l-30 31q14 10 25 22q9 11 17 24.5t8 28.5q-19 0 -34.5 16t-15.5 39z
" />
    <glyph glyph-name="kgreenlandic" unicode="&#x138;" horiz-adv-x="480" 
d="M175 500v-230l170 230h115l-180 -240l190 -260h-115l-180 250v-250h-100v470l30 30h70z" />
    <glyph glyph-name="Lacute" unicode="&#x139;" horiz-adv-x="490" 
d="M90 0zM190 700v-630h290v-70h-390v700h100zM275 900l-90 -150h-65l45 150h110z" />
    <glyph glyph-name="lacute" unicode="&#x13a;" horiz-adv-x="252" 
d="M75 0zM75 670l30 30h70v-700h-100v670zM252 900l-90 -150h-65l45 150h110z" />
    <glyph glyph-name="Lcommaaccent" unicode="&#x13b;" horiz-adv-x="490" 
d="M90 0zM190 700v-630h290v-70h-390v700h100zM232 -104q0 23 15.5 39t34.5 16q26 0 43 -17.5t17 -46.5q0 -40 -12.5 -68.5t-27.5 -47.5q-18 -22 -40 -36l-30 31q14 10 25 22q9 11 17 24.5t8 28.5q-19 0 -34.5 16t-15.5 39z" />
    <glyph glyph-name="lcommaaccent" unicode="&#x13c;" horiz-adv-x="250" 
d="M70 0zM75 670l30 30h70v-700h-100v670zM70 -104q0 23 15.5 39t34.5 16q26 0 43 -17.5t17 -46.5q0 -40 -12.5 -68.5t-27.5 -47.5q-18 -22 -40 -36l-30 31q14 10 25 22q9 11 17 24.5t8 28.5q-19 0 -34.5 16t-15.5 39z" />
    <glyph glyph-name="Lcaron" unicode="&#x13d;" horiz-adv-x="490" 
d="M265 645q0 23 15.5 39t34.5 16q26 0 43 -17.5t17 -46.5q0 -40 -12.5 -68.5t-27.5 -47.5q-18 -22 -40 -36l-30 31q14 10 25 22q9 11 17 24.5t8 28.5q-19 0 -34.5 16t-15.5 39zM190 700v-630h290v-70h-390v700h100z" />
    <glyph glyph-name="lcaron" unicode="&#x13e;" horiz-adv-x="365" 
d="M245 645q0 23 15.5 39t34.5 16q26 0 43 -17.5t17 -46.5q0 -40 -12.5 -68.5t-27.5 -47.5q-18 -22 -40 -36l-30 31q14 10 25 22q9 11 17 24.5t8 28.5q-19 0 -34.5 16t-15.5 39zM75 670l30 30h70v-700h-100v670z" />
    <glyph glyph-name="ldot" unicode="&#x140;" horiz-adv-x="360" 
d="M75 0zM75 670l30 30h70v-700h-100v670zM230 350q0 26 17 43t43 17t43 -17t17 -43t-17 -43t-43 -17t-43 17t-17 43z" />
    <glyph glyph-name="Lslash" unicode="&#x141;" horiz-adv-x="472" 
d="M182 700v-245l113 85v-110l-113 -85v-275h280v-70h-380v270l-67 -50v110l67 50v320h100z" />
    <glyph glyph-name="lslash" unicode="&#x142;" horiz-adv-x="290" 
d="M85 269l-60 -49v110l60 49v291l30 30h70v-241l80 71v-110l-80 -71v-349h-100v269z" />
    <glyph glyph-name="Nacute" unicode="&#x143;" horiz-adv-x="630" 
d="M90 0zM220 445q-5 11 -10 25.5t-10 28.5q-5 15 -10 31h-4q1 -16 2 -31q1 -14 1.5 -28.5t0.5 -25.5v-445h-100v700h110l210 -445q5 -11 10 -26t10 -28q5 -16 10 -31h4q-1 15 -2 31q-1 13 -1.5 28t-0.5 26v445h100v-700h-110zM422 890l-90 -150h-65l45 150h110z" />
    <glyph glyph-name="nacute" unicode="&#x144;" horiz-adv-x="545" 
d="M75 0zM280 435q-23 0 -42 -9.5t-33 -20.5q-17 -13 -30 -30v-375h-100v500h70l10 -60h5q14 19 35 35q18 13 45 24t65 11q37 0 68.5 -12.5t54 -35t35 -54t12.5 -68.5v-340h-100v340q0 42 -26.5 68.5t-68.5 26.5zM390 700l-90 -150h-65l45 150h110z" />
    <glyph glyph-name="Ncommaaccent" unicode="&#x145;" horiz-adv-x="630" 
d="M90 0zM220 445q-5 11 -10 25.5t-10 28.5q-5 15 -10 31h-4q1 -16 2 -31q1 -14 1.5 -28.5t0.5 -25.5v-445h-100v700h110l210 -445q5 -11 10 -26t10 -28q5 -16 10 -31h4q-1 15 -2 31q-1 13 -1.5 28t-0.5 26v445h100v-700h-110zM260 -65q0 23 15.5 39t34.5 16q26 0 43 -17.5
t17 -46.5q0 -40 -12.5 -68.5t-27.5 -47.5q-18 -22 -40 -36l-30 31q14 10 25 22q9 11 17 24.5t8 28.5q-19 0 -34.5 16t-15.5 39z" />
    <glyph glyph-name="ncommaaccent" unicode="&#x146;" horiz-adv-x="545" 
d="M75 0zM280 435q-23 0 -42 -9.5t-33 -20.5q-17 -13 -30 -30v-375h-100v500h70l10 -60h5q14 19 35 35q18 13 45 24t65 11q37 0 68.5 -12.5t54 -35t35 -54t12.5 -68.5v-340h-100v340q0 42 -26.5 68.5t-68.5 26.5zM222 -65q0 23 15.5 39t34.5 16q26 0 43 -17.5t17 -46.5
q0 -40 -12.5 -68.5t-27.5 -47.5q-18 -22 -40 -36l-30 31q14 10 25 22q9 11 17 24.5t8 28.5q-19 0 -34.5 16t-15.5 39z" />
    <glyph glyph-name="Ncaron" unicode="&#x147;" horiz-adv-x="630" 
d="M90 0zM220 445q-5 11 -10 25.5t-10 28.5q-5 15 -10 31h-4q1 -16 2 -31q1 -14 1.5 -28.5t0.5 -25.5v-445h-100v700h110l210 -445q5 -11 10 -26t10 -28q5 -16 10 -31h4q-1 15 -2 31q-1 13 -1.5 28t-0.5 26v445h100v-700h-110zM280 750l-105 130h65l75 -65l75 65h65
l-105 -130h-70z" />
    <glyph glyph-name="ncaron" unicode="&#x148;" horiz-adv-x="545" 
d="M75 0zM280 435q-23 0 -42 -9.5t-33 -20.5q-17 -13 -30 -30v-375h-100v500h70l10 -60h5q14 19 35 35q18 13 45 24t65 11q37 0 68.5 -12.5t54 -35t35 -54t12.5 -68.5v-340h-100v340q0 42 -26.5 68.5t-68.5 26.5zM237 560l-105 130h65l75 -65l75 65h65l-105 -130h-70z" />
    <glyph glyph-name="Omacron" unicode="&#x14c;" horiz-adv-x="600" 
d="M55 0zM155 350q0 -83 12 -138.5t32.5 -89t46.5 -48t54 -14.5t54 14.5t46.5 48t32.5 89t12 138.5q0 82 -12 138t-32.5 89.5t-46.5 48t-54 14.5t-54 -14.5t-46.5 -48t-32.5 -89.5t-12 -138zM545 350q0 -98 -18 -166t-50 -111.5t-77.5 -63t-99.5 -19.5t-99.5 19.5t-77.5 63
t-50 111.5t-18 166q0 97 18 165.5t50 112t77.5 63t99.5 19.5t99.5 -19.5t77.5 -63t50 -112t18 -165.5zM435 860v-70h-270v70h270z" />
    <glyph glyph-name="omacron" unicode="&#x14d;" horiz-adv-x="530" 
d="M50 0zM480 250q0 -66 -15.5 -114.5t-43.5 -81t-67.5 -48.5t-88.5 -16q-98 0 -156.5 64.5t-58.5 195.5t58.5 195.5t156.5 64.5q49 0 88.5 -16t67.5 -48.5t43.5 -81t15.5 -114.5zM380 250q0 52 -9 88.5t-24.5 59t-36.5 32.5t-45 10t-45 -10t-36.5 -32.5t-24.5 -59t-9 -88.5
q0 -53 9 -89t24.5 -58.5t36.5 -32.5t45 -10t45 10t36.5 32.5t24.5 58.5t9 89zM400 660v-70h-270v70h270z" />
    <glyph glyph-name="Ohungarumlaut" unicode="&#x150;" horiz-adv-x="600" 
d="M55 0zM155 350q0 -83 12 -138.5t32.5 -89t46.5 -48t54 -14.5t54 14.5t46.5 48t32.5 89t12 138.5q0 82 -12 138t-32.5 89.5t-46.5 48t-54 14.5t-54 -14.5t-46.5 -48t-32.5 -89.5t-12 -138zM545 350q0 -98 -18 -166t-50 -111.5t-77.5 -63t-99.5 -19.5t-99.5 19.5t-77.5 63
t-50 111.5t-18 166q0 97 18 165.5t50 112t77.5 63t99.5 19.5t99.5 -19.5t77.5 -63t50 -112t18 -165.5zM342 900l-85 -150h-55l45 150h95zM477 900l-85 -150h-55l45 150h95z" />
    <glyph glyph-name="ohungarumlaut" unicode="&#x151;" horiz-adv-x="530" 
d="M50 0zM480 250q0 -66 -15.5 -114.5t-43.5 -81t-67.5 -48.5t-88.5 -16q-98 0 -156.5 64.5t-58.5 195.5t58.5 195.5t156.5 64.5q49 0 88.5 -16t67.5 -48.5t43.5 -81t15.5 -114.5zM380 250q0 52 -9 88.5t-24.5 59t-36.5 32.5t-45 10t-45 -10t-36.5 -32.5t-24.5 -59t-9 -88.5
q0 -53 9 -89t24.5 -58.5t36.5 -32.5t45 -10t45 10t36.5 32.5t24.5 58.5t9 89zM297 700l-85 -150h-55l45 150h95zM432 700l-85 -150h-55l45 150h95z" />
    <glyph glyph-name="OE" unicode="&#x152;" horiz-adv-x="815" 
d="M345 0q-71 0 -125.5 19.5t-91 61.5t-55 108.5t-18.5 160.5t18.5 160.5t55 108.5t91 61.5t125.5 19.5h440v-70h-290v-230h230v-70h-230v-260h290v-70h-440zM395 70v560h-50q-45 0 -80.5 -14t-59.5 -47t-37 -86.5t-13 -132.5t13 -132.5t37 -86.5t59.5 -47t80.5 -14h50z" />
    <glyph glyph-name="oe" unicode="&#x153;" horiz-adv-x="820" 
d="M420 430q26 34 64.5 57t90.5 23q43 0 79.5 -16t63.5 -48.5t42 -81t15 -114.5v-15l-20 -20h-280q0 -79 33.5 -117t86.5 -38q23 0 42.5 7t34.5 15q18 10 33 23h10l35 -60q-19 -16 -45 -28q-22 -11 -52 -19t-68 -8q-49 0 -92 19.5t-72 60.5q-27 -41 -65.5 -60.5t-95.5 -19.5
q-47 0 -85.5 16t-66.5 48.5t-43 81t-15 114.5t15 114.5t43 81t66.5 48.5t85.5 16q57 0 95.5 -23t64.5 -57zM260 60q22 0 41.5 9.5t34.5 30.5t24 55t10 84v11v10q-1 49 -10 83.5t-24 56t-34.5 31t-41.5 9.5q-23 0 -43 -10t-35 -32.5t-23.5 -59t-8.5 -88.5q0 -53 8.5 -89
t23.5 -58.5t35 -32.5t43 -10zM575 440q-21 0 -39 -9t-31.5 -27.5t-21.5 -48t-8 -70.5h200q0 41 -8 70.5t-21.5 48t-31.5 27.5t-39 9z" />
    <glyph glyph-name="Racute" unicode="&#x154;" horiz-adv-x="575" 
d="M90 0zM190 260v-260h-100v700h170q128 0 189 -57t61 -163q0 -160 -137 -205l167 -275h-115l-155 260h-80zM260 330q150 0 150 150t-150 150h-70v-300h70zM390 900l-90 -150h-65l45 150h110z" />
    <glyph glyph-name="racute" unicode="&#x155;" horiz-adv-x="365" 
d="M75 0zM275 430q-21 0 -39 -9.5t-32 -20.5q-16 -13 -29 -30v-370h-100v500h70l10 -60h5q14 19 34 35q17 13 43.5 24t62.5 11q13 0 25 -1.5t21 -3.5q11 -3 19 -5l-15 -80h-10q-10 2 -21 5q-10 2 -21.5 3.5t-22.5 1.5zM327 700l-90 -150h-65l45 150h110z" />
    <glyph glyph-name="Rcommaaccent" unicode="&#x156;" horiz-adv-x="575" 
d="M90 0zM190 260v-260h-100v700h170q128 0 189 -57t61 -163q0 -160 -137 -205l167 -275h-115l-155 260h-80zM260 330q150 0 150 150t-150 150h-70v-300h70zM237 -65q0 23 15.5 39t34.5 16q26 0 43 -17.5t17 -46.5q0 -40 -12.5 -68.5t-27.5 -47.5q-18 -22 -40 -36l-30 31
q14 10 25 22q9 11 17 24.5t8 28.5q-19 0 -34.5 16t-15.5 39z" />
    <glyph glyph-name="rcommaaccent" unicode="&#x157;" horiz-adv-x="365" 
d="M70 0zM275 430q-21 0 -39 -9.5t-32 -20.5q-16 -13 -29 -30v-370h-100v500h70l10 -60h5q14 19 34 35q17 13 43.5 24t62.5 11q13 0 25 -1.5t21 -3.5q11 -3 19 -5l-15 -80h-10q-10 2 -21 5q-10 2 -21.5 3.5t-22.5 1.5zM70 -104q0 23 15.5 39t34.5 16q26 0 43 -17.5t17 -46.5
q0 -40 -12.5 -68.5t-27.5 -47.5q-18 -22 -40 -36l-30 31q14 10 25 22q9 11 17 24.5t8 28.5q-19 0 -34.5 16t-15.5 39z" />
    <glyph glyph-name="Rcaron" unicode="&#x158;" horiz-adv-x="575" 
d="M90 0zM190 260v-260h-100v700h170q128 0 189 -57t61 -163q0 -160 -137 -205l167 -275h-115l-155 260h-80zM260 330q150 0 150 150t-150 150h-70v-300h70zM237 760l-105 130h65l75 -65l75 65h65l-105 -130h-70z" />
    <glyph glyph-name="rcaron" unicode="&#x159;" horiz-adv-x="380" 
d="M75 0zM275 430q-21 0 -39 -9.5t-32 -20.5q-16 -13 -29 -30v-370h-100v500h70l10 -60h5q14 19 34 35q17 13 43.5 24t62.5 11q13 0 25 -1.5t21 -3.5q11 -3 19 -5l-15 -80h-10q-10 2 -21 5q-10 2 -21.5 3.5t-22.5 1.5zM195 560l-105 130h65l75 -65l75 65h65l-105 -130h-70z
" />
    <glyph glyph-name="Sacute" unicode="&#x15a;" horiz-adv-x="505" 
d="M35 0zM255 710q49 0 85 -8.5t61 -19.5q28 -12 49 -27l-35 -60h-10q-15 12 -36 22q-18 8 -44 15.5t-60 7.5q-26 0 -48 -9t-38 -24t-25 -35t-9 -42q0 -40 24 -65.5t60 -45t78.5 -37t78.5 -42t60 -60t24 -90.5q0 -45 -15 -82t-44 -63t-72 -40.5t-99 -14.5q-49 0 -87 8
t-64 19q-31 12 -54 28l35 60h10q18 -13 41 -23q20 -8 47.5 -15t61.5 -7q68 0 104 33.5t36 86.5q0 40 -24 65.5t-60 45t-78.5 37t-78.5 42t-60 60t-24 90.5q0 41 14.5 76t41.5 60.5t66 39.5t88 14zM370 900l-90 -150h-65l45 150h110z" />
    <glyph glyph-name="sacute" unicode="&#x15b;" horiz-adv-x="460" 
d="M35 0zM220 -10q-45 0 -80 8t-58 19q-27 12 -47 28l35 60h10q15 -13 35 -23q17 -8 41 -15t54 -7q64 0 89.5 20t25.5 50q0 27 -20.5 43.5t-52 28.5t-67.5 23t-67.5 28t-52 43t-20.5 69q0 64 46 104.5t144 40.5q42 0 74 -8.5t55 -19.5q26 -12 46 -27l-35 -60h-10
q-16 12 -34 22q-16 8 -38 15.5t-48 7.5q-53 0 -76.5 -19.5t-23.5 -45.5q0 -27 20.5 -43.5t52 -28.5t67.5 -23t67.5 -28t52 -43.5t20.5 -68.5q0 -34 -11.5 -61.5t-36.5 -47t-64 -30.5t-93 -11zM337 700l-90 -150h-65l45 150h110z" />
    <glyph glyph-name="Scedilla" unicode="&#x15e;" horiz-adv-x="505" 
d="M35 0zM255 710q49 0 85 -8.5t61 -19.5q28 -12 49 -27l-35 -60h-10q-15 12 -36 22q-18 8 -44 15.5t-60 7.5q-26 0 -48 -9t-38 -24t-25 -35t-9 -42q0 -40 24 -65.5t60 -45t78.5 -37t78.5 -42t60 -60t24 -90.5q0 -45 -15 -82t-44 -63t-72 -40.5t-99 -14.5q-49 0 -87 8
t-64 19q-31 12 -54 28l35 60h10q18 -13 41 -23q20 -8 47.5 -15t61.5 -7q68 0 104 33.5t36 86.5q0 40 -24 65.5t-60 45t-78.5 37t-78.5 42t-60 60t-24 90.5q0 41 14.5 76t41.5 60.5t66 39.5t88 14zM260 -30q42 0 66 -23t24 -57t-25 -57t-70 -23q-19 0 -33.5 3t-25.5 7
q-12 4 -21 10l16 40h9q-1 0 12.5 -7.5t32.5 -7.5t29.5 10t10.5 25t-11 25t-34 10h-40v95h60v-50z" />
    <glyph glyph-name="scedilla" unicode="&#x15f;" horiz-adv-x="460" 
d="M35 0zM220 -10q-45 0 -80 8t-58 19q-27 12 -47 28l35 60h10q15 -13 35 -23q17 -8 41 -15t54 -7q64 0 89.5 20t25.5 50q0 27 -20.5 43.5t-52 28.5t-67.5 23t-67.5 28t-52 43t-20.5 69q0 64 46 104.5t144 40.5q42 0 74 -8.5t55 -19.5q26 -12 46 -27l-35 -60h-10
q-16 12 -34 22q-16 8 -38 15.5t-48 7.5q-53 0 -76.5 -19.5t-23.5 -45.5q0 -27 20.5 -43.5t52 -28.5t67.5 -23t67.5 -28t52 -43.5t20.5 -68.5q0 -34 -11.5 -61.5t-36.5 -47t-64 -30.5t-93 -11zM247 -30q42 0 66 -23t24 -57t-25 -57t-70 -23q-19 0 -33.5 3t-25.5 7
q-12 4 -21 10l16 40h9q-1 0 12.5 -7.5t32.5 -7.5t29.5 10t10.5 25t-11 25t-34 10h-40v95h60v-50z" />
    <glyph glyph-name="Scaron" unicode="&#x160;" horiz-adv-x="505" 
d="M35 0zM255 710q49 0 85 -8.5t61 -19.5q28 -12 49 -27l-35 -60h-10q-15 12 -36 22q-18 8 -44 15.5t-60 7.5q-26 0 -48 -9t-38 -24t-25 -35t-9 -42q0 -40 24 -65.5t60 -45t78.5 -37t78.5 -42t60 -60t24 -90.5q0 -45 -15 -82t-44 -63t-72 -40.5t-99 -14.5q-49 0 -87 8
t-64 19q-31 12 -54 28l35 60h10q18 -13 41 -23q20 -8 47.5 -15t61.5 -7q68 0 104 33.5t36 86.5q0 40 -24 65.5t-60 45t-78.5 37t-78.5 42t-60 60t-24 90.5q0 41 14.5 76t41.5 60.5t66 39.5t88 14zM217 760l-105 130h65l75 -65l75 65h65l-105 -130h-70z" />
    <glyph glyph-name="scaron" unicode="&#x161;" horiz-adv-x="460" 
d="M35 0zM220 -10q-45 0 -80 8t-58 19q-27 12 -47 28l35 60h10q15 -13 35 -23q17 -8 41 -15t54 -7q64 0 89.5 20t25.5 50q0 27 -20.5 43.5t-52 28.5t-67.5 23t-67.5 28t-52 43t-20.5 69q0 64 46 104.5t144 40.5q42 0 74 -8.5t55 -19.5q26 -12 46 -27l-35 -60h-10
q-16 12 -34 22q-16 8 -38 15.5t-48 7.5q-53 0 -76.5 -19.5t-23.5 -45.5q0 -27 20.5 -43.5t52 -28.5t67.5 -23t67.5 -28t52 -43.5t20.5 -68.5q0 -34 -11.5 -61.5t-36.5 -47t-64 -30.5t-93 -11zM195 560l-105 130h65l75 -65l75 65h65l-105 -130h-70z" />
    <glyph glyph-name="Tcommaaccent" unicode="&#x162;" horiz-adv-x="480" 
d="M10 0zM190 0v630h-180v70h460v-70h-180v-630h-100zM185 -114q0 23 15.5 39t34.5 16q26 0 43 -17.5t17 -46.5q0 -40 -12.5 -68.5t-27.5 -47.5q-18 -22 -40 -36l-30 31q14 10 25 22q9 11 17 24.5t8 28.5q-19 0 -34.5 16t-15.5 39z" />
    <glyph glyph-name="tcommaaccent" unicode="&#x163;" horiz-adv-x="400" 
d="M20 0zM195 150q0 -45 20.5 -67.5t54.5 -22.5q17 0 32 6t27 14q14 9 26 20h10l35 -60q-18 -14 -40 -25q-19 -10 -44.5 -17.5t-55.5 -7.5q-38 0 -68 11.5t-52 32.5t-33.5 50.5t-11.5 65.5v280h-75v60l130 130h45v-120h125v-70h-125v-280zM190 -114q0 23 15.5 39t34.5 16
q26 0 43 -17.5t17 -46.5q0 -40 -12.5 -68.5t-27.5 -47.5q-18 -22 -40 -36l-30 31q14 10 25 22q9 11 17 24.5t8 28.5q-19 0 -34.5 16t-15.5 39z" />
    <glyph glyph-name="Tcaron" unicode="&#x164;" horiz-adv-x="480" 
d="M10 0zM190 0v630h-180v70h460v-70h-180v-630h-100zM205 760l-105 130h65l75 -65l75 65h65l-105 -130h-70z" />
    <glyph glyph-name="tcaron" unicode="&#x165;" horiz-adv-x="480" 
d="M360 565q0 23 15.5 39t34.5 16q26 0 43 -17.5t17 -46.5q0 -40 -12.5 -68.5t-27.5 -47.5q-18 -22 -40 -36l-30 31q14 10 25 22q9 11 17 24.5t8 28.5q-19 0 -34.5 16t-15.5 39zM195 150q0 -45 20.5 -67.5t54.5 -22.5q17 0 32 6t27 14q14 9 26 20h10l35 -60q-18 -14 -40 -25
q-19 -10 -44.5 -17.5t-55.5 -7.5q-38 0 -68 11.5t-52 32.5t-33.5 50.5t-11.5 65.5v280h-75v60l130 130h45v-120h125v-70h-125v-280z" />
    <glyph glyph-name="Umacron" unicode="&#x16a;" horiz-adv-x="620" 
d="M85 0zM310 60q57 0 91 38.5t34 121.5v480h100v-480q0 -113 -58 -171.5t-167 -58.5t-167 58.5t-58 171.5v480h100v-480q0 -83 34 -121.5t91 -38.5zM445 850v-70h-270v70h270z" />
    <glyph glyph-name="umacron" unicode="&#x16b;" horiz-adv-x="550" 
d="M75 0zM270 65q23 0 42 9.5t33 20.5q17 13 30 30v375h100v-500h-70l-10 60h-5q-14 -20 -35 -35q-18 -14 -45 -24.5t-65 -10.5t-69 12.5t-53.5 35t-35 53.5t-12.5 69v340h100v-340q0 -42 26.5 -68.5t68.5 -26.5zM410 651v-70h-270v70h270z" />
    <glyph glyph-name="Uring" unicode="&#x16e;" horiz-adv-x="620" 
d="M85 0zM310 60q57 0 91 38.5t34 121.5v480h100v-480q0 -113 -58 -171.5t-167 -58.5t-167 58.5t-58 171.5v480h100v-480q0 -83 34 -121.5t91 -38.5zM310 870q-15 0 -27.5 -11t-12.5 -34t12.5 -34t27.5 -11t27.5 11t12.5 34t-12.5 34t-27.5 11zM310 920q45 0 72.5 -26.5
t27.5 -68.5t-27.5 -68.5t-72.5 -26.5t-72.5 26.5t-27.5 68.5t27.5 68.5t72.5 26.5z" />
    <glyph glyph-name="uring" unicode="&#x16f;" horiz-adv-x="550" 
d="M75 0zM270 65q23 0 42 9.5t33 20.5q17 13 30 30v375h100v-500h-70l-10 60h-5q-14 -20 -35 -35q-18 -14 -45 -24.5t-65 -10.5t-69 12.5t-53.5 35t-35 53.5t-12.5 69v340h100v-340q0 -42 26.5 -68.5t68.5 -26.5zM275 690q-15 0 -27.5 -11t-12.5 -34t12.5 -34t27.5 -11
t27.5 11t12.5 34t-12.5 34t-27.5 11zM275 740q45 0 72.5 -26.5t27.5 -68.5t-27.5 -68.5t-72.5 -26.5t-72.5 26.5t-27.5 68.5t27.5 68.5t72.5 26.5z" />
    <glyph glyph-name="Uhungarumlaut" unicode="&#x170;" horiz-adv-x="620" 
d="M85 0zM310 60q57 0 91 38.5t34 121.5v480h100v-480q0 -113 -58 -171.5t-167 -58.5t-167 58.5t-58 171.5v480h100v-480q0 -83 34 -121.5t91 -38.5zM352 890l-85 -150h-55l45 150h95zM487 890l-85 -150h-55l45 150h95z" />
    <glyph glyph-name="uhungarumlaut" unicode="&#x171;" horiz-adv-x="550" 
d="M75 0zM270 65q23 0 42 9.5t33 20.5q17 13 30 30v375h100v-500h-70l-10 60h-5q-14 -20 -35 -35q-18 -14 -45 -24.5t-65 -10.5t-69 12.5t-53.5 35t-35 53.5t-12.5 69v340h100v-340q0 -42 26.5 -68.5t68.5 -26.5zM317 691l-85 -150h-55l45 150h95zM452 691l-85 -150h-55
l45 150h95z" />
    <glyph glyph-name="Uogonek" unicode="&#x172;" horiz-adv-x="620" 
d="M85 0zM310 60q57 0 91 38.5t34 121.5v480h100v-480q0 -113 -58 -171.5t-167 -58.5t-167 58.5t-58 171.5v480h100v-480q0 -83 34 -121.5t91 -38.5zM340 -100q11 0 21.5 3.5t18 7.5t12 7.5l4.5 3.5h9v-52q-9 -8 -21 -13q-11 -5 -25.5 -8.5t-33.5 -3.5q-45 0 -67.5 20.5
t-22.5 54.5q0 17 7.5 31.5t17.5 25.5q11 12 25 23h70q-14 -8 -25 -19q-10 -9 -17.5 -21t-7.5 -25q0 -15 10 -25t25 -10z" />
    <glyph glyph-name="uogonek" unicode="&#x173;" horiz-adv-x="545" 
d="M75 0zM270 65q23 0 42 9.5t33 20.5q17 13 30 30v375h100v-500h-70l-10 60h-5q-14 -20 -35 -35q-18 -14 -45 -24.5t-65 -10.5t-69 12.5t-53.5 35t-35 53.5t-12.5 69v340h100v-340q0 -42 26.5 -68.5t68.5 -26.5zM465 -100q11 0 21.5 3.5t18 7.5t12 7.5l4.5 3.5h9v-52
q-9 -8 -21 -13q-11 -5 -25.5 -8.5t-33.5 -3.5q-45 0 -67.5 20.5t-22.5 54.5q0 17 7.5 31.5t17.5 25.5q11 12 25 23h70q-14 -8 -25 -19q-10 -9 -17.5 -21t-7.5 -25q0 -15 10 -25t25 -10z" />
    <glyph glyph-name="Ydieresis" unicode="&#x178;" horiz-adv-x="530" 
d="M0 0zM425 700h105l-215 -470v-230h-100v230l-215 470h105l140 -305q4 -10 7.5 -20t5.5 -19q3 -11 5 -21h4q2 10 5 21q2 9 5 19t8 20zM230 820q0 -24 -15.5 -39.5t-39.5 -15.5t-39.5 15.5t-15.5 39.5t15.5 39.5t39.5 15.5t39.5 -15.5t15.5 -39.5zM405 820
q0 -24 -15.5 -39.5t-39.5 -15.5t-39.5 15.5t-15.5 39.5t15.5 39.5t39.5 15.5t39.5 -15.5t15.5 -39.5z" />
    <glyph glyph-name="Zacute" unicode="&#x179;" horiz-adv-x="485" 
d="M25 0zM25 0v75l310 555h-310v70h430v-75l-310 -555h315v-70h-435zM350 900l-90 -150h-65l45 150h110z" />
    <glyph glyph-name="zacute" unicode="&#x17a;" horiz-adv-x="440" 
d="M35 0zM35 0v75l245 355h-245v70h365v-75l-245 -355h250v-70h-370zM327 700l-90 -150h-65l45 150h110z" />
    <glyph glyph-name="Zdotaccent" unicode="&#x17b;" horiz-adv-x="485" 
d="M25 0zM25 0v75l310 555h-310v70h430v-75l-310 -555h315v-70h-435zM302 820q0 -26 -17 -43t-43 -17t-43 17t-17 43t17 43t43 17t43 -17t17 -43z" />
    <glyph glyph-name="zdotaccent" unicode="&#x17c;" horiz-adv-x="440" 
d="M35 0zM35 0v75l245 355h-245v70h365v-75l-245 -355h250v-70h-370zM280 620q0 -26 -17 -43t-43 -17t-43 17t-17 43t17 43t43 17t43 -17t17 -43z" />
    <glyph glyph-name="Zcaron" unicode="&#x17d;" horiz-adv-x="485" 
d="M25 0zM25 0v75l310 555h-310v70h430v-75l-310 -555h315v-70h-435zM207 760l-105 130h65l75 -65l75 65h65l-105 -130h-70z" />
    <glyph glyph-name="zcaron" unicode="&#x17e;" horiz-adv-x="440" 
d="M35 0zM35 0v75l245 355h-245v70h365v-75l-245 -355h250v-70h-370zM185 560l-105 130h65l75 -65l75 65h65l-105 -130h-70z" />
    <glyph glyph-name="florin" unicode="&#x192;" horiz-adv-x="391" 
d="M127 430h-65l6 70h65l4 50q6 72 52 116t127 44q32 0 58 -8.5t44 -19.5q21 -12 38 -27l-41 -60h-10q-12 12 -26 22q-12 8 -27 15.5t-32 7.5q-34 0 -57 -22.5t-26 -67.5l-4 -50h135l-6 -70h-135l-43 -470q-7 -72 -53.5 -116t-124.5 -44q-23 0 -40 4.5t-30 10.5
q-15 6 -26 15l31 65h10q7 -8 15 -13q7 -5 16 -8.5t20 -3.5q35 0 56.5 22.5t25.5 67.5z" />
    <glyph glyph-name="Scommaaccent" unicode="&#x218;" horiz-adv-x="505" 
d="M35 0zM255 710q49 0 85 -8.5t61 -19.5q28 -12 49 -27l-35 -60h-10q-15 12 -36 22q-18 8 -44 15.5t-60 7.5q-26 0 -48 -9t-38 -24t-25 -35t-9 -42q0 -40 24 -65.5t60 -45t78.5 -37t78.5 -42t60 -60t24 -90.5q0 -45 -15 -82t-44 -63t-72 -40.5t-99 -14.5q-49 0 -87 8
t-64 19q-31 12 -54 28l35 60h10q18 -13 41 -23q20 -8 47.5 -15t61.5 -7q68 0 104 33.5t36 86.5q0 40 -24 65.5t-60 45t-78.5 37t-78.5 42t-60 60t-24 90.5q0 41 14.5 76t41.5 60.5t66 39.5t88 14zM205 -109q0 23 15.5 39t34.5 16q26 0 43 -17.5t17 -46.5q0 -40 -12.5 -68.5
t-27.5 -47.5q-18 -22 -40 -36l-30 31q14 10 25 22q9 11 17 24.5t8 28.5q-19 0 -34.5 16t-15.5 39z" />
    <glyph glyph-name="scommaaccent" unicode="&#x219;" horiz-adv-x="460" 
d="M35 0zM220 -10q-45 0 -80 8t-58 19q-27 12 -47 28l35 60h10q15 -13 35 -23q17 -8 41 -15t54 -7q64 0 89.5 20t25.5 50q0 27 -20.5 43.5t-52 28.5t-67.5 23t-67.5 28t-52 43t-20.5 69q0 64 46 104.5t144 40.5q42 0 74 -8.5t55 -19.5q26 -12 46 -27l-35 -60h-10
q-16 12 -34 22q-16 8 -38 15.5t-48 7.5q-53 0 -76.5 -19.5t-23.5 -45.5q0 -27 20.5 -43.5t52 -28.5t67.5 -23t67.5 -28t52 -43.5t20.5 -68.5q0 -34 -11.5 -61.5t-36.5 -47t-64 -30.5t-93 -11zM185 -109q0 23 15.5 39t34.5 16q26 0 43 -17.5t17 -46.5q0 -40 -12.5 -68.5
t-27.5 -47.5q-18 -22 -40 -36l-30 31q14 10 25 22q9 11 17 24.5t8 28.5q-19 0 -34.5 16t-15.5 39z" />
    <glyph glyph-name="circumflex" unicode="&#x2c6;" horiz-adv-x="320" 
d="M195 690l105 -130h-65l-75 65l-75 -65h-65l105 130h70z" />
    <glyph glyph-name="caron" unicode="&#x2c7;" horiz-adv-x="320" 
d="M125 560l-105 130h65l75 -65l75 65h65l-105 -130h-70z" />
    <glyph glyph-name="breve" unicode="&#x2d8;" horiz-adv-x="320" 
d="M160 620q30 0 45 16t15 54h90q0 -60 -37.5 -95t-112.5 -35t-112.5 35t-37.5 95h90q0 -38 15 -54t45 -16z" />
    <glyph glyph-name="dotaccent" unicode="&#x2d9;" horiz-adv-x="140" 
d="M130 620q0 -26 -17 -43t-43 -17t-43 17t-17 43t17 43t43 17t43 -17t17 -43z" />
    <glyph glyph-name="ring" unicode="&#x2da;" horiz-adv-x="220" 
d="M110 680q-15 0 -27.5 -11t-12.5 -34t12.5 -34t27.5 -11t27.5 11t12.5 34t-12.5 34t-27.5 11zM110 730q45 0 72.5 -26.5t27.5 -68.5t-27.5 -68.5t-72.5 -26.5t-72.5 26.5t-27.5 68.5t27.5 68.5t72.5 26.5z" />
    <glyph glyph-name="ogonek" unicode="&#x2db;" horiz-adv-x="190" 
d="M115 -100q11 0 21.5 3.5t18 7.5t12 7.5l4.5 3.5h9v-52q-9 -8 -21 -13q-11 -5 -25.5 -8.5t-33.5 -3.5q-45 0 -67.5 20.5t-22.5 54.5q0 17 7.5 31.5t17.5 25.5q11 12 25 23h70q-14 -8 -25 -19q-10 -9 -17.5 -21t-7.5 -25q0 -15 10 -25t25 -10z" />
    <glyph glyph-name="tilde" unicode="&#x2dc;" horiz-adv-x="295" 
d="M245 690l40 -25q-11 -34 -32 -59.5t-58 -25.5q-19 0 -31 7t-21.5 15.5t-18 15.5t-19.5 7t-20 -6.5t-15 -14t-8.5 -13.5l-2.5 -6h-9l-40 25q6 17 13.5 32.5t18.5 27t25 18.5t33 7t31 -7t21.5 -15.5t18 -15.5t19.5 -7t20 6t15 13.5t8.5 14l2.5 6.5h9z" />
    <glyph glyph-name="hungarumlaut" unicode="&#x2dd;" horiz-adv-x="295" 
d="M150 700l-85 -150h-55l45 150h95zM285 700l-85 -150h-55l45 150h95z" />
    <glyph glyph-name="afii10023" unicode="&#x401;" 
d="M90 0v700h390v-70h-290v-230h230v-70h-230v-260h290v-70h-390zM250 820q0 -24 -15.5 -39.5t-39.5 -15.5t-39.5 15.5t-15.5 39.5t15.5 39.5t39.5 15.5t39.5 -15.5t15.5 -39.5zM435 820q0 -24 -15.5 -39.5t-39.5 -15.5t-39.5 15.5t-15.5 39.5t15.5 39.5t39.5 15.5
t39.5 -15.5t15.5 -39.5z" />
    <glyph glyph-name="afii10051" unicode="&#x402;" horiz-adv-x="640" 
d="M590 130q0 -36 -11.5 -65.5t-32 -50.5t-49 -32.5t-62.5 -11.5q-17 0 -32 2t-27 5q-14 4 -26 8l10 65h10q7 -3 15 -5q15 -5 30 -5q34 0 54.5 22.5t20.5 67.5v125q0 57 -35.5 91t-99.5 34q-25 0 -45.5 -2.5t-36.5 -5.5q-18 -4 -33 -7v-365h-100v630h-140v70h420v-70h-180
v-195q18 3 40 7q19 3 44.5 5.5t55.5 2.5q49 0 88 -14.5t66 -40t41.5 -61.5t14.5 -79v-125z" />
    <glyph glyph-name="afii10052" unicode="&#x403;" horiz-adv-x="490" 
d="M90 0v700h390v-70h-290v-630h-100zM405 900l-90 -150h-65l45 150h110z" />
    <glyph glyph-name="afii10053" unicode="&#x404;" horiz-adv-x="515" 
d="M55 350q0 97 18 165.5t51 112t79 63t102 19.5q42 0 74 -8.5t55 -19.5q26 -12 46 -27l-35 -60h-10q-16 12 -34 22q-16 8 -38 15.5t-48 7.5q-32 0 -59.5 -12.5t-48.5 -41.5t-34.5 -77t-16.5 -119h234v-70h-235q2 -73 15.5 -123t36 -80.5t52.5 -43.5t66 -13q26 0 48 7t38 15
q18 10 34 23h10l35 -60q-20 -16 -46 -28q-23 -11 -55 -19t-74 -8q-60 0 -108 19.5t-82 63t-52 111.5t-18 166z" />
    <glyph glyph-name="afii10054" unicode="&#x405;" horiz-adv-x="505" 
d="M255 710q49 0 85 -8.5t61 -19.5q28 -12 49 -27l-35 -60h-10q-15 12 -36 22q-18 8 -44 15.5t-60 7.5q-26 0 -48 -9t-38 -24t-25 -35t-9 -42q0 -40 24 -65.5t60 -45t78.5 -37t78.5 -42t60 -60t24 -90.5q0 -45 -15 -82t-44 -63t-72 -40.5t-99 -14.5q-49 0 -87 8t-64 19
q-31 12 -54 28l35 60h10q18 -13 41 -23q20 -8 47.5 -15t61.5 -7q68 0 104 33.5t36 86.5q0 40 -24 65.5t-60 45t-78.5 37t-78.5 42t-60 60t-24 90.5q0 41 14.5 76t41.5 60.5t66 39.5t88 14z" />
    <glyph glyph-name="afii10055" unicode="&#x406;" horiz-adv-x="280" 
d="M90 700h100v-700h-100v700z" />
    <glyph glyph-name="afii10056" unicode="&#x407;" horiz-adv-x="250" 
d="M80 700h100v-700h-100v700zM95 840q0 -26 -17 -43t-43 -17t-43 17t-17 43t17 43t43 17t43 -17t17 -43zM275 840q0 -26 -17 -43t-43 -17t-43 17t-17 43t17 43t43 17t43 -17t17 -43z" />
    <glyph glyph-name="afii10057" unicode="&#x408;" horiz-adv-x="425" 
d="M125 60q57 0 86 31t29 99v510h100v-510q0 -98 -51.5 -149t-153.5 -51q-30 0 -55 7t-43 15q-21 10 -37 23l30 65h10q12 -11 26 -20q12 -8 27 -14t32 -6z" />
    <glyph glyph-name="afii10058" unicode="&#x409;" horiz-adv-x="881" 
d="M601 440q125 0 185 -57t60 -163t-60 -163t-185 -57h-191v630h-185l-25 -470q-5 -87 -41.5 -128.5t-93.5 -41.5q-22 0 -39 5q-9 2 -16 5l5 65h10q2 -2 6 -3q8 -2 14 -2q19 0 35.5 22t19.5 78l30 540h381v-260h90zM511 370v-300h90q145 0 145 150t-145 150h-90z" />
    <glyph glyph-name="afii10059" unicode="&#x40a;" horiz-adv-x="900" 
d="M620 420q124 0 184.5 -56.5t60.5 -153.5q0 -98 -60.5 -154t-184.5 -56h-190v350h-240v-350h-100v700h100v-280h240v280h100v-280h90zM530 350v-280h90q72 0 108.5 36t36.5 104t-36.5 104t-108.5 36h-90z" />
    <glyph glyph-name="afii10060" unicode="&#x40b;" horiz-adv-x="650" 
d="M240 0h-100v630h-140v70h420v-70h-180v-195q18 3 40 7q19 3 44.5 5.5t55.5 2.5q49 0 88 -14.5t66 -40t41.5 -61.5t14.5 -79v-255h-100v255q0 57 -35.5 91t-99.5 34q-25 0 -45.5 -2.5t-36.5 -5.5q-18 -4 -33 -7v-365z" />
    <glyph glyph-name="afii10061" unicode="&#x40c;" horiz-adv-x="585" 
d="M405 890l-90 -150h-65l45 150h110zM350 365q23 -6 43 -18q17 -11 33 -30.5t24 -51.5l35 -160q10 -45 40 -45q6 0 14 2q4 1 6 3h5l10 -65q-6 -3 -15 -5q-17 -5 -45 -5q-49 0 -77 27.5t-38 72.5l-35 160q-8 34 -30 54.5t-60 20.5h-70v-325h-100v700h100v-305h60
q42 0 65.5 20.5t29.5 54.5l25 140q8 45 37 72.5t78 27.5q15 0 26 -1.5t19 -3.5l15 -5l-10 -65h-5q-2 1 -6 2q-3 1 -6.5 2t-7.5 1q-15 0 -25.5 -11t-14.5 -34l-25 -140q-5 -30 -20.5 -48t-32.5 -27q-19 -11 -42 -15z" />
    <glyph glyph-name="afii10062" unicode="&#x40e;" horiz-adv-x="536" 
d="M271 800q30 0 45 16t15 54h90q0 -60 -37.5 -95t-112.5 -35t-112.5 35t-37.5 95h90q0 -38 15 -54t45 -16zM261 335q4 -10 8 -22.5t7 -24.5l7 -28h4q2 14 6 28q3 11 6.5 24t6.5 23l120 365h100l-185 -575q-9 -28 -25.5 -53.5t-39 -44.5t-50.5 -30.5t-60 -11.5
q-25 0 -44 4.5t-33 10.5q-16 6 -28 15l25 65h10q7 -8 17 -13q8 -5 18.5 -8.5t24.5 -3.5q30 0 52.5 20t32.5 50l20 60h-45l-206 515h105z" />
    <glyph glyph-name="afii10145" unicode="&#x40f;" horiz-adv-x="630" 
d="M90 0v700h100v-630h250v630h100v-700h-175l-10 -150h-80l-10 150h-175z" />
    <glyph glyph-name="afii10017" unicode="&#x410;" horiz-adv-x="570" 
d="M455 0l-55 180h-230l-55 -180h-100l205 700h130l205 -700h-100zM190 250h190l-80 275q-4 11 -6 23.5t-4 23.5q-2 12 -3 23h-4q-1 -12 -3 -24q-2 -11 -4.5 -23t-5.5 -23z" />
    <glyph glyph-name="afii10018" unicode="&#x411;" horiz-adv-x="570" 
d="M280 420q124 0 184.5 -56.5t60.5 -153.5q0 -98 -60.5 -154t-184.5 -56h-190v700h390v-70h-290v-210h90zM190 350v-280h90q72 0 108.5 36t36.5 104t-36.5 104t-108.5 36h-90z" />
    <glyph glyph-name="afii10019" unicode="&#x412;" horiz-adv-x="575" 
d="M385 370q39 -9 70 -32q13 -10 25.5 -23.5t22.5 -31.5t16 -41t6 -52q0 -43 -14.5 -78t-44.5 -60t-76 -38.5t-110 -13.5h-190v700h190q54 0 95.5 -13.5t69 -36.5t41.5 -55.5t14 -69.5q0 -49 -18 -79t-40 -47q-26 -20 -57 -29zM190 400h90q57 0 88.5 31t31.5 84t-31.5 84
t-88.5 31h-90v-230zM190 330v-260h90q75 0 110 33t35 97t-35 97t-110 33h-90z" />
    <glyph glyph-name="afii10020" unicode="&#x413;" horiz-adv-x="490" 
d="M90 0v700h390v-70h-290v-630h-100z" />
    <glyph glyph-name="afii10021" unicode="&#x414;" horiz-adv-x="620" 
d="M515 700v-630h65v-220h-80l-15 150h-375l-15 -150h-85v220h50q14 17 25 43q10 22 18.5 55.5t11.5 81.5l25 450h375zM415 70v560h-180l-20 -380q-3 -48 -11.5 -81.5t-18.5 -55.5q-11 -26 -25 -43h255z" />
    <glyph glyph-name="afii10022" unicode="&#x415;" 
d="M90 0v700h390v-70h-290v-230h230v-70h-230v-260h290v-70h-390z" />
    <glyph glyph-name="afii10024" unicode="&#x416;" horiz-adv-x="860" 
d="M480 395h45q42 0 65.5 20.5t29.5 54.5l25 140q8 45 37 72.5t78 27.5q15 0 26 -1.5t19 -3.5l15 -5l-10 -65h-5q-2 1 -6 2q-3 1 -6.5 2t-7.5 1q-15 0 -25.5 -11t-14.5 -34l-25 -140q-5 -30 -21.5 -48t-33.5 -27q-20 -11 -45 -15q24 -6 45 -18q18 -11 35 -30.5t25 -51.5
l35 -160q10 -45 40 -45q6 0 14 2q4 1 6 3h5l10 -65q-6 -3 -15 -5q-17 -5 -45 -5q-49 0 -77 27.5t-38 72.5l-35 160q-8 34 -30 54.5t-60 20.5h-55v-325h-100v325h-55q-38 0 -60 -20.5t-30 -54.5l-35 -160q-10 -45 -38 -72.5t-77 -27.5q-28 0 -45 5q-9 2 -15 5l10 65h5
q2 -2 6 -3q8 -2 14 -2q29 0 40 45l35 160q7 32 24.5 51.5t35.5 30.5q21 12 45 18q-25 4 -45 15q-17 9 -33.5 27t-21.5 48l-25 140q-8 45 -40 45q-4 0 -7.5 -1t-6.5 -2q-4 -1 -6 -2h-5l-10 65l15 5q8 2 19 3.5t26 1.5q49 0 78 -27.5t37 -72.5l25 -140q6 -34 29.5 -54.5
t65.5 -20.5h45v305h100v-305z" />
    <glyph glyph-name="afii10025" unicode="&#x417;" horiz-adv-x="520" 
d="M215 640q-30 0 -54 -7.5t-41 -15.5q-20 -10 -35 -22h-10l-35 60q20 15 47 27q23 11 58 19.5t80 8.5q56 0 99 -14t72 -38.5t44 -57.5t15 -70q0 -49 -20 -80t-43 -49q-27 -21 -62 -31q39 -10 70 -33q13 -10 25.5 -23.5t22.5 -32t16 -42.5t6 -54q0 -43 -15 -79t-46.5 -61.5
t-79.5 -40t-114 -14.5q-49 0 -85.5 8t-60.5 19q-29 12 -49 28l35 60h10q15 -13 36 -23q18 -8 44 -15t60 -7q87 0 126 35.5t39 99.5t-36.5 99.5t-108.5 35.5h-90v70h90q60 0 95 33.5t35 86.5t-36 86.5t-104 33.5z" />
    <glyph glyph-name="afii10026" unicode="&#x418;" horiz-adv-x="630" 
d="M190 0h-100v700h100v-445q0 -11 -0.5 -26t-1.5 -28q-1 -16 -2 -31h4q4 15 9 31q5 13 10 28t11 26l220 445h100v-700h-100v445q0 11 0.5 25.5t1.5 28.5q1 15 2 31h-4q-4 -16 -9 -31q-5 -14 -10.5 -28.5t-10.5 -25.5z" />
    <glyph glyph-name="afii10027" unicode="&#x419;" horiz-adv-x="630" 
d="M190 0h-100v700h100v-445q0 -11 -0.5 -26t-1.5 -28q-1 -16 -2 -31h4q4 15 9 31q5 13 10 28t11 26l220 445h100v-700h-100v445q0 11 0.5 25.5t1.5 28.5q1 15 2 31h-4q-4 -16 -9 -31q-5 -14 -10.5 -28.5t-10.5 -25.5zM315 810q30 0 45 16t15 54h90q0 -60 -37.5 -95
t-112.5 -35t-112.5 35t-37.5 95h90q0 -38 15 -54t45 -16z" />
    <glyph glyph-name="afii10028" unicode="&#x41a;" horiz-adv-x="585" 
d="M345 365q24 -6 45 -18q18 -11 35 -30.5t25 -51.5l35 -160q10 -45 40 -45q6 0 14 2q4 1 6 3h5l10 -65q-6 -3 -15 -5q-17 -5 -45 -5q-49 0 -77 27.5t-38 72.5l-35 160q-8 34 -30 54.5t-60 20.5h-70v-325h-100v700h100v-305h60q42 0 65.5 20.5t29.5 54.5l25 140
q8 45 37 72.5t78 27.5q15 0 26 -1.5t19 -3.5l15 -5l-10 -65h-5q-2 1 -6 2q-3 1 -6.5 2t-7.5 1q-15 0 -25.5 -11t-14.5 -34l-25 -140q-5 -30 -21.5 -48t-33.5 -27q-20 -11 -45 -15z" />
    <glyph glyph-name="afii10029" unicode="&#x41b;" horiz-adv-x="610" 
d="M45 60q19 0 35.5 22t19.5 78l30 540h390v-700h-100v630h-195l-25 -470q-5 -87 -41.5 -128.5t-93.5 -41.5q-22 0 -39 5q-9 2 -16 5l5 65h10q2 -2 6 -3q8 -2 14 -2z" />
    <glyph glyph-name="afii10030" unicode="&#x41c;" horiz-adv-x="840" 
d="M400 275q4 -6 7.5 -14.5t5.5 -16.5q3 -10 5 -19h4q2 9 5 19q2 8 5.5 16.5t7.5 14.5l210 425h100v-700h-100v420q0 11 0.5 25.5t1.5 28.5q1 15 2 31h-4q-4 -16 -9 -31q-5 -14 -10.5 -28.5t-10.5 -25.5l-150 -295h-100l-150 295q-6 11 -11 25.5t-10 28.5q-5 15 -9 31h-4
q1 -16 2 -31q1 -14 1.5 -28.5t0.5 -25.5v-420h-100v700h100z" />
    <glyph glyph-name="afii10031" unicode="&#x41d;" horiz-adv-x="630" 
d="M540 700v-700h-100v320h-250v-320h-100v700h100v-310h250v310h100z" />
    <glyph glyph-name="afii10032" unicode="&#x41e;" horiz-adv-x="600" 
d="M155 350q0 -83 12 -138.5t32.5 -89t46.5 -48t54 -14.5t54 14.5t46.5 48t32.5 89t12 138.5q0 82 -12 138t-32.5 89.5t-46.5 48t-54 14.5t-54 -14.5t-46.5 -48t-32.5 -89.5t-12 -138zM545 350q0 -98 -18 -166t-50 -111.5t-77.5 -63t-99.5 -19.5t-99.5 19.5t-77.5 63
t-50 111.5t-18 166q0 97 18 165.5t50 112t77.5 63t99.5 19.5t99.5 -19.5t77.5 -63t50 -112t18 -165.5z" />
    <glyph glyph-name="afii10033" unicode="&#x41f;" horiz-adv-x="630" 
d="M540 700v-700h-100v630h-250v-630h-100v700h450z" />
    <glyph glyph-name="afii10034" unicode="&#x420;" horiz-adv-x="565" 
d="M270 310q75 0 112.5 38.5t37.5 121.5t-37.5 121.5t-112.5 38.5h-80v-320h80zM190 240v-240h-100v700h180q128 0 189 -58.5t61 -171.5t-61 -171.5t-189 -58.5h-80z" />
    <glyph glyph-name="afii10035" unicode="&#x421;" horiz-adv-x="515" 
d="M55 350q0 97 18 165.5t51 112t79 63t102 19.5q42 0 74 -8.5t55 -19.5q26 -12 46 -27l-35 -60h-10q-16 12 -34 22q-16 8 -38 15.5t-48 7.5q-34 0 -63 -14.5t-50.5 -48t-34 -89.5t-12.5 -138q0 -83 12.5 -138.5t35 -89t53.5 -48t69 -14.5q26 0 48 7t38 15q18 10 34 23h10
l35 -60q-20 -16 -46 -28q-23 -11 -55 -19t-74 -8q-60 0 -108 19.5t-82 63t-52 111.5t-18 166z" />
    <glyph glyph-name="afii10036" unicode="&#x422;" horiz-adv-x="480" 
d="M190 0v630h-180v70h460v-70h-180v-630h-100z" />
    <glyph glyph-name="afii10037" unicode="&#x423;" horiz-adv-x="536" 
d="M261 335q4 -10 8 -22.5t7 -24.5l7 -28h4q2 14 6 28q3 11 6.5 24t6.5 23l120 365h100l-185 -575q-9 -28 -25.5 -53.5t-39 -44.5t-50.5 -30.5t-60 -11.5q-25 0 -44 4.5t-33 10.5q-16 6 -28 15l25 65h10q7 -8 17 -13q8 -5 18.5 -8.5t24.5 -3.5q30 0 52.5 20t32.5 50l20 60
h-45l-206 515h105z" />
    <glyph glyph-name="afii10038" unicode="&#x424;" horiz-adv-x="770" 
d="M435 110q86 7 138 65.5t52 174.5q0 58 -13.5 101.5t-38.5 73t-60 45.5t-78 20v-480zM335 730h100v-70q140 -8 215 -85.5t75 -224.5t-75 -224.5t-215 -85.5v-70h-100v70q-140 8 -215 85.5t-75 224.5t75 224.5t215 85.5v70zM335 590q-43 -4 -78 -20t-60 -45.5t-38.5 -73
t-13.5 -101.5q0 -116 52 -174.5t138 -65.5v480z" />
    <glyph glyph-name="afii10039" unicode="&#x425;" horiz-adv-x="530" 
d="M245 475q3 -7 6.5 -14.5t5.5 -14.5l6 -16h4l6 16q2 7 5 14.5t7 14.5l115 225h110l-180 -345l185 -355h-110l-120 235q-4 6 -7 14t-5 15l-6 16h-4l-6 -16q-5 -15 -12 -29l-120 -235h-110l185 355l-180 345h110z" />
    <glyph glyph-name="afii10040" unicode="&#x426;" horiz-adv-x="635" 
d="M90 0v700h100v-630h240v630h100v-630h65v-220h-80l-15 150h-410z" />
    <glyph glyph-name="afii10041" unicode="&#x427;" horiz-adv-x="600" 
d="M410 700h100v-700h-100v275q-18 -4 -40 -8q-19 -3 -44.5 -5t-55.5 -2q-49 0 -88 14.5t-66 40t-41.5 61.5t-14.5 79v245h100v-245q0 -57 35.5 -91t99.5 -34q24 0 45 2t37 5q18 4 33 8v355z" />
    <glyph glyph-name="afii10042" unicode="&#x428;" horiz-adv-x="920" 
d="M830 0h-740v700h100v-630h220v630h100v-630h220v630h100v-700z" />
    <glyph glyph-name="afii10043" unicode="&#x429;" horiz-adv-x="935" 
d="M90 0v700h100v-630h220v630h100v-630h220v630h100v-630h65v-220h-80l-15 150h-710z" />
    <glyph glyph-name="afii10044" unicode="&#x42a;" horiz-adv-x="620" 
d="M10 700h240v-260h90q125 0 185 -57t60 -163t-60 -163t-185 -57h-190v630h-140v70zM250 370v-300h90q145 0 145 150t-145 150h-90z" />
    <glyph glyph-name="afii10045" unicode="&#x42b;" horiz-adv-x="800" 
d="M610 700h100v-700h-100v700zM270 440q125 0 185 -57t60 -163t-60 -163t-185 -57h-180v700h100v-260h80zM190 370v-300h80q145 0 145 150t-145 150h-80z" />
    <glyph glyph-name="afii10046" unicode="&#x42c;" horiz-adv-x="560" 
d="M280 440q125 0 185 -57t60 -163t-60 -163t-185 -57h-190v700h100v-260h90zM190 370v-300h90q145 0 145 150t-145 150h-90z" />
    <glyph glyph-name="afii10047" unicode="&#x42d;" horiz-adv-x="515" 
d="M460 350q0 -98 -18 -166t-52 -111.5t-82 -63t-108 -19.5q-42 0 -74 8t-55 19q-26 12 -46 28l35 60h10q16 -13 34 -23q16 -8 38 -15t48 -7q36 0 66 13t52.5 43.5t36 80.5t15.5 123h-235v70h234q-3 71 -16.5 119t-34.5 77t-48.5 41.5t-59.5 12.5q-26 0 -48 -7.5t-38 -15.5
q-18 -10 -34 -22h-10l-35 60q20 15 46 27q23 11 55 19.5t74 8.5q56 0 102 -19.5t79 -63t51 -112t18 -165.5z" />
    <glyph glyph-name="afii10048" unicode="&#x42e;" horiz-adv-x="810" 
d="M520 710q51 0 94 -19.5t74.5 -63t49 -112t17.5 -165.5q0 -98 -17.5 -166t-49 -111.5t-74.5 -63t-94 -19.5q-49 0 -90.5 18t-72 57t-49.5 102t-23 153h-95v-320h-100v700h100v-310h95q4 86 23 147t49.5 99.5t72 56t90.5 17.5zM520 60q24 0 48.5 14.5t43.5 48t31 89
t12 138.5q0 82 -12 138t-31 89.5t-43.5 48t-48.5 14.5t-48.5 -14.5t-43.5 -48t-31 -89.5t-12 -138q0 -83 12 -138.5t31 -89t43.5 -48t48.5 -14.5z" />
    <glyph glyph-name="afii10049" unicode="&#x42f;" horiz-adv-x="570" 
d="M315 270q-34 0 -57 -20.5t-33 -54.5l-30 -105q-14 -49 -42 -74.5t-73 -25.5q-28 0 -45 5q-9 2 -15 5l10 65h5q2 -2 6 -3q8 -2 14 -2q11 0 22.5 11t17.5 34l30 105q8 26 20.5 42.5t26.5 26.5q15 11 33 16q-28 4 -55 19.5t-48 40t-34 58t-13 72.5q0 102 61 158.5t189 56.5
h175v-700h-100v270h-65zM380 340v290h-75q-150 0 -150 -145t150 -145h75z" />
    <glyph glyph-name="afii10065" unicode="&#x430;" 
d="M340 320q0 60 -28 90t-77 30q-23 0 -43 -7.5t-35 -15.5q-18 -10 -32 -22h-10l-35 60q19 15 45 27q22 11 52 19.5t68 8.5q43 0 79 -14t61.5 -39.5t40 -60.5t14.5 -76v-320h-70l-10 60h-5q-14 -20 -35 -35q-18 -14 -45 -24.5t-65 -10.5q-79 0 -122 41.5t-43 113.5
q0 34 12 61.5t37.5 47t66.5 30.5t99 11h80v25zM340 225h-80q-60 0 -87.5 -23t-27.5 -57q0 -38 22.5 -59t67.5 -21q23 0 42 9.5t33 20.5q17 13 30 30v100z" />
    <glyph glyph-name="afii10066" unicode="&#x431;" horiz-adv-x="525" 
d="M330 605q-49 -9 -84 -24.5t-57.5 -41t-33 -62t-10.5 -87.5q23 38 59.5 59t85.5 21q37 0 71 -15.5t59 -46t40 -75.5t15 -103t-15 -103t-43 -75.5t-66.5 -46t-85.5 -15.5t-85.5 15.5t-66.5 46t-43 75.5t-15 103v95q0 96 15.5 160.5t47 106t80.5 64t117 34.5l140 25l15 -85z
M265 395q-45 0 -77.5 -39.5t-32.5 -125.5q0 -90 32.5 -130t77.5 -40t77.5 40t32.5 130q0 86 -32.5 125.5t-77.5 39.5z" />
    <glyph glyph-name="afii10067" unicode="&#x432;" 
d="M350 260q31 -6 57 -21q22 -14 40 -38t18 -66q0 -28 -11.5 -52.5t-36 -43t-62.5 -29t-90 -10.5h-190v500h190q45 0 78.5 -10.5t56 -28.5t34 -41.5t11.5 -49.5q0 -34 -15 -55.5t-33 -33.5q-21 -14 -47 -21zM175 430v-140h90q38 0 59 20t21 50t-21 50t-59 20h-90zM175 220
v-150h90q53 0 76.5 20.5t23.5 54.5t-23.5 54.5t-76.5 20.5h-90z" />
    <glyph glyph-name="afii10068" unicode="&#x433;" horiz-adv-x="415" 
d="M405 430h-230v-430h-100v500h330v-70z" />
    <glyph glyph-name="afii10069" unicode="&#x434;" horiz-adv-x="560" 
d="M460 500v-430h65v-210h-80l-15 140h-325l-15 -140h-85v210h50q15 16 26 39q10 20 18.5 47.5t10.5 63.5l15 280h335zM360 70v360h-140l-10 -210q-2 -36 -10.5 -63.5t-18.5 -47.5q-11 -23 -26 -39h205z" />
    <glyph glyph-name="afii10070" unicode="&#x435;" horiz-adv-x="505" 
d="M255 510q45 0 82.5 -16t65 -48.5t42.5 -81t15 -114.5v-15l-20 -20h-290q0 -79 35 -117t95 -38q23 0 42.5 7t34.5 15q18 10 33 23h10l35 -60q-19 -16 -45 -28q-22 -11 -52 -19t-68 -8q-101 0 -160.5 64.5t-59.5 195.5q0 66 15 114.5t42.5 81t65 48.5t82.5 16zM255 440
q-45 0 -75 -36t-30 -119h210q0 83 -30 119t-75 36z" />
    <glyph glyph-name="afii10072" unicode="&#x436;" horiz-adv-x="740" 
d="M615 325q-5 -21 -17 -33.5t-25 -19.5t-24 -9.5t-14 -2.5q2 0 14 -3.5t27 -11.5t29 -22.5t20 -37.5l25 -95q7 -30 30 -30q6 0 14 2q4 1 6 3h5l10 -65q-7 -3 -17 -5q-18 -5 -43 -5q-42 0 -65.5 22t-34.5 63l-25 95q-6 23 -22.5 36.5t-42.5 13.5h-45v-220h-100v220h-45
q-26 0 -42.5 -13.5t-22.5 -36.5l-25 -95q-11 -41 -34.5 -63t-65.5 -22q-25 0 -43 5q-10 2 -17 5l10 65h5q2 -2 6 -3q8 -2 14 -2q22 0 30 30l25 95q6 22 19.5 36.5t28 22.5t27 11.5t15.5 4.5q-2 0 -13 2t-24.5 9t-25.5 20t-17 34l-20 85q-8 30 -30 30q-4 0 -7.5 -1t-6.5 -2
q-4 -1 -6 -2h-5l-10 65q7 2 17 5q8 2 18.5 3.5t24.5 1.5q43 0 66.5 -21.5t33.5 -63.5l20 -85q5 -23 20.5 -36.5t44.5 -13.5h35v210h100v-210h35q29 0 44.5 13.5t20.5 36.5l20 85q10 42 33.5 63.5t66.5 21.5q13 0 24 -1.5t19 -3.5q10 -3 17 -5l-10 -65h-5q-2 1 -6 2
q-3 1 -6.5 2t-7.5 1q-23 0 -30 -30l-20 -85v0z" />
    <glyph glyph-name="afii10073" unicode="&#x437;" horiz-adv-x="450" 
d="M200 510q51 0 87.5 -10.5t60.5 -29t35.5 -43t11.5 -52.5q0 -34 -16.5 -56t-36.5 -35q-23 -16 -52 -24q31 -6 57 -22q22 -14 40 -39.5t18 -68.5q0 -30 -11.5 -55.5t-36.5 -44.5t-64 -29.5t-93 -10.5q-45 0 -80 8t-58 19q-27 12 -47 28l35 60h10q15 -13 35 -23
q17 -8 41 -15t54 -7q64 0 89.5 21t25.5 59t-23.5 59t-76.5 21h-85v70h85q45 0 67.5 20.5t22.5 54.5t-24 54.5t-81 20.5q-26 0 -47.5 -7.5t-36.5 -15.5q-18 -10 -31 -22h-10l-35 60q18 15 44 27q22 11 53 19.5t73 8.5z" />
    <glyph glyph-name="afii10074" unicode="&#x438;" horiz-adv-x="550" 
d="M175 0h-100v500h100v-285q0 -11 -0.5 -23t-1.5 -23l-2 -24h4l8 24q8 23 22 46l170 285h100v-500h-100v285q0 11 0.5 23t1.5 23l2 24h-4l-8 -24q-8 -23 -22 -46z" />
    <glyph glyph-name="afii10075" unicode="&#x439;" horiz-adv-x="550" 
d="M175 0h-100v500h100v-285q0 -11 -0.5 -23t-1.5 -23l-2 -24h4l8 24q8 23 22 46l170 285h100v-500h-100v285q0 11 0.5 23t1.5 23l2 24h-4l-8 -24q-8 -23 -22 -46zM275 610q30 0 45 16t15 54h90q0 -60 -37.5 -95t-112.5 -35t-112.5 35t-37.5 95h90q0 -38 15 -54t45 -16z" />
    <glyph glyph-name="afii10076" unicode="&#x43a;" 
d="M305 260q21 -3 39 -13q15 -8 29.5 -23t21.5 -39l25 -95q7 -30 30 -30q6 0 14 2q4 1 6 3h5l10 -65q-7 -3 -17 -5q-18 -5 -43 -5q-42 0 -65.5 22t-34.5 63l-25 95q-6 23 -22.5 36.5t-42.5 13.5h-60v-220h-100v500h100v-210h50q29 0 44.5 13.5t20.5 36.5l20 85
q10 42 33.5 63.5t66.5 21.5q13 0 24 -1.5t19 -3.5q10 -3 17 -5l-10 -65h-5q-2 1 -6 2q-3 1 -6.5 2t-7.5 1q-23 0 -30 -30l-20 -85q-5 -23 -18 -35.5t-27 -19.5q-16 -8 -35 -10z" />
    <glyph glyph-name="afii10077" unicode="&#x43b;" horiz-adv-x="540" 
d="M45 60q19 0 32.5 20t17.5 80l20 340h350v-500h-100v430h-155l-15 -270q-5 -90 -39.5 -130t-90.5 -40q-22 0 -39 5q-9 2 -16 5l5 65h10q2 -2 6 -3q8 -2 14 -2z" />
    <glyph glyph-name="afii10078" unicode="&#x43c;" horiz-adv-x="700" 
d="M300 85l-95 180q-13 24 -21 47q-5 12 -9 23h-4l2 -24q1 -11 1.5 -23t0.5 -23v-265h-100v500h105l150 -280q8 -13 13 -26q3 -7 5 -14h4q2 7 5 14q5 13 13 26l150 280h105v-500h-100v265q0 11 0.5 23t1.5 23l2 24h-4q-5 -11 -9 -23q-5 -11 -10 -23.5t-11 -23.5l-95 -180
h-100z" />
    <glyph glyph-name="afii10079" unicode="&#x43d;" horiz-adv-x="550" 
d="M475 0h-100v220h-200v-220h-100v500h100v-210h200v210h100v-500z" />
    <glyph glyph-name="afii10080" unicode="&#x43e;" horiz-adv-x="530" 
d="M480 250q0 -66 -15.5 -114.5t-43.5 -81t-67.5 -48.5t-88.5 -16q-98 0 -156.5 64.5t-58.5 195.5t58.5 195.5t156.5 64.5q49 0 88.5 -16t67.5 -48.5t43.5 -81t15.5 -114.5zM380 250q0 52 -9 88.5t-24.5 59t-36.5 32.5t-45 10t-45 -10t-36.5 -32.5t-24.5 -59t-9 -88.5
q0 -53 9 -89t24.5 -58.5t36.5 -32.5t45 -10t45 10t36.5 32.5t24.5 58.5t9 89z" />
    <glyph glyph-name="afii10081" unicode="&#x43f;" horiz-adv-x="550" 
d="M475 0h-100v430h-200v-430h-100v500h400v-500z" />
    <glyph glyph-name="afii10082" unicode="&#x440;" horiz-adv-x="535" 
d="M175 80q12 -6 27 -10q13 -4 30 -7t38 -3q24 0 45 10t36.5 32.5t24.5 58.5t9 89q0 51 -8.5 86t-23 57t-33.5 32t-40 10q-23 0 -42 -9.5t-33 -20.5q-17 -13 -30 -30v-295zM145 -200h-70v700h70l10 -60h5q14 19 35 35q18 13 45 24t65 11q36 0 68.5 -16t57 -48.5t39.5 -81
t15 -114.5t-15 -114.5t-42 -81t-63.5 -48.5t-79.5 -16q-23 0 -43 4.5t-35 10.5q-18 6 -32 15v-190z" />
    <glyph glyph-name="afii10083" unicode="&#x441;" horiz-adv-x="455" 
d="M270 440q-26 0 -48 -10t-38 -32.5t-25 -59t-9 -88.5q0 -105 35 -147.5t95 -42.5q23 0 42.5 7t34.5 15q18 10 33 23h10l35 -60q-19 -16 -45 -28q-22 -11 -52 -19t-68 -8q-101 0 -160.5 64.5t-59.5 195.5q0 66 15 114.5t43 81t66.5 48.5t85.5 16q38 0 68 -8.5t52 -19.5
q26 -12 45 -27l-35 -60h-10q-15 12 -33 22q-15 8 -34.5 15.5t-42.5 7.5z" />
    <glyph glyph-name="afii10084" unicode="&#x442;" horiz-adv-x="420" 
d="M410 430h-150v-430h-100v430h-150v70h400v-70z" />
    <glyph glyph-name="afii10085" unicode="&#x443;" horiz-adv-x="475" 
d="M125 -140q26 0 46.5 20t28.5 50l20 70h-40l-165 500h100l110 -330q4 -11 7.5 -25l6.5 -26q4 -14 7 -29h4q2 15 6 29l6.5 26t6.5 25l91 330h100l-160 -570q-17 -60 -59 -100t-106 -40q-23 0 -41.5 4.5t-31.5 10.5q-16 6 -27 15l25 65h10q7 -8 16 -13q8 -5 18 -8.5t21 -3.5
z" />
    <glyph glyph-name="afii10086" unicode="&#x444;" horiz-adv-x="680" 
d="M390 60q68 4 106.5 48t38.5 142t-38.5 142t-106.5 48v-380zM290 670l30 30h70v-190q117 -4 181 -69.5t64 -190.5t-64 -190.5t-181 -69.5v-190h-100v190q-117 4 -181 69.5t-64 190.5t64 190.5t181 69.5v160zM290 440q-68 -4 -106.5 -48t-38.5 -142t38.5 -142t106.5 -48
v380z" />
    <glyph glyph-name="afii10087" unicode="&#x445;" horiz-adv-x="460" 
d="M228 185q-2 -7 -5 -14q-5 -13 -13 -26l-85 -145h-110l155 255l-150 245h110l80 -140l6.5 -13t5.5 -13l6 -14h4l6 14q2 6 5 13t7 13l80 140h110l-150 -245l155 -255h-110l-85 145q-8 13 -13 26q-3 7 -5 14h-4z" />
    <glyph glyph-name="afii10088" unicode="&#x446;" horiz-adv-x="565" 
d="M75 0v500h100v-430h190v430h100v-430h65v-210h-80l-15 140h-360z" />
    <glyph glyph-name="afii10089" unicode="&#x447;" horiz-adv-x="520" 
d="M230 170q-39 0 -71.5 12.5t-55.5 34.5t-35.5 52t-12.5 66v165h100v-165q0 -42 27.5 -68.5t72.5 -26.5q19 0 35.5 2t28.5 5q14 4 26 8v245h100v-500h-100v185q-15 -4 -33 -8q-16 -3 -37 -5t-45 -2z" />
    <glyph glyph-name="afii10090" unicode="&#x448;" horiz-adv-x="790" 
d="M715 0h-640v500h100v-430h170v430h100v-430h170v430h100v-500z" />
    <glyph glyph-name="afii10091" unicode="&#x449;" horiz-adv-x="815" 
d="M75 0v500h100v-430h170v430h100v-430h170v430h100v-430h65v-210h-80l-15 140h-610z" />
    <glyph glyph-name="afii10092" unicode="&#x44a;" horiz-adv-x="555" 
d="M330 330q105 0 152.5 -43t47.5 -122t-47.5 -122t-152.5 -43h-190v430h-130v70h230v-170h90zM240 260v-190h90q53 0 76.5 23t23.5 72t-23.5 72t-76.5 23h-90z" />
    <glyph glyph-name="afii10093" unicode="&#x44b;" horiz-adv-x="710" 
d="M635 0h-100v500h100v-500zM255 330q105 0 152.5 -43t47.5 -122t-47.5 -122t-152.5 -43h-180v500h100v-170h80zM175 260v-190h80q53 0 76.5 23t23.5 72t-23.5 72t-76.5 23h-80z" />
    <glyph glyph-name="afii10094" unicode="&#x44c;" horiz-adv-x="490" 
d="M265 330q105 0 152.5 -43t47.5 -122t-47.5 -122t-152.5 -43h-190v500h100v-170h90zM175 260v-190h90q53 0 76.5 23t23.5 72t-23.5 72t-76.5 23h-90z" />
    <glyph glyph-name="afii10095" unicode="&#x44d;" horiz-adv-x="455" 
d="M185 440q-23 0 -43 -7.5t-35 -15.5q-18 -10 -32 -22h-10l-35 60q19 15 45 27q22 11 52 19.5t68 8.5q47 0 85.5 -16t66.5 -48.5t43 -81t15 -114.5q0 -131 -59.5 -195.5t-160.5 -64.5q-38 0 -68 8t-52 19q-26 12 -45 28l35 60h10q14 -13 32 -23q15 -8 35 -15t43 -7
q55 0 90 37t39 123h-180v70h180q-8 83 -39.5 116.5t-79.5 33.5z" />
    <glyph glyph-name="afii10096" unicode="&#x44e;" horiz-adv-x="715" 
d="M665 250q0 -66 -15 -114.5t-42.5 -81t-65 -48.5t-82.5 -16q-87 0 -142 56.5t-63 173.5h-80v-220h-100v500h100v-210h80q4 56 21 97.5t44 68.5t63 40.5t77 13.5q45 0 82.5 -16t65 -48.5t42.5 -81t15 -114.5zM565 250q0 52 -8.5 88.5t-23 59t-33.5 32.5t-40 10t-40 -10
t-33.5 -32.5t-23 -59t-8.5 -88.5q0 -53 8.5 -89t23 -58.5t33.5 -32.5t40 -10t40 10t33.5 32.5t23 58.5t8.5 89z" />
    <glyph glyph-name="afii10097" unicode="&#x44f;" 
d="M265 190q-23 0 -38 -13.5t-22 -36.5l-20 -65q-13 -42 -35.5 -63.5t-64.5 -21.5q-25 0 -43 5q-10 2 -17 5l10 65h5q2 -2 6 -3q8 -2 14 -2q21 0 30 30l20 65q5 17 15 28.5t20 18.5q11 8 25 13q-34 6 -60 22q-23 14 -41.5 39t-18.5 69q0 71 47.5 113t152.5 42h185v-500h-100
v190h-70zM335 260v170h-85q-53 0 -76.5 -21.5t-23.5 -63.5t23.5 -63.5t76.5 -21.5h85z" />
    <glyph glyph-name="afii10071" unicode="&#x451;" horiz-adv-x="505" 
d="M255 510q45 0 82.5 -16t65 -48.5t42.5 -81t15 -114.5v-15l-20 -20h-290q0 -79 35 -117t95 -38q23 0 42.5 7t34.5 15q18 10 33 23h10l35 -60q-19 -16 -45 -28q-22 -11 -52 -19t-68 -8q-101 0 -160.5 64.5t-59.5 195.5q0 66 15 114.5t42.5 81t65 48.5t82.5 16zM255 440
q-45 0 -75 -36t-30 -119h210q0 83 -30 119t-75 36zM226 620q0 -24 -15.5 -39.5t-39.5 -15.5t-39.5 15.5t-15.5 39.5t15.5 39.5t39.5 15.5t39.5 -15.5t15.5 -39.5zM400 620q0 -24 -15.5 -39.5t-39.5 -15.5t-39.5 15.5t-15.5 39.5t15.5 39.5t39.5 15.5t39.5 -15.5t15.5 -39.5z
" />
    <glyph glyph-name="afii10099" unicode="&#x452;" horiz-adv-x="555" 
d="M315 -70q34 0 54.5 22.5t20.5 67.5v260q0 42 -26.5 68.5t-68.5 26.5q-23 0 -42 -9.5t-33 -20.5q-17 -13 -30 -30v-315h-100v520h-65v70h65v80l30 30h70v-110h135v-70h-135v-120q14 14 33 25q17 9 41 17t56 8q37 0 68.5 -12.5t54 -35t35 -54t12.5 -68.5v-260
q0 -36 -11.5 -65.5t-32 -50.5t-49 -32.5t-62.5 -11.5q-17 0 -31.5 2t-25.5 5q-12 4 -23 8l10 65h10q5 -3 12 -5q12 -5 28 -5z" />
    <glyph glyph-name="afii10100" unicode="&#x453;" horiz-adv-x="415" 
d="M405 430h-230v-430h-100v500h330v-70zM350 700l-90 -150h-65l45 150h110z" />
    <glyph glyph-name="afii10101" unicode="&#x454;" horiz-adv-x="455" 
d="M270 440q-48 0 -79.5 -33.5t-39.5 -116.5h180v-70h-180q4 -86 38.5 -123t90.5 -37q23 0 42.5 7t34.5 15q18 10 33 23h10l35 -60q-19 -16 -45 -28q-22 -11 -52 -19t-68 -8q-101 0 -160.5 64.5t-59.5 195.5q0 66 15 114.5t43 81t66.5 48.5t85.5 16q38 0 68 -8.5t52 -19.5
q26 -12 45 -27l-35 -60h-10q-15 12 -33 22q-15 8 -34.5 15.5t-42.5 7.5z" />
    <glyph glyph-name="afii10102" unicode="&#x455;" horiz-adv-x="460" 
d="M220 -10q-45 0 -80 8t-58 19q-27 12 -47 28l35 60h10q15 -13 35 -23q17 -8 41 -15t54 -7q64 0 89.5 20t25.5 50q0 27 -20.5 43.5t-52 28.5t-67.5 23t-67.5 28t-52 43t-20.5 69q0 64 46 104.5t144 40.5q42 0 74 -8.5t55 -19.5q26 -12 46 -27l-35 -60h-10q-16 12 -34 22
q-16 8 -38 15.5t-48 7.5q-53 0 -76.5 -19.5t-23.5 -45.5q0 -27 20.5 -43.5t52 -28.5t67.5 -23t67.5 -28t52 -43.5t20.5 -68.5q0 -34 -11.5 -61.5t-36.5 -47t-64 -30.5t-93 -11z" />
    <glyph glyph-name="afii10103" unicode="&#x456;" horiz-adv-x="250" 
d="M175 500v-500h-100v500h100zM185 640q0 -26 -17 -43t-43 -17t-43 17t-17 43t17 43t43 17t43 -17t17 -43z" />
    <glyph glyph-name="afii10104" unicode="&#x457;" horiz-adv-x="250" 
d="M175 500v-500h-100v500h100zM95 640q0 -26 -17 -43t-43 -17t-43 17t-17 43t17 43t43 17t43 -17t17 -43zM275 640q0 -26 -17 -43t-43 -17t-43 17t-17 43t17 43t43 17t43 -17t17 -43z" />
    <glyph glyph-name="afii10105" unicode="&#x458;" horiz-adv-x="250" 
d="M185 640q0 -26 -17 -43t-43 -17t-43 17t-17 43t17 43t43 17t43 -17t17 -43zM0 -130q34 0 54.5 22.5t20.5 67.5v540h100v-540q0 -36 -11.5 -65.5t-33.5 -50.5t-52.5 -32.5t-67.5 -11.5q-23 0 -41.5 4.5t-31.5 10.5q-16 6 -27 15l25 65h10q7 -8 16 -13q8 -5 18 -8.5
t21 -3.5z" />
    <glyph glyph-name="afii10106" unicode="&#x459;" horiz-adv-x="760" 
d="M535 330q105 0 152.5 -43t47.5 -122t-47.5 -122t-152.5 -43h-190v430h-135l-15 -270q-5 -90 -39.5 -130t-90.5 -40q-22 0 -39 5q-9 2 -16 5l5 65h10q2 -2 6 -3q8 -2 14 -2q19 0 32.5 20t17.5 80l20 340h330v-170h90zM445 260v-190h90q53 0 76.5 23t23.5 72t-23.5 72
t-76.5 23h-90z" />
    <glyph glyph-name="afii10107" unicode="&#x45a;" horiz-adv-x="770" 
d="M545 310q105 0 152.5 -42t47.5 -113t-47.5 -113t-152.5 -42h-190v240h-180v-240h-100v500h100v-190h180v190h100v-190h90zM455 240v-170h90q53 0 76.5 21.5t23.5 63.5t-23.5 63.5t-76.5 21.5h-90z" />
    <glyph glyph-name="afii10108" unicode="&#x45b;" horiz-adv-x="560" 
d="M90 590v80l30 30h70v-110h135v-70h-135v-120q14 14 33 25q17 9 41 17t56 8q37 0 68.5 -12.5t54 -35t35 -54t12.5 -68.5v-280h-100v280q0 42 -26.5 68.5t-68.5 26.5q-23 0 -42 -9.5t-33 -20.5q-17 -13 -30 -30v-315h-100v520h-65v70h65z" />
    <glyph glyph-name="afii10109" unicode="&#x45c;" 
d="M310 260q19 -3 36 -13q14 -8 28 -23t21 -39l25 -95q7 -30 30 -30q6 0 14 2q4 1 6 3h5l10 -65q-7 -3 -17 -5q-18 -5 -43 -5q-42 0 -65.5 22t-34.5 63l-25 95q-6 23 -22.5 36.5t-42.5 13.5h-60v-220h-100v500h100v-210h50q29 0 44.5 13.5t20.5 36.5l20 85q10 42 33.5 63.5
t66.5 21.5q13 0 24 -1.5t19 -3.5q10 -3 17 -5l-10 -65h-5q-2 1 -6 2q-3 1 -6.5 2t-7.5 1q-23 0 -30 -30l-20 -85q-5 -23 -17.5 -35.5t-25.5 -19.5q-15 -8 -32 -10zM370 690l-90 -150h-65l45 150h110z" />
    <glyph glyph-name="afii10110" unicode="&#x45e;" horiz-adv-x="475" 
d="M125 -140q26 0 46.5 20t28.5 50l20 70h-40l-165 500h100l110 -330q4 -11 7.5 -25l6.5 -26q4 -14 7 -29h4q2 15 6 29l6.5 26t6.5 25l91 330h100l-160 -570q-17 -60 -59 -100t-106 -40q-23 0 -41.5 4.5t-31.5 10.5q-16 6 -27 15l25 65h10q7 -8 16 -13q8 -5 18 -8.5t21 -3.5
zM240 600q30 0 45 16t15 54h90q0 -60 -37.5 -95t-112.5 -35t-112.5 35t-37.5 95h90q0 -38 15 -54t45 -16z" />
    <glyph glyph-name="afii10193" unicode="&#x45f;" horiz-adv-x="550" 
d="M75 0v500h100v-430h200v430h100v-500h-150l-10 -140h-80l-10 140h-150z" />
    <glyph glyph-name="afii10050" unicode="&#x490;" horiz-adv-x="490" 
d="M480 800v-170h-290v-630h-100v700h300l10 100h80z" />
    <glyph glyph-name="afii10098" unicode="&#x491;" horiz-adv-x="415" 
d="M75 500h240l10 90h80v-160h-230v-430h-100v500z" />
    <glyph glyph-name="endash" unicode="&#x2013;" 
d="M30 250v80h450v-80h-450z" />
    <glyph glyph-name="emdash" unicode="&#x2014;" horiz-adv-x="720" 
d="M30 250v80h660v-80h-660z" />
    <glyph glyph-name="quoteleft" unicode="&#x2018;" horiz-adv-x="200" 
d="M160 530q0 -26 -16 -43t-39 -17q-30 0 -47.5 18t-17.5 52q0 43 14 75t31 53q19 25 45 42l30 -35q-16 -12 -28 -26q-11 -12 -19 -27t-8 -32q23 0 39 -17t16 -43z" />
    <glyph glyph-name="quoteright" unicode="&#x2019;" horiz-adv-x="200" 
d="M40 650q0 26 16 43t39 17q30 0 47.5 -18t17.5 -52q0 -44 -14 -75.5t-31 -52.5q-20 -25 -45 -42l-30 35q15 12 27 26q11 12 19.5 27t8.5 32q-23 0 -39 17t-16 43z" />
    <glyph glyph-name="quotesinglbase" unicode="&#x201a;" horiz-adv-x="200" 
d="M40 50q0 26 16 43t39 17q30 0 47.5 -18t17.5 -52q0 -44 -14 -75.5t-31 -52.5q-20 -25 -45 -42l-30 35q15 12 27 26q11 12 19.5 27t8.5 32q-23 0 -39 17t-16 43z" />
    <glyph glyph-name="quotedblleft" unicode="&#x201c;" horiz-adv-x="360" 
d="M320 530q0 -26 -16 -43t-39 -17q-30 0 -47.5 18t-17.5 52q0 43 14 75t31 53q19 25 45 42l30 -35q-16 -12 -28 -26q-11 -12 -19 -27t-8 -32q23 0 39 -17t16 -43zM160 530q0 -26 -16 -43t-39 -17q-30 0 -47.5 18t-17.5 52q0 43 14 75t31 53q19 25 45 42l30 -35
q-16 -12 -28 -26q-11 -12 -19 -27t-8 -32q23 0 39 -17t16 -43z" />
    <glyph glyph-name="quotedblright" unicode="&#x201d;" horiz-adv-x="360" 
d="M40 650q0 26 16 43t39 17q30 0 47.5 -18t17.5 -52q0 -44 -14 -75.5t-31 -52.5q-20 -25 -45 -42l-30 35q15 12 27 26q11 12 19.5 27t8.5 32q-23 0 -39 17t-16 43zM200 650q0 26 16 43t39 17q30 0 47.5 -18t17.5 -52q0 -44 -14 -75.5t-31 -52.5q-20 -25 -45 -42l-30 35
q15 12 27 26q11 12 19.5 27t8.5 32q-23 0 -39 17t-16 43z" />
    <glyph glyph-name="quotedblbase" unicode="&#x201e;" horiz-adv-x="360" 
d="M40 50q0 26 16 43t39 17q30 0 47.5 -18t17.5 -52q0 -44 -14 -75.5t-31 -52.5q-20 -25 -45 -42l-30 35q15 12 27 26q11 12 19.5 27t8.5 32q-23 0 -39 17t-16 43zM200 50q0 26 16 43t39 17q30 0 47.5 -18t17.5 -52q0 -44 -14 -75.5t-31 -52.5q-20 -25 -45 -42l-30 35
q15 12 27 26q11 12 19.5 27t8.5 32q-23 0 -39 17t-16 43z" />
    <glyph glyph-name="dagger" unicode="&#x2020;" horiz-adv-x="460" 
d="M180 410h-160v70h160v220h100v-220h160v-70h-160v-610h-100v610z" />
    <glyph glyph-name="daggerdbl" unicode="&#x2021;" horiz-adv-x="460" 
d="M180 410h-160v70h160v220h100v-220h160v-70h-160v-320h160v-70h-160v-220h-100v220h-160v70h160v320z" />
    <glyph glyph-name="bullet" unicode="&#x2022;" horiz-adv-x="370" 
d="M305 310q0 -53 -33.5 -86.5t-86.5 -33.5t-86.5 33.5t-33.5 86.5t33.5 86.5t86.5 33.5t86.5 -33.5t33.5 -86.5z" />
    <glyph glyph-name="ellipsis" unicode="&#x2026;" horiz-adv-x="580" 
d="M40 50q0 26 17 43t43 17t43 -17t17 -43t-17 -43t-43 -17t-43 17t-17 43zM230 50q0 26 17 43t43 17t43 -17t17 -43t-17 -43t-43 -17t-43 17t-17 43zM420 50q0 26 17 43t43 17t43 -17t17 -43t-17 -43t-43 -17t-43 17t-17 43z" />
    <glyph glyph-name="perthousand" unicode="&#x2030;" horiz-adv-x="1131" 
d="M570 700h110l-470 -700h-110zM600 290q-30 0 -50 -26.5t-20 -93.5q0 -34 5.5 -57t14.5 -37t22 -20t28 -6t28 6t22 20t14.5 37t5.5 57q0 67 -20 93.5t-50 26.5zM600 350q72 0 116 -46.5t44 -133.5t-44 -133.5t-116 -46.5t-116 46.5t-44 133.5t44 133.5t116 46.5zM951 290
q-30 0 -50 -26.5t-20 -93.5q0 -34 5.5 -57t14.5 -37t22 -20t28 -6t28 6t22 20t14.5 37t5.5 57q0 67 -20 93.5t-50 26.5zM951 350q72 0 116 -46.5t44 -133.5t-44 -133.5t-116 -46.5t-116 46.5t-44 133.5t44 133.5t116 46.5zM180 650q-30 0 -50 -26.5t-20 -93.5q0 -34 5.5 -57
t14.5 -37t22 -20t28 -6t28 6t22 20t14.5 37t5.5 57q0 67 -20 93.5t-50 26.5zM180 710q72 0 116 -46.5t44 -133.5t-44 -133.5t-116 -46.5t-116 46.5t-44 133.5t44 133.5t116 46.5z" />
    <glyph glyph-name="guilsinglleft" unicode="&#x2039;" horiz-adv-x="330" 
d="M200 470h120l-190 -210l190 -210h-120l-190 210z" />
    <glyph glyph-name="guilsinglright" unicode="&#x203a;" horiz-adv-x="340" 
d="M320 260l-190 -210h-120l190 210l-190 210h120z" />
    <glyph glyph-name="Euro" unicode="&#x20ac;" horiz-adv-x="545" 
d="M25 440h64q8 72 29 123.5t52.5 84t73 47.5t91.5 15q42 0 74 -8.5t55 -19.5q26 -12 46 -27l-35 -60h-10q-16 12 -34 22q-16 8 -38 15.5t-48 7.5q-29 0 -54.5 -10.5t-46 -34t-35 -61.5t-20.5 -94h220l-10 -60h-214v-60h210l-10 -60h-196q7 -56 21.5 -94.5t36 -62t49 -33.5
t59.5 -10q26 0 48 7t38 15q18 10 34 23h10l35 -60q-20 -16 -46 -28q-23 -11 -55 -19t-74 -8q-53 0 -96 15t-76 47.5t-54.5 83.5t-29.5 124h-79l10 60h65v60h-70z" />
    <glyph glyph-name="afii61352" unicode="&#x2116;" horiz-adv-x="956" 
d="M621 290h280v-70h-280v70zM220 445q-5 11 -10 25.5t-10 28.5q-5 15 -10 31h-4q1 -16 2 -31q1 -14 1.5 -28.5t0.5 -25.5v-445h-100v700h110l210 -445q5 -11 10 -26t10 -28q5 -16 10 -31h4q-1 15 -2 31q-1 13 -1.5 28t-0.5 26v445h100v-700h-110zM761 650q-30 0 -50 -26.5
t-20 -93.5q0 -34 5.5 -57t14.5 -37t22 -20t28 -6t28 6t22 20t14.5 37t5.5 57q0 67 -20 93.5t-50 26.5zM761 710q72 0 116 -46.5t44 -133.5t-44 -133.5t-116 -46.5t-116 46.5t-44 133.5t44 133.5t116 46.5z" />
    <glyph glyph-name="trademark" unicode="&#x2122;" horiz-adv-x="850" 
d="M340 635h-120v-315h-90v315h-120v65h330v-65zM597 465q1 6 3 12q2 5 4.5 11t5.5 12l105 200h95v-380h-90v180v19t1 18q1 10 2 18h-5q-3 -9 -7 -19q-3 -8 -7 -17.5t-9 -18.5l-60 -115h-80l-60 115q-5 9 -9 18.5t-7 17.5q-4 10 -7 19h-5q0 -8 1 -18q1 -8 1.5 -18t0.5 -19
v-180h-90v380h95l105 -200q6 -11 9 -23l4 -12h4z" />
    <glyph glyph-name="commaaccent" horiz-adv-x="130" 
d="M10 -75q0 23 15.5 39t34.5 16q26 0 43 -17.5t17 -46.5q0 -40 -12.5 -68.5t-27.5 -47.5q-18 -22 -40 -36l-30 31q14 10 25 22q9 11 17 24.5t8 28.5q-19 0 -34.5 16t-15.5 39z" />
    <glyph glyph-name="apple" horiz-adv-x="1285" 
d="M20 260l165 165v-165h-165zM385 340q0 -17 -7 -32.5t-18.5 -27t-27 -18.5t-32.5 -7t-32.5 7t-27 18.5t-18.5 27t-7 32.5t7 32.5t18.5 27t27 18.5t32.5 7t32.5 -7t27 -18.5t18.5 -27t7 -32.5zM565 420l-90 -165l-90 165h180zM715 400l140 -140h-140v140zM520 260l90 165
l90 -165h-180zM875 280l-140 140h140v-140zM911 400l140 -140h-140v140zM1071 280l-140 140h140v-140zM1265 420l-90 -165l-90 165h180z" />
    <glyph glyph-name="kcedilla" horiz-adv-x="480" 
d="M75 0zM175 700v-430l170 230h115l-180 -240l190 -260h-115l-180 250v-250h-100v670l30 30h70zM240 -30q42 0 66 -23t24 -57t-25 -57t-70 -23q-19 0 -33.5 3t-25.5 7q-12 4 -21 10l16 40h9q-1 0 12.5 -7.5t32.5 -7.5t29.5 10t10.5 25t-11 25t-34 10h-40v95h60v-50z" />
    <glyph glyph-name=".ttfautohint" horiz-adv-x="360" 
d="M0 0z" />
    </font>
</defs>
</svg>
